<?xml version="1.0" encoding="iso-8859-1"?>
<!-- Generator: Adobe Illustrator 16.0.0, SVG Export Plug-In . SVG Version: 6.00 Build 0)  -->
<!DOCTYPE svg PUBLIC "-//W3C//DTD SVG 1.1//EN" "http://www.w3.org/Graphics/SVG/1.1/DTD/svg11.dtd">
<svg version="1.1" id="Layer_1" xmlns="http://www.w3.org/2000/svg" xmlns:xlink="http://www.w3.org/1999/xlink" x="0px" y="0px"
	 width="32px" height="32px" viewBox="0 0 32 32" style="enable-background:new 0 0 32 32;" xml:space="preserve">
<g id="Degree_2_">
	<g>
		<path style="fill-rule:evenodd;clip-rule:evenodd;fill:#EDA096;" d="M29,0c-1.657,0-3,1.343-3,3c0,1.656,1.343,3,3,3
			c1.657,0,3-1.344,3-3C32,1.343,30.657,0,29,0z M29,4.011c-0.558,0-1.011-0.453-1.011-1.011c0-0.559,0.453-1.011,1.011-1.011
			c0.558,0,1.01,0.452,1.01,1.011C30.01,3.558,29.558,4.011,29,4.011z"/>
	</g>
</g>
<g id="_x31_">
	<g>
		<path style="fill-rule:evenodd;clip-rule:evenodd;fill:#ED7161;" d="M28,10.34V10c0-1.104-0.896-2-2-2
			c-0.022,0-0.043,0.006-0.065,0.007c-0.404-0.021-0.818,0.072-1.194,0.3l-5.659,3.428c-1.042,0.632-1.399,2.029-0.797,3.123
			c0.602,1.093,1.934,1.468,2.976,0.837L24,14.034V30c0,1.104,0.896,2,2,2s2-0.896,2-2V10.461C28.003,10.421,27.999,10.38,28,10.34z
			"/>
	</g>
</g>
<g id="_x33_">
	<g>
		<path style="fill-rule:evenodd;clip-rule:evenodd;fill:#ED7161;" d="M16,10c0-0.011-0.003-0.021-0.003-0.032
			c0.008-0.502-0.176-1.008-0.56-1.391c-0.286-0.285-0.639-0.46-1.008-0.528C14.291,8.019,14.147,8,14,8H2c-1.104,0-2,0.896-2,2
			s0.896,2,2,2h7.3l-4.723,4.724c-0.75,0.75-0.75,1.965,0,2.715c0.392,0.393,0.912,0.574,1.426,0.556L6,20h2c2.209,0,4,1.791,4,4
			s-1.791,4-4,4s-4-1.791-4-4c0-1.104-0.896-2-2-2s-2,0.896-2,2c0,4.418,3.582,8,8,8c4.418,0,8-3.582,8-8
			c0-3.592-2.368-6.631-5.628-7.642l4.645-4.645C15.603,11.364,16,10.731,16,10z"/>
	</g>
</g>
<g>
</g>
<g>
</g>
<g>
</g>
<g>
</g>
<g>
</g>
<g>
</g>
<g>
</g>
<g>
</g>
<g>
</g>
<g>
</g>
<g>
</g>
<g>
</g>
<g>
</g>
<g>
</g>
<g>
</g>
</svg>
