<?xml version="1.0" encoding="iso-8859-1"?>
<!-- Generator: Adobe Illustrator 16.0.0, SVG Export Plug-In . SVG Version: 6.00 Build 0)  -->
<!DOCTYPE svg PUBLIC "-//W3C//DTD SVG 1.1//EN" "http://www.w3.org/Graphics/SVG/1.1/DTD/svg11.dtd">
<svg version="1.1" id="Layer_1" xmlns="http://www.w3.org/2000/svg" xmlns:xlink="http://www.w3.org/1999/xlink" x="0px" y="0px"
	 width="32.024px" height="33px" viewBox="0 0 32.024 33" style="enable-background:new 0 0 32.024 33;" xml:space="preserve">
<g id="Ball">
	<g>
		<path style="fill-rule:evenodd;clip-rule:evenodd;fill:#CCCCCC;" d="M21.029,1c-2.211,0-4.004,1.791-4.004,4s1.793,4,4.004,4
			c0.553,0,1.001-1.791,1.001-4C22.03,2.79,21.582,1,21.029,1z"/>
	</g>
</g>
<g id="Pole">
	<g>
		<path style="fill:#48A0DC;" d="M16.024,4c-1.105,0-2.002,0.896-2.002,2v25c0,1.104,0.896,2,2.002,2s2.002-0.896,2.002-2V6
			C18.026,4.896,17.13,4,16.024,4z"/>
	</g>
</g>
<g id="Pole_1_">
	<g>
		<rect x="3.012" y="4" style="fill:#999999;" width="24.023" height="2"/>
	</g>
</g>
<g id="Ball_5_">
	<g>
		<path style="fill:#999999;" d="M28.028,1.002c-2.209,0.004-4.004,1.793-4.007,3.997c-0.004,2.204,1.785,3.987,3.995,3.984
			s4.004-1.793,4.008-3.997C32.027,2.783,30.238,0.999,28.028,1.002z"/>
	</g>
</g>
<g id="Ball_2_">
	<g>
		<path style="fill:#999999;" d="M4,1C1.784,0.993-0.007,2.775,0,4.981S1.808,8.98,4.023,8.987s4.007-1.776,4-3.981
			C8.017,2.8,6.216,1.006,4,1z"/>
	</g>
</g>
<g id="Ball_3_">
	<g>
		<path style="fill-rule:evenodd;clip-rule:evenodd;fill:#666666;" d="M11.02,1c-0.553,0-1.001,1.79-1.001,4
			c0,2.209,0.448,4,1.001,4c2.211,0,4.004-1.791,4.004-4C15.023,2.79,13.23,1,11.02,1z"/>
	</g>
</g>
<g>
</g>
<g>
</g>
<g>
</g>
<g>
</g>
<g>
</g>
<g>
</g>
<g>
</g>
<g>
</g>
<g>
</g>
<g>
</g>
<g>
</g>
<g>
</g>
<g>
</g>
<g>
</g>
<g>
</g>
</svg>
