<?xml version="1.0" encoding="iso-8859-1"?>
<!-- Generator: Adobe Illustrator 16.0.0, SVG Export Plug-In . SVG Version: 6.00 Build 0)  -->
<!DOCTYPE svg PUBLIC "-//W3C//DTD SVG 1.1//EN" "http://www.w3.org/Graphics/SVG/1.1/DTD/svg11.dtd">
<svg version="1.1" id="Layer_1" xmlns="http://www.w3.org/2000/svg" xmlns:xlink="http://www.w3.org/1999/xlink" x="0px" y="0px"
	 width="24px" height="32px" viewBox="0 0 24 32" style="enable-background:new 0 0 24 32;" xml:space="preserve">
<g id="Leg">
	<g>
		<path style="fill:#666666;" d="M12,20c-1.104,0-2,0.896-2,2v8c0,1.104,0.896,2,2,2s2-0.896,2-2v-8C14,20.896,13.104,20,12,20z"/>
	</g>
</g>
<g id="Stand">
	<g>
		<path style="fill:#CCCCCC;" d="M18,28H6c-1.104,0-2,0.896-2,2s0.896,2,2,2h12c1.104,0,2-0.896,2-2S19.104,28,18,28z"/>
	</g>
</g>
<g id="Watch_Frame">
	<g>
		<circle style="fill:#CCCCCC;" cx="12" cy="12" r="12"/>
	</g>
</g>
<g id="Container">
	<g>
		<circle style="fill:#FFFFFF;" cx="12" cy="12" r="10"/>
	</g>
</g>
<g id="Hand">
	<g>
		<path style="fill:#CECECE;" d="M12.711,11.283L7.716,6.289c-0.394-0.395-1.032-0.395-1.427,0c-0.394,0.395-0.394,1.033,0,1.427
			l4.994,4.995c0.395,0.394,1.033,0.394,1.428,0C13.104,12.316,13.104,11.678,12.711,11.283z"/>
	</g>
</g>
<g id="Hand_3_">
	<g>
		<path style="fill:#CECECE;" d="M16.847,17.49l-3.77-6.002c-0.297-0.474-0.969-0.629-1.5-0.347
			c-0.532,0.282-0.722,0.895-0.425,1.368l3.77,6.002c0.298,0.473,0.97,0.628,1.501,0.347C16.955,18.576,17.145,17.964,16.847,17.49z
			"/>
	</g>
</g>
<g id="Hand_2_">
	<g>
		<path style="fill:#ED7161;" d="M18.875,7.547c-0.283-0.537-0.898-0.729-1.373-0.429l-6.024,3.809
			c-0.476,0.301-0.632,0.979-0.349,1.517s0.898,0.729,1.373,0.429l6.024-3.809C19.002,8.763,19.157,8.084,18.875,7.547z"/>
	</g>
</g>
<g id="Dot">
	<g>
		<circle style="fill:#666666;" cx="12" cy="12" r="2"/>
	</g>
</g>
<g>
</g>
<g>
</g>
<g>
</g>
<g>
</g>
<g>
</g>
<g>
</g>
<g>
</g>
<g>
</g>
<g>
</g>
<g>
</g>
<g>
</g>
<g>
</g>
<g>
</g>
<g>
</g>
<g>
</g>
</svg>
