<?xml version="1.0" encoding="iso-8859-1"?>
<!-- Generator: Adobe Illustrator 16.0.0, SVG Export Plug-In . SVG Version: 6.00 Build 0)  -->
<!DOCTYPE svg PUBLIC "-//W3C//DTD SVG 1.1//EN" "http://www.w3.org/Graphics/SVG/1.1/DTD/svg11.dtd">
<svg version="1.1" id="Layer_1" xmlns="http://www.w3.org/2000/svg" xmlns:xlink="http://www.w3.org/1999/xlink" x="0px" y="0px"
	 width="32px" height="16px" viewBox="0 0 32 16" style="enable-background:new 0 0 32 16;" xml:space="preserve">
<g id="Calm_Wind">
	<g>
		<path style="fill-rule:evenodd;clip-rule:evenodd;fill:#54BBFF;" d="M20,8c0-1.104-0.896-2-2-2H2C0.896,6,0,6.896,0,8s0.896,2,2,2
			h16C19.104,10,20,9.104,20,8z M28,12H12c-1.104,0-2,0.896-2,2s0.896,2,2,2h16c1.104,0,2-0.896,2-2S29.104,12,28,12z M8,4h16
			c1.104,0,2-0.896,2-2s-0.896-2-2-2H8C6.896,0,6,0.896,6,2S6.896,4,8,4z M30,6h-6c-1.104,0-2,0.896-2,2s0.896,2,2,2h6
			c1.104,0,2-0.896,2-2S31.104,6,30,6z"/>
	</g>
</g>
<g>
</g>
<g>
</g>
<g>
</g>
<g>
</g>
<g>
</g>
<g>
</g>
<g>
</g>
<g>
</g>
<g>
</g>
<g>
</g>
<g>
</g>
<g>
</g>
<g>
</g>
<g>
</g>
<g>
</g>
</svg>
