<?xml version="1.0" encoding="iso-8859-1"?>
<!-- Generator: Adobe Illustrator 16.0.0, SVG Export Plug-In . SVG Version: 6.00 Build 0)  -->
<!DOCTYPE svg PUBLIC "-//W3C//DTD SVG 1.1//EN" "http://www.w3.org/Graphics/SVG/1.1/DTD/svg11.dtd">
<svg version="1.1" id="Layer_1" xmlns="http://www.w3.org/2000/svg" xmlns:xlink="http://www.w3.org/1999/xlink" x="0px" y="0px"
	 width="28px" height="32px" viewBox="0 0 28 32" style="enable-background:new 0 0 28 32;" xml:space="preserve">
<g id="Celsius">
	<g>
		<path style="fill-rule:evenodd;clip-rule:evenodd;fill:#ED7161;" d="M26,22c-1.105,0-2,0.896-2,2c0,2.209-1.791,4-4,4
			c-2.209,0-4-1.791-4-4v-6.921v-2.158V8c0-2.209,1.791-4,4-4c2.209,0,4,1.791,4,4c0,1.104,0.895,2,2,2c1.104,0,2-0.896,2-2
			c0-4.418-3.582-8-8-8c-4.415,0-7.994,3.577-8,7.99C12,7.994,12,7.997,12,8v16C12,24.003,12,24.006,12,24.01
			c0.005,4.413,3.584,7.99,8,7.99c4.418,0,8-3.582,8-8C28,22.896,27.104,22,26,22z"/>
	</g>
</g>
<g id="Degree">
	<g>
		<path style="fill-rule:evenodd;clip-rule:evenodd;fill:#EDA096;" d="M5,0C2.238,0,0,2.238,0,5s2.238,5,5,5c2.761,0,5-2.238,5-5
			S7.761,0,5,0z M5,7C3.895,7,3,6.104,3,5s0.895-2,2-2c1.104,0,2,0.896,2,2S6.104,7,5,7z"/>
	</g>
</g>
<g>
</g>
<g>
</g>
<g>
</g>
<g>
</g>
<g>
</g>
<g>
</g>
<g>
</g>
<g>
</g>
<g>
</g>
<g>
</g>
<g>
</g>
<g>
</g>
<g>
</g>
<g>
</g>
<g>
</g>
</svg>
