<?xml version="1.0" encoding="iso-8859-1"?>
<!-- Generator: Adobe Illustrator 16.0.0, SVG Export Plug-In . SVG Version: 6.00 Build 0)  -->
<!DOCTYPE svg PUBLIC "-//W3C//DTD SVG 1.1//EN" "http://www.w3.org/Graphics/SVG/1.1/DTD/svg11.dtd">
<svg version="1.1" id="Layer_1" xmlns="http://www.w3.org/2000/svg" xmlns:xlink="http://www.w3.org/1999/xlink" x="0px" y="0px"
	 width="12px" height="37px" viewBox="0 0 12 37" style="enable-background:new 0 0 12 37;" xml:space="preserve">
<g id="Stick_1_">
	<g>
		<path style="fill:#CCCCCC;" d="M7,0C6.447,0,6,0.447,6,1v26c0,1.656-0.343,3-2,3s-2-1.344-2-3c0-0.553-0.448-1-1-1
			c-0.553,0-1,0.447-1,1c0,2.762,1.238,5,4,5s4-2.238,4-5V1C8,0.447,7.552,0,7,0z"/>
	</g>
</g>
<g id="Umbrella_3_">
	<g>
		<path style="fill-rule:evenodd;clip-rule:evenodd;fill:#9B7CAB;" d="M7,2C4.797,2,3.012,9.163,3.012,18h7.977
			C10.988,9.163,9.203,2,7,2z"/>
	</g>
</g>
<g id="Umbrella_4_">
	<g>
		<path style="fill:#846A91;" d="M11,18H3l-1,5c3.115-0.825,3.75,1,3.75,1c1.391-2.198,2.5,0,2.5,0c1.814-1.452,3.75-1,3.75-1L11,18
			z"/>
	</g>
</g>
<g>
</g>
<g>
</g>
<g>
</g>
<g>
</g>
<g>
</g>
<g>
</g>
<g>
</g>
<g>
</g>
<g>
</g>
<g>
</g>
<g>
</g>
<g>
</g>
<g>
</g>
<g>
</g>
<g>
</g>
</svg>
