<?xml version="1.0" encoding="iso-8859-1"?>
<!-- Generator: Adobe Illustrator 16.0.0, SVG Export Plug-In . SVG Version: 6.00 Build 0)  -->
<!DOCTYPE svg PUBLIC "-//W3C//DTD SVG 1.1//EN" "http://www.w3.org/Graphics/SVG/1.1/DTD/svg11.dtd">
<svg version="1.1" id="Layer_1" xmlns="http://www.w3.org/2000/svg" xmlns:xlink="http://www.w3.org/1999/xlink" x="0px" y="0px"
	 width="32px" height="31.994px" viewBox="0 0 32 31.994" style="enable-background:new 0 0 32 31.994;" xml:space="preserve">
<g id="Label">
	<g>
		<path style="fill:#FFCC66;" d="M30,0H2C0.896,0,0,0.896,0,2v27.994c0,1.104,0.896,2,2,2h28c1.104,0,2-0.896,2-2V2
			C32,0.896,31.104,0,30,0z"/>
	</g>
</g>
<g id="D">
	<g>
		<path style="fill-rule:evenodd;clip-rule:evenodd;fill:#FFFFFF;" d="M10.5,4c-0.114,0-0.222,0.023-0.333,0.033
			C10.11,4.023,10.06,4,10,4H8C7.447,4,7,4.447,7,4.999v2.5v2.999v2.5c0,0.552,0.447,0.999,1,0.999h2
			c0.045,0,0.084-0.02,0.128-0.025c0.122,0.014,0.245,0.025,0.372,0.025c1.933,0,3.5-1.566,3.5-3.499V7.499
			C14,5.566,12.433,4,10.5,4z M12,10.498c0,0.817-0.654,1.479-1.468,1.497L10,11.996v0.002H9v-0.001V5.999V5.997l1.465-0.002
			c0.012,0,0.023,0.004,0.035,0.004c0.828,0,1.5,0.672,1.5,1.5V10.498z"/>
	</g>
</g>
<g id="U">
	<g>
		<path style="fill-rule:evenodd;clip-rule:evenodd;fill:#FFFFFF;" d="M24,4c-0.553,0-1,0.447-1,0.999v0.969v1.531v0.5v1.999v0.5
			c0,0.828-0.672,1.5-1.5,1.5s-1.5-0.672-1.5-1.5v-0.5V7.999v-0.5V5.96V4.999C20,4.447,19.553,4,19,4s-1,0.447-1,0.999v2.5v2.499
			v0.5c0,1.933,1.566,3.499,3.5,3.499c1.933,0,3.5-1.566,3.5-3.499v-0.5V7.499v-2.5C25,4.447,24.552,4,24,4z"/>
	</g>
</g>
<g id="S">
	<g>
		<path style="fill-rule:evenodd;clip-rule:evenodd;fill:#FFFFFF;" d="M10,20.996c-1.104,0-2-0.447-2-1c0-0.552,0.896-1,2-1
			s2,0.448,2,1c0,0.553,0.447,1,1,1c0.552,0,1-0.447,1-1c0-1.656-1.791-2.999-4-2.999s-4,1.343-4,2.999s1.791,3,4,3v-0.001
			c1.104,0,2,0.448,2,1.001c0,0.552-0.896,0.999-2,0.999s-2-0.447-2-0.999c0-0.553-0.448-1-1-1c-0.553,0-1,0.447-1,1
			c0,1.656,1.791,2.999,4,2.999s4-1.343,4-2.999C14,22.339,12.209,20.996,10,20.996z"/>
	</g>
</g>
<g id="T">
	<g>
		<path style="fill-rule:evenodd;clip-rule:evenodd;fill:#FFFFFF;" d="M24,16.997h-4c-0.553,0-1,0.447-1,0.999c0,0.553,0.447,1,1,1
			h1v6.999c0,0.552,0.447,1,1,1c0.552,0,1-0.448,1-1v-6.999h1c0.552,0,1-0.447,1-1C25,17.444,24.552,16.997,24,16.997z"/>
	</g>
</g>
<g>
</g>
<g>
</g>
<g>
</g>
<g>
</g>
<g>
</g>
<g>
</g>
<g>
</g>
<g>
</g>
<g>
</g>
<g>
</g>
<g>
</g>
<g>
</g>
<g>
</g>
<g>
</g>
<g>
</g>
</svg>
