<?xml version="1.0" encoding="iso-8859-1"?>
<!-- Generator: Adobe Illustrator 16.0.0, SVG Export Plug-In . SVG Version: 6.00 Build 0)  -->
<!DOCTYPE svg PUBLIC "-//W3C//DTD SVG 1.1//EN" "http://www.w3.org/Graphics/SVG/1.1/DTD/svg11.dtd">
<svg version="1.1" id="Layer_1" xmlns="http://www.w3.org/2000/svg" xmlns:xlink="http://www.w3.org/1999/xlink" x="0px" y="0px"
	 width="28px" height="32px" viewBox="0 0 28 32" style="enable-background:new 0 0 28 32;" xml:space="preserve">
<g id="Fahrenheit">
	<g>
		<path style="fill-rule:evenodd;clip-rule:evenodd;fill:#ED7161;" d="M26,0H14c-1.105,0-2,0.896-2,2v28c0,1.104,0.895,2,2,2
			c1.104,0,2-0.896,2-2V18h8c1.104,0,2-0.896,2-2s-0.896-2-2-2h-8V4h10c1.104,0,2-0.896,2-2S27.105,0,26,0z"/>
	</g>
</g>
<g id="Degree_1_">
	<g>
		<path style="fill-rule:evenodd;clip-rule:evenodd;fill:#EDA096;" d="M5,0C2.239,0,0,2.238,0,5s2.239,5,5,5c2.761,0,5-2.238,5-5
			S7.762,0,5,0z M5,7C3.896,7,3,6.104,3,5s0.895-2,2-2c1.104,0,2,0.896,2,2S6.105,7,5,7z"/>
	</g>
</g>
<g>
</g>
<g>
</g>
<g>
</g>
<g>
</g>
<g>
</g>
<g>
</g>
<g>
</g>
<g>
</g>
<g>
</g>
<g>
</g>
<g>
</g>
<g>
</g>
<g>
</g>
<g>
</g>
<g>
</g>
</svg>
