<?xml version="1.0" encoding="iso-8859-1"?>
<!-- Generator: Adobe Illustrator 16.0.0, SVG Export Plug-In . SVG Version: 6.00 Build 0)  -->
<!DOCTYPE svg PUBLIC "-//W3C//DTD SVG 1.1//EN" "http://www.w3.org/Graphics/SVG/1.1/DTD/svg11.dtd">
<svg version="1.1" id="Layer_1" xmlns="http://www.w3.org/2000/svg" xmlns:xlink="http://www.w3.org/1999/xlink" x="0px" y="0px"
	 width="32px" height="22.996px" viewBox="0 0 32 22.996" style="enable-background:new 0 0 32 22.996;" xml:space="preserve">
<g id="Water">
	<g>
		<path style="fill-rule:evenodd;clip-rule:evenodd;fill:#54BBFF;" d="M31.748,15.34c-0.764-0.861-1.79-1.335-2.89-1.335
			c-0.001,0-0.001,0-0.001,0c-1.1,0-2.127,0.474-2.892,1.334c-0.38,0.429-0.876,0.664-1.396,0.664c0,0,0,0-0.001,0
			c-0.519-0.001-1.013-0.235-1.392-0.664c-0.766-0.86-1.792-1.334-2.892-1.334c0,0,0,0-0.001,0c-1.099,0-2.125,0.474-2.89,1.334
			c-0.38,0.429-0.876,0.664-1.396,0.664s-1.015-0.235-1.395-0.664c-0.766-0.86-1.792-1.334-2.892-1.334s-2.126,0.474-2.891,1.335
			c-0.76,0.855-2.029,0.855-2.789-0.001c-0.766-0.86-1.792-1.334-2.892-1.334s-2.126,0.474-2.891,1.334
			c-0.367,0.413-0.329,1.044,0.084,1.411c0.414,0.365,1.045,0.327,1.412-0.084c0.76-0.855,2.03-0.855,2.79-0.001
			c0.765,0.861,1.791,1.336,2.891,1.336c1.099,0,2.125-0.475,2.891-1.335c0.76-0.855,2.03-0.855,2.79-0.001
			c0.765,0.861,1.791,1.335,2.89,1.336H16c1.1-0.001,2.126-0.475,2.892-1.335c0.76-0.855,2.031-0.854,2.789-0.001
			c0.764,0.86,1.789,1.335,2.888,1.336c0.001,0,0.002,0,0.002,0c1.1-0.001,2.126-0.474,2.892-1.335
			c0.38-0.428,0.875-0.664,1.396-0.664c0.52,0,1.015,0.236,1.395,0.663c0.366,0.412,0.998,0.449,1.411,0.085
			C32.077,16.384,32.114,15.752,31.748,15.34z M25.354,20.334c-0.356,0.428-0.822,0.664-1.31,0.664c0,0,0,0-0.001,0
			c-0.487-0.001-0.951-0.236-1.307-0.664c-0.719-0.861-1.683-1.336-2.714-1.336c0,0,0,0-0.001,0
			c-1.031,0.001-1.995,0.476-2.713,1.336c-0.356,0.428-0.822,0.664-1.31,0.664c-0.487-0.001-0.952-0.236-1.309-0.664
			c-0.719-0.86-1.682-1.336-2.714-1.336s-1.996,0.476-2.714,1.336c-0.714,0.856-1.905,0.856-2.618,0
			c-0.345-0.413-0.938-0.45-1.325-0.084c-0.388,0.366-0.424,0.998-0.079,1.41c0.718,0.86,1.682,1.336,2.713,1.336
			c1.032,0,1.995-0.476,2.714-1.336c0.713-0.856,1.905-0.856,2.618,0c0.718,0.86,1.682,1.335,2.713,1.336H16
			c1.032-0.001,1.995-0.476,2.714-1.336c0.714-0.856,1.907-0.855,2.618-0.001c0.717,0.86,1.68,1.336,2.711,1.337
			c0.001,0,0.002,0,0.002,0c1.031,0,1.995-0.475,2.714-1.336c0.344-0.412,0.309-1.044-0.079-1.41S25.7,19.92,25.354,20.334z"/>
	</g>
</g>
<g id="Down">
	<g>
		<path style="fill-rule:evenodd;clip-rule:evenodd;fill:#88C057;" d="M19.705,5.292c-0.406-0.403-1.065-0.403-1.473,0L17.02,6.496
			V1c0-0.552-0.449-1-1.004-1s-1.004,0.448-1.004,1v5.543l-1.25-1.249c-0.405-0.404-1.062-0.404-1.467,0
			c-0.404,0.404-0.404,1.062,0,1.465l2.933,2.931c0.193,0.193,0.444,0.283,0.698,0.291c0.031,0.003,0.058,0.019,0.09,0.019
			c0.192,0,0.361-0.068,0.514-0.161c0.054-0.028,0.104-0.064,0.152-0.103c0.016-0.014,0.034-0.022,0.049-0.037
			c0.01-0.008,0.021-0.014,0.03-0.022l2.944-2.923C20.111,6.35,20.111,5.695,19.705,5.292z"/>
	</g>
</g>
<g>
</g>
<g>
</g>
<g>
</g>
<g>
</g>
<g>
</g>
<g>
</g>
<g>
</g>
<g>
</g>
<g>
</g>
<g>
</g>
<g>
</g>
<g>
</g>
<g>
</g>
<g>
</g>
<g>
</g>
</svg>
