<?xml version="1.0" encoding="iso-8859-1"?>
<!-- Generator: Adobe Illustrator 16.0.0, SVG Export Plug-In . SVG Version: 6.00 Build 0)  -->
<!DOCTYPE svg PUBLIC "-//W3C//DTD SVG 1.1//EN" "http://www.w3.org/Graphics/SVG/1.1/DTD/svg11.dtd">
<svg version="1.1" id="Layer_1" xmlns="http://www.w3.org/2000/svg" xmlns:xlink="http://www.w3.org/1999/xlink" x="0px" y="0px"
	 width="32.031px" height="32.057px" viewBox="0 0 32.031 32.057" style="enable-background:new 0 0 32.031 32.057;"
	 xml:space="preserve">
<g id="Home">
	<g>
		<path style="fill-rule:evenodd;clip-rule:evenodd;fill:#CCCCCC;" d="M16.031,3.031l-12,12v6.131
			c0.769,0.181,1.472,0.6,2.034,1.231c0.376,0.425,0.878,0.638,1.381,0.642h0.026c0.503-0.004,1.005-0.217,1.382-0.642
			c0.765-0.861,1.791-1.336,2.891-1.336c1.1,0,2.125,0.475,2.891,1.336c0.35,0.394,0.799,0.616,1.273,0.65h0.24
			c0.475-0.033,0.926-0.256,1.276-0.65c0.765-0.861,1.791-1.336,2.89-1.336c0.001,0,0.001,0,0.001,0
			c1.099,0,2.125,0.474,2.892,1.336c0.368,0.416,0.847,0.647,1.351,0.659h0.082c0.504-0.012,0.985-0.242,1.355-0.659
			c0.562-0.632,1.266-1.051,2.035-1.231v-6.131L16.031,3.031z M7.985,32.057c0.075,0,0.146-0.021,0.219-0.025H7.766
			C7.84,32.036,7.911,32.057,7.985,32.057z M16.031,32.057L16.031,32.057c0.075,0,0.145-0.021,0.219-0.025h-0.437
			C15.886,32.036,15.957,32.057,16.031,32.057z M24.074,32.057c0.001,0,0.002,0,0.002,0c0.075,0,0.146-0.021,0.22-0.025h-0.439
			C23.929,32.036,24,32.057,24.074,32.057z"/>
	</g>
</g>
<g id="Water_2_">
	<g>
		<path style="fill-rule:evenodd;clip-rule:evenodd;fill:#54BBFF;" d="M31.779,24.394c-0.763-0.862-1.79-1.336-2.889-1.336
			c-0.001,0-0.001,0-0.001,0c-1.099,0-2.126,0.474-2.892,1.335c-0.379,0.429-0.876,0.665-1.395,0.665c0,0,0,0-0.001,0
			c-0.519-0.001-1.013-0.236-1.392-0.665c-0.766-0.861-1.792-1.335-2.892-1.335c0,0,0,0-0.001,0c-1.099,0-2.125,0.474-2.89,1.335
			c-0.38,0.429-0.876,0.665-1.396,0.665c-0.52,0-1.015-0.236-1.395-0.665c-0.766-0.861-1.792-1.335-2.891-1.335
			c-1.1,0-2.126,0.474-2.891,1.336c-0.76,0.856-2.029,0.856-2.789-0.001c-0.766-0.861-1.792-1.335-2.892-1.335
			c-1.099,0-2.125,0.474-2.891,1.335c-0.366,0.413-0.329,1.045,0.084,1.412c0.414,0.366,1.045,0.328,1.412-0.084
			c0.759-0.856,2.03-0.855,2.79-0.001c0.765,0.862,1.792,1.338,2.891,1.338c1.099,0,2.125-0.476,2.891-1.337
			c0.76-0.856,2.03-0.855,2.79-0.001c0.765,0.862,1.791,1.337,2.89,1.338h0c1.1-0.001,2.126-0.476,2.892-1.337
			c0.76-0.856,2.031-0.855,2.789-0.001c0.763,0.861,1.789,1.337,2.888,1.338c0.001,0,0.002,0,0.002,0
			c1.099-0.001,2.126-0.475,2.892-1.337c0.379-0.428,0.875-0.664,1.395-0.664s1.015,0.236,1.395,0.663
			c0.366,0.413,0.998,0.45,1.411,0.085C32.108,25.438,32.146,24.807,31.779,24.394z M25.386,29.393
			c-0.357,0.429-0.822,0.665-1.31,0.665c0,0,0,0-0.001,0c-0.487-0.001-0.951-0.236-1.306-0.665
			c-0.719-0.862-1.682-1.337-2.714-1.337c0,0,0,0-0.001,0c-1.031,0.001-1.995,0.476-2.712,1.337
			c-0.356,0.429-0.822,0.665-1.31,0.665c-0.488-0.001-0.953-0.236-1.309-0.665c-0.718-0.861-1.682-1.337-2.714-1.337
			s-1.996,0.476-2.714,1.337c-0.713,0.857-1.905,0.857-2.618,0c-0.345-0.413-0.938-0.451-1.325-0.084
			c-0.388,0.366-0.424,0.999-0.08,1.412c0.718,0.86,1.682,1.336,2.713,1.336s1.995-0.476,2.713-1.336
			c0.713-0.857,1.906-0.857,2.619,0c0.718,0.86,1.681,1.335,2.713,1.336h0c1.032-0.001,1.995-0.476,2.714-1.336
			c0.713-0.857,1.907-0.857,2.618-0.001c0.717,0.86,1.679,1.336,2.71,1.337c0.001,0,0.002,0,0.002,0
			c1.032,0,1.996-0.475,2.714-1.336c0.344-0.413,0.309-1.045-0.079-1.412C26.323,28.942,25.731,28.979,25.386,29.393z"/>
	</g>
</g>
<g id="Chimney">
	<g>
		<path style="fill:#4D4D4D;" d="M9.031,2.062h-2c-0.552,0-1,0.448-1,1v5.999c0,0.553,0.448,1,1,1h2c0.552,0,1-0.447,1-1V3.062
			C10.031,2.51,9.583,2.062,9.031,2.062z"/>
	</g>
</g>
<g id="Roof">
	<g>
		<path style="fill-rule:evenodd;clip-rule:evenodd;fill:#A67C52;" d="M31.457,14.687L17.77,0.999
			c-0.085-0.15-0.184-0.296-0.313-0.424c-0.585-0.585-1.446-0.72-2.162-0.413c-0.251,0.096-0.488,0.241-0.69,0.443
			c-0.077,0.077-0.141,0.162-0.203,0.248L0.575,14.681c-0.767,0.767-0.767,2.01,0,2.776c0.767,0.767,2.009,0.767,2.776,0
			L16.018,4.791l12.667,12.667c0.766,0.765,2.006,0.765,2.771,0C32.223,16.692,32.223,15.451,31.457,14.687z"/>
	</g>
</g>
<g>
</g>
<g>
</g>
<g>
</g>
<g>
</g>
<g>
</g>
<g>
</g>
<g>
</g>
<g>
</g>
<g>
</g>
<g>
</g>
<g>
</g>
<g>
</g>
<g>
</g>
<g>
</g>
<g>
</g>
</svg>
