<?xml version="1.0" encoding="iso-8859-1"?>
<!-- Generator: Adobe Illustrator 16.0.0, SVG Export Plug-In . SVG Version: 6.00 Build 0)  -->
<!DOCTYPE svg PUBLIC "-//W3C//DTD SVG 1.1//EN" "http://www.w3.org/Graphics/SVG/1.1/DTD/svg11.dtd">
<svg version="1.1" id="Layer_1" xmlns="http://www.w3.org/2000/svg" xmlns:xlink="http://www.w3.org/1999/xlink" x="0px" y="0px"
	 width="32px" height="15.997px" viewBox="0 0 32 15.997" style="enable-background:new 0 0 32 15.997;" xml:space="preserve">
<g id="Label_1_">
	<g>
		<path style="fill:#9B7CAB;" d="M30,0H2C0.896,0,0,0.896,0,2v11.998c0,1.104,0.896,1.999,2,1.999h28c1.104,0,2-0.896,2-1.999V2
			C32,0.896,31.104,0,30,0z"/>
	</g>
</g>
<g id="H">
	<g>
		<path style="fill-rule:evenodd;clip-rule:evenodd;fill:#FFFFFF;" d="M9,3H5C4.447,3,4,3.447,4,4v7.998c0,0.552,0.447,1,1,1
			c0.552,0,1-0.448,1-1V8.999h2c0.552,0,1-0.448,1-1s-0.448-1-1-1H6v-2h3c0.553,0,1-0.447,1-0.999C10,3.447,9.553,3,9,3z"/>
	</g>
</g>
<g id="O">
	<g>
		<path style="fill-rule:evenodd;clip-rule:evenodd;fill:#FFFFFF;" d="M15.5,3C13.566,3,12,4.566,12,6.499v2.999
			c0,1.934,1.566,3.5,3.5,3.5c1.933,0,3.5-1.566,3.5-3.5V6.499C19,4.566,17.433,3,15.5,3z M17,9.498c0,0.829-0.672,1.5-1.5,1.5
			s-1.5-0.671-1.5-1.5V6.499c0-0.828,0.672-1.5,1.5-1.5s1.5,0.672,1.5,1.5V9.498z"/>
	</g>
</g>
<g id="G">
	<g>
		<path style="fill-rule:evenodd;clip-rule:evenodd;fill:#FFFFFF;" d="M27,6.999c0.553,0,1-0.447,1-1V5.996
			C28,4.063,26.433,3,24.5,3C22.566,3,21,4.566,21,6.499v2.999c0,1.934,1.566,3.5,3.5,3.5c1.933,0,3.5-1.566,3.5-3.5V7.999h-1h-1h-1
			c-0.553,0-1,0.447-1,1c0,0.552,0.447,0.999,1,0.999h0.908c-0.207,0.582-0.756,1-1.408,1c-0.828,0-1.5-0.671-1.5-1.5V6.499
			c0-0.828,0.672-1.5,1.5-1.5S26,5.168,26,5.996v0.003C26,6.552,26.447,6.999,27,6.999z"/>
	</g>
</g>
<g>
</g>
<g>
</g>
<g>
</g>
<g>
</g>
<g>
</g>
<g>
</g>
<g>
</g>
<g>
</g>
<g>
</g>
<g>
</g>
<g>
</g>
<g>
</g>
<g>
</g>
<g>
</g>
<g>
</g>
</svg>
