<?xml version="1.0" encoding="iso-8859-1"?>
<!-- Generator: Adobe Illustrator 16.0.0, SVG Export Plug-In . SVG Version: 6.00 Build 0)  -->
<!DOCTYPE svg PUBLIC "-//W3C//DTD SVG 1.1//EN" "http://www.w3.org/Graphics/SVG/1.1/DTD/svg11.dtd">
<svg version="1.1" id="Layer_1" xmlns="http://www.w3.org/2000/svg" xmlns:xlink="http://www.w3.org/1999/xlink" x="0px" y="0px"
	 width="32px" height="27.995px" viewBox="0 0 32 27.995" style="enable-background:new 0 0 32 27.995;" xml:space="preserve">
<g id="Fog">
	<g>
		<path style="fill:#CCCCCC;" d="M31.748,19.332c-0.764-0.861-1.79-1.336-2.89-1.336c-0.001,0-0.001,0-0.001,0
			c-1.1,0-2.127,0.475-2.892,1.336c-0.38,0.429-0.876,0.664-1.396,0.664c0,0,0,0-0.001,0c-0.519,0-1.013-0.235-1.392-0.664
			c-0.766-0.862-1.792-1.336-2.892-1.336c0,0,0,0-0.001,0c-1.099,0-2.125,0.475-2.89,1.336c-0.38,0.429-0.876,0.664-1.396,0.664
			s-1.015-0.235-1.395-0.664c-0.765-0.861-1.792-1.336-2.891-1.336s-2.126,0.475-2.891,1.336c-0.76,0.856-2.029,0.857-2.789,0
			c-0.765-0.861-1.792-1.336-2.891-1.336s-2.126,0.475-2.891,1.336c-0.367,0.413-0.329,1.045,0.084,1.411
			c0.414,0.367,1.045,0.329,1.412-0.083c0.76-0.856,2.03-0.856,2.79-0.001c0.765,0.861,1.792,1.338,2.891,1.338
			s2.125-0.477,2.891-1.337c0.76-0.856,2.03-0.856,2.79-0.001c0.765,0.861,1.791,1.336,2.89,1.338h0
			c1.1-0.002,2.126-0.477,2.892-1.337c0.76-0.856,2.031-0.855,2.789-0.001c0.764,0.86,1.789,1.336,2.888,1.338
			c0.001,0,0.002,0,0.002,0c1.1-0.002,2.126-0.475,2.892-1.337c0.38-0.429,0.875-0.664,1.396-0.664c0.52,0,1.015,0.235,1.395,0.663
			c0.366,0.413,0.998,0.449,1.411,0.084C32.077,20.378,32.114,19.745,31.748,19.332z"/>
	</g>
</g>
<g id="Fog_7_">
	<g>
		<path style="fill:#999999;" d="M31.748,25.331c-0.764-0.861-1.79-1.336-2.89-1.336c-0.001,0-0.001,0-0.001,0
			c-1.1,0-2.127,0.475-2.892,1.336c-0.38,0.428-0.876,0.664-1.396,0.664c0,0,0,0-0.001,0c-0.519,0-1.013-0.236-1.392-0.664
			c-0.766-0.862-1.792-1.336-2.892-1.336c0,0,0,0-0.001,0c-1.099,0-2.125,0.475-2.89,1.336c-0.38,0.428-0.876,0.664-1.396,0.664
			s-1.015-0.236-1.395-0.664c-0.765-0.861-1.792-1.336-2.891-1.336s-2.126,0.475-2.891,1.336c-0.76,0.856-2.029,0.857-2.789,0
			c-0.765-0.861-1.792-1.336-2.891-1.336s-2.126,0.475-2.891,1.336c-0.367,0.413-0.329,1.045,0.084,1.412
			c0.414,0.365,1.045,0.327,1.412-0.084c0.76-0.856,2.03-0.856,2.79-0.001c0.765,0.861,1.792,1.337,2.891,1.337
			s2.125-0.476,2.891-1.336c0.76-0.856,2.03-0.856,2.79-0.001c0.765,0.861,1.791,1.336,2.89,1.337h0
			c1.1-0.001,2.126-0.476,2.892-1.336c0.76-0.856,2.031-0.855,2.789-0.002c0.764,0.861,1.789,1.337,2.888,1.338
			c0.001,0,0.002,0,0.002,0c1.1-0.001,2.126-0.475,2.892-1.336c0.38-0.429,0.875-0.664,1.396-0.664c0.52,0,1.015,0.235,1.395,0.663
			c0.366,0.412,0.998,0.449,1.411,0.085C32.077,26.376,32.114,25.744,31.748,25.331z"/>
	</g>
</g>
<g id="Fog_5_">
	<g>
		<path style="fill:#CCCCCC;" d="M31.748,7.335c-0.764-0.861-1.79-1.336-2.89-1.336c-0.001,0-0.001,0-0.001,0
			c-1.1,0-2.127,0.475-2.892,1.335c-0.38,0.429-0.876,0.665-1.396,0.665c0,0,0,0-0.001,0c-0.519-0.001-1.013-0.236-1.392-0.665
			c-0.766-0.861-1.792-1.335-2.892-1.335c0,0,0,0-0.001,0c-1.099,0-2.125,0.475-2.89,1.335C17.016,7.763,16.52,7.999,16,7.999
			s-1.015-0.236-1.395-0.665c-0.765-0.86-1.792-1.335-2.891-1.335S9.588,6.474,8.823,7.335c-0.76,0.856-2.029,0.856-2.789-0.001
			c-0.765-0.86-1.792-1.335-2.891-1.335S1.017,6.474,0.252,7.334C-0.115,7.747-0.077,8.38,0.336,8.746
			C0.75,9.112,1.381,9.074,1.748,8.662c0.76-0.856,2.03-0.855,2.79,0C5.303,9.523,6.33,9.999,7.429,9.999s2.125-0.476,2.891-1.337
			c0.76-0.856,2.03-0.855,2.79,0C13.874,9.523,14.9,9.998,16,9.999h0c1.1-0.001,2.126-0.476,2.892-1.337
			c0.76-0.856,2.031-0.855,2.789-0.001c0.764,0.861,1.789,1.337,2.888,1.338c0.001,0,0.002,0,0.002,0
			c1.1-0.001,2.126-0.475,2.892-1.337c0.38-0.429,0.875-0.664,1.396-0.664c0.52,0,1.015,0.235,1.395,0.664
			c0.366,0.412,0.998,0.449,1.411,0.084C32.077,8.38,32.114,7.748,31.748,7.335z"/>
	</g>
</g>
<g id="Fog_3_">
	<g>
		<path style="fill:#999999;" d="M31.748,1.336C30.984,0.474,29.958,0,28.858,0c-0.001,0-0.001,0-0.001,0
			c-1.1,0-2.127,0.474-2.892,1.335C25.586,1.764,25.09,2,24.57,2c0,0,0,0-0.001,0c-0.519-0.001-1.013-0.236-1.392-0.665
			C22.412,0.474,21.386,0,20.286,0c0,0,0,0-0.001,0c-1.099,0-2.125,0.474-2.89,1.335C17.016,1.764,16.52,2,16,2
			s-1.015-0.236-1.395-0.665C13.84,0.474,12.814,0,11.714,0S9.588,0.474,8.823,1.336c-0.76,0.856-2.029,0.856-2.789-0.001
			C5.269,0.474,4.243,0,3.143,0S1.017,0.474,0.252,1.335c-0.367,0.413-0.329,1.046,0.084,1.412C0.75,3.113,1.381,3.075,1.748,2.663
			c0.76-0.856,2.03-0.855,2.79,0C5.303,3.524,6.33,4,7.429,4s2.125-0.476,2.891-1.337c0.76-0.856,2.03-0.855,2.79,0
			C13.874,3.524,14.9,3.999,16,4h0c1.1-0.001,2.126-0.476,2.892-1.337c0.76-0.856,2.031-0.855,2.789-0.001
			C22.444,3.523,23.47,3.999,24.568,4c0.001,0,0.002,0,0.002,0c1.1-0.001,2.126-0.475,2.892-1.337
			c0.38-0.428,0.875-0.664,1.396-0.664c0.52,0,1.015,0.236,1.395,0.664c0.366,0.412,0.998,0.449,1.411,0.084
			C32.077,2.381,32.114,1.749,31.748,1.336z"/>
	</g>
</g>
<g id="Fog_4_">
	<g>
		<path style="fill:#999999;" d="M31.748,13.334c-0.764-0.862-1.79-1.337-2.89-1.337c-0.001,0-0.001,0-0.001,0
			c-1.1,0-2.127,0.475-2.892,1.336c-0.38,0.429-0.876,0.665-1.396,0.665c0,0,0,0-0.001,0c-0.519-0.001-1.013-0.236-1.392-0.665
			c-0.766-0.861-1.792-1.336-2.892-1.336c0,0,0,0-0.001,0c-1.099,0-2.125,0.475-2.89,1.336c-0.38,0.429-0.876,0.665-1.396,0.665
			s-1.015-0.236-1.395-0.665c-0.765-0.861-1.792-1.336-2.891-1.336s-2.126,0.475-2.891,1.337c-0.76,0.856-2.029,0.856-2.789-0.001
			c-0.765-0.861-1.792-1.336-2.891-1.336s-2.126,0.475-2.891,1.336c-0.367,0.413-0.329,1.045,0.084,1.412
			c0.414,0.366,1.045,0.328,1.412-0.084c0.76-0.856,2.03-0.856,2.79,0c0.765,0.861,1.792,1.337,2.891,1.337s2.125-0.476,2.891-1.337
			c0.76-0.856,2.03-0.856,2.79,0c0.765,0.861,1.791,1.335,2.89,1.337h0c1.1-0.002,2.126-0.476,2.892-1.337
			c0.76-0.856,2.031-0.855,2.789-0.001c0.764,0.861,1.789,1.336,2.888,1.338c0.001,0,0.002,0,0.002,0
			c1.1-0.002,2.126-0.475,2.892-1.337c0.38-0.429,0.875-0.664,1.396-0.664c0.52,0,1.015,0.235,1.395,0.664
			c0.366,0.412,0.998,0.449,1.411,0.084C32.077,14.379,32.114,13.747,31.748,13.334z"/>
	</g>
</g>
<g>
</g>
<g>
</g>
<g>
</g>
<g>
</g>
<g>
</g>
<g>
</g>
<g>
</g>
<g>
</g>
<g>
</g>
<g>
</g>
<g>
</g>
<g>
</g>
<g>
</g>
<g>
</g>
<g>
</g>
</svg>
