<?xml version="1.0" encoding="iso-8859-1"?>
<!-- Generator: Adobe Illustrator 16.0.0, SVG Export Plug-In . SVG Version: 6.00 Build 0)  -->
<!DOCTYPE svg PUBLIC "-//W3C//DTD SVG 1.1//EN" "http://www.w3.org/Graphics/SVG/1.1/DTD/svg11.dtd">
<svg version="1.1" id="Layer_1" xmlns="http://www.w3.org/2000/svg" xmlns:xlink="http://www.w3.org/1999/xlink" x="0px" y="0px"
	 width="32px" height="18px" viewBox="0 0 32 18" style="enable-background:new 0 0 32 18;" xml:space="preserve">
<g id="Wind_11_">
	<g>
		<path style="fill:#54BBFF;" d="M18,6H1C0.447,6,0,6.447,0,7c0,0.552,0.447,1,1,1h17c0.553,0,1-0.448,1-1C19,6.447,18.553,6,18,6z"
			/>
	</g>
</g>
<g id="Wind_12_">
	<g>
		<path style="fill:#54BBFF;" d="M28,10H11c-0.553,0-1,0.447-1,1c0,0.552,0.447,1,1,1h17c0.553,0,1-0.448,1-1
			C29,10.447,28.553,10,28,10z"/>
	</g>
</g>
<g id="Wind_13_">
	<g>
		<path style="fill:#54BBFF;" d="M31,6h-6c-0.553,0-1,0.447-1,1c0,0.552,0.447,1,1,1h6c0.553,0,1-0.448,1-1C32,6.447,31.553,6,31,6z
			"/>
	</g>
</g>
<g id="Wind_14_">
	<g>
		<circle style="fill:#48A0DC;" cx="18" cy="4" r="4"/>
	</g>
</g>
<g id="Wind_15_">
	<g>
		<circle style="fill:#48A0DC;" cx="28" cy="14" r="4"/>
	</g>
</g>
<g>
</g>
<g>
</g>
<g>
</g>
<g>
</g>
<g>
</g>
<g>
</g>
<g>
</g>
<g>
</g>
<g>
</g>
<g>
</g>
<g>
</g>
<g>
</g>
<g>
</g>
<g>
</g>
<g>
</g>
</svg>
