<?xml version="1.0" encoding="iso-8859-1"?>
<!-- Generator: Adobe Illustrator 16.0.0, SVG Export Plug-In . SVG Version: 6.00 Build 0)  -->
<!DOCTYPE svg PUBLIC "-//W3C//DTD SVG 1.1//EN" "http://www.w3.org/Graphics/SVG/1.1/DTD/svg11.dtd">
<svg version="1.1" id="Layer_1" xmlns="http://www.w3.org/2000/svg" xmlns:xlink="http://www.w3.org/1999/xlink" x="0px" y="0px"
	 width="30.005px" height="32.002px" viewBox="0 0 30.005 32.002" style="enable-background:new 0 0 30.005 32.002;"
	 xml:space="preserve">
<g id="Water_3_">
	<g>
		<path style="fill-rule:evenodd;clip-rule:evenodd;fill:#48A0DC;" d="M29.972,15.851c0.163-2.821-0.46-5.719-1.979-8.349
			C23.85,0.328,14.676-2.13,7.502,2.012c-4.808,2.775-7.484,7.812-7.489,12.99H0.002v1v2v6c0,0.552,0.447,1,1,1c0.552,0,1-0.448,1-1
			v-1.519c0.003,0.006,0.006,0.013,0.01,0.019c0.571,0.989,1.246,1.88,1.99,2.685v2.815c0,0.552,0.447,1,1,1c0.552,0,1-0.448,1-1
			v-0.999c0.634,0.475,1.307,0.884,2,1.25v2.749c0,0.552,0.447,1,1,1c0.552,0,1-0.448,1-1v-1.869c3.991,1.41,8.547,1.141,12.5-1.141
			c2.379-1.374,4.227-3.308,5.5-5.533v1.542c0,0.552,0.447,1,1,1c0.552,0,1-0.448,1-1v-8C30.002,15.949,29.98,15.903,29.972,15.851z
			 M29.002,27.002c-0.553,0-1,0.447-1,1c0,0.552,0.447,1,1,1c0.552,0,1-0.448,1-1C30.002,27.45,29.554,27.002,29.002,27.002z"/>
	</g>
</g>
<g id="Land">
	<g>
		<path style="fill-rule:evenodd;clip-rule:evenodd;fill:#CCCCCC;" d="M23.501,4.033c0.276,0.041,0.473,0.109,0.579,0.381
			c0.109,0.276,0.279,0.21,0.425,0.041c0.204-0.236,0.307-0.512,0.284-0.819c-0.338-0.291-0.688-0.564-1.047-0.822
			c-0.16,0.146-0.329,0.281-0.496,0.424c-0.123,0.104-0.28,0.36-0.236,0.431C23.114,3.833,23.317,4.005,23.501,4.033z M8.665,9.862
			C8.891,9.707,9.107,9.474,9.22,9.227c0.371-0.811,1.138-1.172,1.782-1.671v3.446c0,0.552,0.447,1,1,1c0.552,0,1-0.448,1-1V5.769
			c0.188-0.002,0.376-0.003,0.563,0.003c0.458,0.017,0.552,0.146,0.478,0.596c-0.015,0.087,0.037,0.223,0.104,0.273
			c0.058,0.041,0.183-0.01,0.277-0.02c-0.019-0.102-0.036-0.203-0.055-0.305c-0.04-0.222-0.119-0.444-0.111-0.664
			c0.009-0.256-0.031-0.448-0.224-0.638c-0.162-0.158-0.293-0.371-0.371-0.584c-0.075-0.207-0.181-0.29-0.382-0.262
			c-0.352,0.051-0.579-0.1-0.7-0.422c-0.093-0.25-0.281-0.314-0.529-0.329c-0.431-0.026-0.61,0.309-0.67,0.591
			c-0.029,0.135-0.084,0.249-0.14,0.363c-0.073,0.087-0.133,0.183-0.173,0.292c-0.243,0.338-0.559,0.62-0.804,0.954
			C10.025,5.95,9.566,5.852,9.497,5.454C9.436,5.112,9.264,4.959,8.972,4.853c-0.187-0.068-0.361-0.17-0.535-0.268
			C7.959,4.318,7.864,3.789,8.272,3.436c0.599-0.519,1.263-0.884,2.116-0.717c0.163,0.032,0.475-0.085,0.527-0.213
			c0.211-0.508,0.689-0.714,1.059-1.036c0.274-0.239,0.748-0.177,1.005,0.055c0.312,0.281,0.242,0.553,0.027,0.858
			c-0.069,0.099-0.105,0.338-0.05,0.386c0.13,0.109,0.389,0.243,0.482,0.186c0.331-0.205,0.618-0.482,0.908-0.746
			c0.027-0.024-0.028-0.153-0.061-0.228c-0.21-0.478-0.607-0.689-1.09-0.824c-0.538-0.149-0.646-0.583-0.186-0.893
			c0.092-0.062,0.189-0.115,0.288-0.166c-0.518,0.06-1.033,0.144-1.547,0.258c-0.455,0.098-0.602,0.431-0.411,0.845
			c0.112,0.243,0.15,0.499-0.095,0.677c-0.248,0.181-0.497,0.06-0.668-0.13c-0.114-0.126-0.144-0.327-0.215-0.493
			c-0.053-0.12-0.112-0.237-0.169-0.355c-0.146,0.077-0.396,0.133-0.418,0.236C9.661,1.683,9.185,1.77,8.797,1.969
			C8.732,2.003,8.589,2.008,8.562,1.97c-0.047-0.067-0.06-0.185-0.038-0.269c0.021-0.085,0.044-0.17,0.068-0.257
			c-0.367,0.175-0.731,0.36-1.09,0.567c-3.498,2.02-5.871,5.235-6.908,8.832c0.37,0.599,0.875,1.113,1.284,1.69
			c0.053,0.076,0.086,0.165,0.124,0.251v4.216c0,0.552,0.447,1,1,1c0.552,0,1-0.448,1-1v-2.5c0.193,0.03,0.391,0.085,0.555,0.183
			c0.585,0.347,1.151,0.723,1.72,1.084c0.216-0.472,0.171-0.59-0.323-0.815c-0.329-0.149-0.449-0.417-0.383-0.77
			c0.024-0.129,0.049-0.257,0.094-0.494c-0.188,0.156-0.288,0.241-0.392,0.323c-0.458,0.362-0.935,0.354-1.271,0.044v-2.287
			c0.033-0.049,0.059-0.1,0.094-0.148c0.641-0.879,1.673-0.602,2.55-0.771c0.118-0.022,0.266,0.06,0.388,0.118
			c0.142,0.067,0.271,0.162,0.455,0.275C7.558,10.471,8.153,10.214,8.665,9.862z M7.243,6.736c0.011-0.104,0.242-0.261,0.371-0.26
			C7.851,6.477,8.15,6.541,8.145,6.858C8.143,6.965,7.914,7.069,7.788,7.173C7.497,7.068,7.211,7.059,7.243,6.736z M20.412,5.38
			c0.232,0.059,0.546-0.114,0.608,0.276c0.069,0.439,0.284,0.803,0.559,1.161c0.384,0.5,0.14,1.005-0.483,1.118
			c-0.098,0.019-0.197,0.035-0.296,0.043c-0.521,0.038-0.541,0.068-0.608,0.591c-0.046,0.357,0.153,0.547,0.405,0.738
			c0.232,0.177,0.42,0.039,0.578-0.074c0.162-0.117,0.297-0.294,0.398-0.47c0.288-0.497,0.619-0.979,1.177-1.149
			c0.481-0.146,1.017-0.348,1.481,0.022c0.205-0.115,0.452-0.265,0.626-0.204c0.386,0.135,0.706,0.381,0.91,0.785
			c0.129,0.254,0.399,0.437,0.565,0.609c0.237-0.22,0.381-0.459,0.572-0.507c0.34-0.084,0.711-0.078,1.065-0.053
			c0.127,0.008,0.304,0.162,0.345,0.287c0.039,0.119-0.059,0.291-0.116,0.432c-0.025,0.061-0.103,0.099-0.21,0.196
			c0.31,0.047,0.541,0.089,0.773,0.115c0.043,0.005,0.079,0.012,0.118,0.018c-0.253-0.615-0.546-1.222-0.888-1.813
			c-0.595-1.029-1.295-1.959-2.076-2.788c-0.167,0.22-0.416,0.39-0.724,0.454c-0.375,0.078-0.686,0.001-1.012-0.123
			c-0.233-0.089-0.39-0.026-0.6,0.133c-0.339,0.257-0.747,0.428-1.139,0.604c-0.091,0.041-0.271-0.003-0.35-0.073
			c-0.264-0.238-0.506-0.5-0.744-0.764c-0.086-0.095-0.139-0.221-0.22-0.354C20.873,4.875,20.651,5.118,20.412,5.38z M29.965,13.922
			c-0.012-0.021-0.024-0.04-0.036-0.062c-0.231-0.394-0.392-0.83-0.577-1.251c-0.055-0.124-0.123-0.257-0.125-0.387
			c-0.004-0.136,0.046-0.377,0.105-0.389c0.104-0.019,0.229-0.001,0.341,0.038c-0.085-0.394-0.187-0.786-0.304-1.177
			c-0.111,0.153-0.278,0.261-0.502,0.311c-0.637,0.141-1.268,0.097-1.876-0.142c-0.286-0.111-0.546-0.142-0.807,0.067
			c-0.286,0.229-0.604,0.204-0.917,0.055c-0.146-0.07-0.277-0.19-0.429-0.228c-0.514-0.122-0.839-0.396-0.933-0.942
			c-0.017-0.096-0.23-0.234-0.34-0.224c-0.754,0.074-1.504,0.25-2.257,0.263c-0.781,0.013-1.097,0.544-1.356,1.086
			c-0.182,0.379-0.404,0.668-0.708,0.936c-0.573,0.503-0.875,1.127-0.81,1.916c0.023,0.291-0.052,0.59-0.061,0.887
			c-0.008,0.256-0.08,0.575,0.04,0.76c0.183,0.28,0.382,0.548,0.587,0.814v3.749c0,0.552,0.447,1,1,1c0.552,0,1-0.448,1-1v-2.771
			c0.233-0.026,0.465-0.056,0.689-0.115c0.548-0.146,1.04-0.277,1.492,0.188c0.064,0.067,0.172,0.099,0.265,0.132
			c0.684,0.242,0.743,0.304,0.72,1.021c-0.016,0.45,0.082,0.824,0.316,1.23c0.499,0.865,0.816,1.784,0.338,2.811
			c-0.123,0.266-0.128,0.688-0.001,0.949c0.312,0.645,0.414,1.322,0.557,2.006c0.021,0.104,0.052,0.204,0.08,0.306
			C28.663,22.65,30.277,18.286,29.965,13.922z M16.18,19.763c-0.58-0.111-1.068-0.398-1.601-0.597
			c-0.476-0.178-0.819-0.458-0.939-0.978c-0.093-0.405-0.379-0.603-0.765-0.74c-0.366-0.131-0.726-0.321-1.038-0.554
			c-0.424-0.313-0.797-0.676-1.396-0.567c-0.151,0.027-0.369-0.04-0.485-0.144c-0.38-0.342-0.796-0.374-1.148-0.063
			c-0.331,0.293-0.999,0.434-0.68,1.158c0.068,0.158-0.029,0.416-0.107,0.604c-0.095,0.228-0.242,0.437-0.38,0.645
			c-0.435,0.652-0.356,1.334-0.06,1.991c0.246,0.544,0.556,1.062,0.87,1.571c0.131,0.212,0.316,0.424,0.529,0.545
			c0.747,0.425,1.147,1.014,1.063,1.897c-0.023,0.248-0.021,0.502,0,0.75c0.051,0.606,0.136,1.21,0.177,1.816
			c0.02,0.294-0.026,0.594-0.049,0.89c-0.007,0.099-0.058,0.198-0.044,0.291c0.045,0.319,0.093,0.639,0.15,0.955
			c0.537,0.179,1.084,0.327,1.638,0.443c0.142-0.521,0.438-1.021,0.829-1.32c0.115-0.088,0.212-0.25,0.24-0.393
			c0.063-0.323,0.226-0.538,0.518-0.684c0.128-0.064,0.271-0.167,0.329-0.289c0.225-0.467,0.507-0.932,0.6-1.428
			c0.116-0.629,0.489-0.935,1.012-1.132c0.62-0.233,0.863-0.479,0.828-1.122c-0.045-0.811,0.191-1.49,0.705-2.105
			c0.186-0.223,0.323-0.541,0.09-0.789C16.815,20.15,16.508,19.826,16.18,19.763z M19.575,2.04c0.427-0.163,0.858-0.315,1.284-0.483
			c0.143-0.056,0.296-0.104,0.438-0.166c-1.864-0.86-3.89-1.336-5.948-1.386c0.167,0.041,0.34,0.053,0.522,0.052
			c0.82-0.001,1.071,0.357,0.933,1.166c-0.087,0.513-0.095,1.043-0.096,1.564c-0.001,0.313,0.191,0.537,0.501,0.631
			c0.285,0.087,0.428-0.109,0.585-0.297c0.375-0.445,0.783-0.842,1.404-0.923C19.328,2.181,19.447,2.087,19.575,2.04z
			 M20.002,23.002c-0.553,0-1,0.447-1,1c0,0.552,0.447,1,1,1c0.552,0,1-0.448,1-1C21.002,23.45,20.554,23.002,20.002,23.002z"/>
	</g>
</g>
<g>
</g>
<g>
</g>
<g>
</g>
<g>
</g>
<g>
</g>
<g>
</g>
<g>
</g>
<g>
</g>
<g>
</g>
<g>
</g>
<g>
</g>
<g>
</g>
<g>
</g>
<g>
</g>
<g>
</g>
</svg>
