<?xml version="1.0" encoding="iso-8859-1"?>
<!-- Generator: Adobe Illustrator 16.0.0, SVG Export Plug-In . SVG Version: 6.00 Build 0)  -->
<!DOCTYPE svg PUBLIC "-//W3C//DTD SVG 1.1//EN" "http://www.w3.org/Graphics/SVG/1.1/DTD/svg11.dtd">
<svg version="1.1" id="Layer_1" xmlns="http://www.w3.org/2000/svg" xmlns:xlink="http://www.w3.org/1999/xlink" x="0px" y="0px"
	 width="38px" height="38.875px" viewBox="0 0 38 38.875" style="enable-background:new 0 0 38 38.875;" xml:space="preserve">
<g id="Moon_3_">
	<g>
		<path style="fill-rule:evenodd;clip-rule:evenodd;fill:#666666;" d="M5.951,18.875c1.289-2.588,3.781-4.466,6.751-4.896
			c-0.53-1.221-0.828-2.564-0.828-3.979c0-0.95,0.141-1.865,0.389-2.736C8.072,8.455,5,12.302,5,16.875c0,0.688,0.083,1.354,0.221,2
			H5.951z"/>
	</g>
</g>
<g id="Cloud_5_">
	<g>
		<path style="fill-rule:evenodd;clip-rule:evenodd;fill:#CCCCCC;" d="M32.212,25.545C32.714,24.424,33,23.184,33,21.875
			c0-4.971-4.03-9-9-9c-3.304,0-6.185,1.786-7.75,4.44c-0.695-0.282-1.454-0.44-2.25-0.44c-2.618,0-4.838,1.679-5.658,4.018
			C8.229,20.886,8.116,20.875,8,20.875c-3.314,0-6,2.686-6,6c0,3.313,2.686,6,6,6h22c2.209,0,4-1.791,4-4
			C34,27.484,33.289,26.262,32.212,25.545z"/>
	</g>
</g>
<g id="Wind_6_">
	<g>
		<path style="fill-rule:evenodd;clip-rule:evenodd;fill:#48A0DC;" d="M10,30.875h4c0.552,0,1-0.447,1-1s-0.448-1-1-1h-4
			c-0.552,0-1,0.447-1,1S9.448,30.875,10,30.875z M21,32.875H10c-0.552,0-1,0.447-1,1c0,0.552,0.448,1,1,1h8.184H21
			c0.552,0,1,0.447,1,1c0,0.552-0.448,1-1,1s-1,0.447-1,1c0,0.552,0.448,1,1,1c1.657,0,3-1.344,3-3
			C24,34.218,22.657,32.875,21,32.875z M25,24.875c-0.552,0-1,0.447-1,1c0,0.552,0.448,1,1,1s1,0.447,1,1c0,0.552-0.448,1-1,1
			h-2.816H18c-0.552,0-1,0.447-1,1s0.448,1,1,1h7c1.657,0,3-1.344,3-3C28,26.218,26.657,24.875,25,24.875z"/>
	</g>
</g>
<g>
</g>
<g>
</g>
<g>
</g>
<g>
</g>
<g>
</g>
<g>
</g>
<g>
</g>
<g>
</g>
<g>
</g>
<g>
</g>
<g>
</g>
<g>
</g>
<g>
</g>
<g>
</g>
<g>
</g>
</svg>
