<?xml version="1.0" encoding="iso-8859-1"?>
<!-- Generator: Adobe Illustrator 16.0.0, SVG Export Plug-In . SVG Version: 6.00 Build 0)  -->
<!DOCTYPE svg PUBLIC "-//W3C//DTD SVG 1.1//EN" "http://www.w3.org/Graphics/SVG/1.1/DTD/svg11.dtd">
<svg version="1.1" id="Layer_1" xmlns="http://www.w3.org/2000/svg" xmlns:xlink="http://www.w3.org/1999/xlink" x="0px" y="0px"
	 width="33px" height="32.019px" viewBox="0 0 33 32.019" style="enable-background:new 0 0 33 32.019;" xml:space="preserve">
<g id="Cloud_39_">
	<g>
		<path style="fill-rule:evenodd;clip-rule:evenodd;fill:#999999;" d="M17.125,0c-2.273,0-4.254,1.251-5.33,3.11
			C11.317,2.914,10.797,2.8,10.25,2.8c-1.801,0-3.316,1.183-3.878,2.82C6.289,5.615,6.209,5.6,6.125,5.6C3.847,5.6,2,7.48,2,9.8
			c0,0.968,0.335,1.845,0.875,2.553c1.076-0.786,2.381-1.271,3.8-1.336C7.796,8.645,10.203,7,13,7c0.636,0,1.248,0.092,1.833,0.251
			c1.704-2.409,4.441-4.036,7.573-4.221C21.32,1.216,19.364,0,17.125,0z"/>
	</g>
</g>
<g id="Cloud_40_">
	<g>
		<path style="fill-rule:evenodd;clip-rule:evenodd;fill:#CCCCCC;" d="M31.212,18.67C31.714,17.549,32,16.309,32,15
			c0-4.971-4.029-9-9-9c-3.304,0-6.185,1.786-7.75,4.44C14.555,10.158,13.796,10,13,10c-2.618,0-4.838,1.679-5.658,4.018
			C7.229,14.011,7.116,14,7,14c-3.314,0-6,2.686-6,6c0,3.313,2.686,6,6,6h22c2.209,0,4-1.791,4-4
			C33,20.609,32.289,19.387,31.212,18.67z"/>
	</g>
</g>
<g id="Shower_Rain_5_">
	<g>
		<path style="fill-rule:evenodd;clip-rule:evenodd;fill:#48A0DC;" d="M13.5,21.12c-0.479-0.286-1.09-0.116-1.366,0.379l-3,4.966
			C8.858,26.961,9.021,27.594,9.5,27.88c0.478,0.285,1.09,0.116,1.366-0.379l3-4.967C14.142,22.039,13.978,21.406,13.5,21.12z
			 M19.5,21.12c-0.479-0.286-1.09-0.116-1.366,0.379l-5,8.966c-0.276,0.496-0.112,1.129,0.366,1.414
			c0.478,0.286,1.09,0.117,1.366-0.379l5-8.966C20.142,22.039,19.978,21.406,19.5,21.12z M25.5,21.12
			c-0.479-0.286-1.09-0.116-1.366,0.379l-3,4.966c-0.276,0.496-0.112,1.129,0.366,1.415c0.478,0.285,1.09,0.116,1.366-0.379l3-4.967
			C26.142,22.039,25.978,21.406,25.5,21.12z"/>
	</g>
</g>
<g>
</g>
<g>
</g>
<g>
</g>
<g>
</g>
<g>
</g>
<g>
</g>
<g>
</g>
<g>
</g>
<g>
</g>
<g>
</g>
<g>
</g>
<g>
</g>
<g>
</g>
<g>
</g>
<g>
</g>
</svg>
