<?xml version="1.0" encoding="iso-8859-1"?>
<!-- Generator: Adobe Illustrator 16.0.0, SVG Export Plug-In . SVG Version: 6.00 Build 0)  -->
<!DOCTYPE svg PUBLIC "-//W3C//DTD SVG 1.1//EN" "http://www.w3.org/Graphics/SVG/1.1/DTD/svg11.dtd">
<svg version="1.1" id="Layer_1" xmlns="http://www.w3.org/2000/svg" xmlns:xlink="http://www.w3.org/1999/xlink" x="0px" y="0px"
	 width="38px" height="39.875px" viewBox="0 0 38 39.875" style="enable-background:new 0 0 38 39.875;" xml:space="preserve">
<g id="Moon_13_">
	<g>
		<path style="fill-rule:evenodd;clip-rule:evenodd;fill:#666666;" d="M5.966,24.836c1.48-2.939,4.518-4.961,8.034-4.961
			c0.345,0,0.683,0.024,1.018,0.062c0.158-0.18,0.314-0.362,0.483-0.532c-3.86-1.386-6.626-5.067-6.626-9.404
			c0-0.95,0.141-1.866,0.389-2.736C5.072,8.455,2,12.302,2,16.875C2,20.128,3.561,23.01,5.966,24.836z"/>
	</g>
</g>
<g id="Cloud_56_">
	<g>
		<path style="fill-rule:evenodd;clip-rule:evenodd;fill:#CCCCCC;" d="M32.213,31.545C32.715,30.424,33,29.184,33,27.875
			c0-4.971-4.029-9-9-9c-3.305,0-6.185,1.786-7.75,4.44c-0.695-0.282-1.454-0.44-2.25-0.44c-2.618,0-4.838,1.679-5.657,4.018
			C8.229,26.886,8.115,26.875,8,26.875c-3.313,0-6,2.686-6,6c0,3.313,2.687,6,6,6h22c2.209,0,4-1.791,4-4
			C34,33.484,33.289,32.262,32.213,31.545z"/>
	</g>
</g>
<g>
</g>
<g>
</g>
<g>
</g>
<g>
</g>
<g>
</g>
<g>
</g>
<g>
</g>
<g>
</g>
<g>
</g>
<g>
</g>
<g>
</g>
<g>
</g>
<g>
</g>
<g>
</g>
<g>
</g>
</svg>
