<?xml version="1.0" encoding="iso-8859-1"?>
<!-- Generator: Adobe Illustrator 16.0.0, SVG Export Plug-In . SVG Version: 6.00 Build 0)  -->
<!DOCTYPE svg PUBLIC "-//W3C//DTD SVG 1.1//EN" "http://www.w3.org/Graphics/SVG/1.1/DTD/svg11.dtd">
<svg version="1.1" id="Layer_1" xmlns="http://www.w3.org/2000/svg" xmlns:xlink="http://www.w3.org/1999/xlink" x="0px" y="0px"
	 width="32px" height="32px" viewBox="0 0 32 32" style="enable-background:new 0 0 32 32;" xml:space="preserve">
<g id="Cloud_21_">
	<g>
		<path style="fill-rule:evenodd;clip-rule:evenodd;fill:#CCCCCC;" d="M30.213,12.67C30.715,11.549,31,10.309,31,9
			c0-4.971-4.029-9-9-9c-3.305,0-6.185,1.786-7.75,4.44C13.555,4.158,12.796,4,12,4C9.382,4,7.162,5.679,6.343,8.018
			C6.229,8.011,6.115,8,6,8c-3.313,0-6,2.686-6,6c0,3.313,2.687,6,6,6h22c2.209,0,4-1.791,4-4C32,14.609,31.289,13.387,30.213,12.67
			z"/>
	</g>
</g>
<g id="Snowflake_6_">
	<g>
		<path style="fill-rule:evenodd;clip-rule:evenodd;fill:#48A0DC;" d="M20.546,28.134L17.883,26.5l2.663-1.634
			c0.45-0.276,0.604-0.888,0.345-1.366s-0.836-0.643-1.286-0.366L17,24.731V22c0-0.553-0.448-1-1-1c-0.553,0-1,0.447-1,1v2.731
			l-2.604-1.598c-0.45-0.276-1.026-0.112-1.286,0.366s-0.105,1.09,0.345,1.366l2.663,1.634l-2.663,1.634
			c-0.45,0.276-0.604,0.888-0.345,1.366s0.836,0.643,1.286,0.366L15,28.269V31c0,0.553,0.447,1,1,1c0.552,0,1-0.447,1-1v-2.731
			l2.604,1.598c0.45,0.276,1.026,0.112,1.286-0.366S20.996,28.41,20.546,28.134z"/>
	</g>
</g>
<g>
</g>
<g>
</g>
<g>
</g>
<g>
</g>
<g>
</g>
<g>
</g>
<g>
</g>
<g>
</g>
<g>
</g>
<g>
</g>
<g>
</g>
<g>
</g>
<g>
</g>
<g>
</g>
<g>
</g>
</svg>
