<?xml version="1.0" encoding="iso-8859-1"?>
<!-- Generator: Adobe Illustrator 16.0.0, SVG Export Plug-In . SVG Version: 6.00 Build 0)  -->
<!DOCTYPE svg PUBLIC "-//W3C//DTD SVG 1.1//EN" "http://www.w3.org/Graphics/SVG/1.1/DTD/svg11.dtd">
<svg version="1.1" id="Layer_1" xmlns="http://www.w3.org/2000/svg" xmlns:xlink="http://www.w3.org/1999/xlink" x="0px" y="0px"
	 width="33px" height="31.842px" viewBox="0 0 33 31.842" style="enable-background:new 0 0 33 31.842;" xml:space="preserve">
<g id="Cloud_50_">
	<g>
		<path style="fill-rule:evenodd;clip-rule:evenodd;fill:#999999;" d="M17.125,0c-2.273,0-4.254,1.251-5.33,3.11
			C11.317,2.914,10.797,2.8,10.25,2.8c-1.801,0-3.316,1.183-3.878,2.82C6.289,5.615,6.209,5.6,6.125,5.6C3.847,5.6,2,7.48,2,9.8
			c0,0.968,0.335,1.845,0.875,2.553c1.076-0.786,2.381-1.271,3.8-1.336C7.796,8.645,10.203,7,13,7c0.636,0,1.248,0.092,1.833,0.251
			c1.704-2.409,4.441-4.036,7.573-4.221C21.32,1.216,19.364,0,17.125,0z"/>
	</g>
</g>
<g id="Cloud_51_">
	<g>
		<path style="fill-rule:evenodd;clip-rule:evenodd;fill:#CCCCCC;" d="M31.212,18.67C31.714,17.548,32,16.309,32,15
			c0-4.971-4.029-9-9-9c-3.304,0-6.185,1.786-7.75,4.44C14.555,10.158,13.796,10,13,10c-2.618,0-4.838,1.679-5.658,4.018
			C7.229,14.011,7.116,14,7,14c-3.314,0-6,2.686-6,6c0,3.313,2.686,6,6,6h22c2.209,0,4-1.791,4-4
			C33,20.609,32.289,19.387,31.212,18.67z"/>
	</g>
</g>
<g id="Hail_6_">
	<g>
		<path style="fill-rule:evenodd;clip-rule:evenodd;fill:#54BBFF;" d="M7.65,31.842l1.884-0.535c0,0,0.39-3.295,0.38-3.301
			c-0.005-0.003-2.734,1.973-2.734,1.973L7.65,31.842z M25.181,29.979l0.469,1.863l1.884-0.535c0,0,0.39-3.295,0.38-3.301
			C27.91,28.003,25.181,29.979,25.181,29.979z M16.65,31.842l1.884-0.535c0,0,0.39-3.295,0.38-3.301
			c-0.005-0.003-2.734,1.973-2.734,1.973L16.65,31.842z"/>
	</g>
</g>
<g>
</g>
<g>
</g>
<g>
</g>
<g>
</g>
<g>
</g>
<g>
</g>
<g>
</g>
<g>
</g>
<g>
</g>
<g>
</g>
<g>
</g>
<g>
</g>
<g>
</g>
<g>
</g>
<g>
</g>
</svg>
