<?xml version="1.0" encoding="iso-8859-1"?>
<!-- Generator: Adobe Illustrator 16.0.0, SVG Export Plug-In . SVG Version: 6.00 Build 0)  -->
<!DOCTYPE svg PUBLIC "-//W3C//DTD SVG 1.1//EN" "http://www.w3.org/Graphics/SVG/1.1/DTD/svg11.dtd">
<svg version="1.1" id="Layer_1" xmlns="http://www.w3.org/2000/svg" xmlns:xlink="http://www.w3.org/1999/xlink" x="0px" y="0px"
	 width="32px" height="32px" viewBox="0 0 32 32" style="enable-background:new 0 0 32 32;" xml:space="preserve">
<g id="Cloud_2_">
	<g>
		<path style="fill-rule:evenodd;clip-rule:evenodd;fill:#CCCCCC;" d="M30.212,18.67C30.714,17.549,31,16.309,31,15
			c0-4.971-4.029-9-9-9c-3.304,0-6.185,1.786-7.75,4.44C13.555,10.158,12.796,10,12,10c-2.618,0-4.838,1.679-5.658,4.018
			C6.229,14.011,6.116,14,6,14c-3.313,0-6,2.686-6,6c0,3.313,2.687,6,6,6h22c2.209,0,4-1.791,4-4
			C32,20.609,31.289,19.387,30.212,18.67z"/>
	</g>
</g>
<g id="Star">
	<g>
		<path style="fill:#FFCC66;" d="M7.978,3.021c-0.05-0.164-0.18-0.285-0.34-0.317l-2.18-0.438L4.388,0.24C4.31,0.092,4.161,0,4,0
			S3.69,0.092,3.612,0.24L2.541,2.267L0.362,2.704c-0.16,0.032-0.291,0.153-0.341,0.317S0.011,3.365,0.122,3.49l1.515,1.688
			L1.361,7.47C1.342,7.64,1.41,7.808,1.54,7.908c0.077,0.061,0.17,0.091,0.263,0.091c0.063,0,0.127-0.014,0.187-0.043L4,6.972
			l2.01,0.984C6.07,7.985,6.134,7.999,6.197,7.999c0.093,0,0.185-0.03,0.263-0.091C6.59,7.808,6.658,7.64,6.638,7.47L6.363,5.178
			L7.877,3.49C7.989,3.365,8.027,3.186,7.978,3.021z"/>
	</g>
</g>
<g id="Wind_4_">
	<g>
		<path style="fill-rule:evenodd;clip-rule:evenodd;fill:#48A0DC;" d="M8,24h4c0.553,0,1-0.447,1-1s-0.447-1-1-1H8
			c-0.553,0-1,0.447-1,1S7.447,24,8,24z M19,26H8c-0.553,0-1,0.447-1,1c0,0.552,0.447,1,1,1h8.184H19c0.552,0,1,0.447,1,1
			c0,0.552-0.448,1-1,1c-0.553,0-1,0.447-1,1c0,0.552,0.447,1,1,1c1.656,0,3-1.344,3-3C22,27.343,20.656,26,19,26z M23,18
			c-0.553,0-1,0.447-1,1c0,0.552,0.447,1,1,1c0.552,0,1,0.447,1,1c0,0.552-0.448,1-1,1h-2.816H16c-0.553,0-1,0.447-1,1s0.447,1,1,1
			h7c1.657,0,3-1.344,3-3C26,19.343,24.657,18,23,18z"/>
	</g>
</g>
<g>
</g>
<g>
</g>
<g>
</g>
<g>
</g>
<g>
</g>
<g>
</g>
<g>
</g>
<g>
</g>
<g>
</g>
<g>
</g>
<g>
</g>
<g>
</g>
<g>
</g>
<g>
</g>
<g>
</g>
</svg>
