<?xml version="1.0" encoding="iso-8859-1"?>
<!-- Generator: Adobe Illustrator 16.0.0, SVG Export Plug-In . SVG Version: 6.00 Build 0)  -->
<!DOCTYPE svg PUBLIC "-//W3C//DTD SVG 1.1//EN" "http://www.w3.org/Graphics/SVG/1.1/DTD/svg11.dtd">
<svg version="1.1" id="Layer_1" xmlns="http://www.w3.org/2000/svg" xmlns:xlink="http://www.w3.org/1999/xlink" x="0px" y="0px"
	 width="35px" height="33px" viewBox="0 0 35 33" style="enable-background:new 0 0 35 33;" xml:space="preserve">
<g id="Cloud_57_">
	<g>
		<path style="fill-rule:evenodd;clip-rule:evenodd;fill:#CCCCCC;" d="M30.547,22.136c0.408-0.897,0.641-1.89,0.641-2.937
			c0-3.976-3.274-7.199-7.313-7.199c-2.687,0-5.027,1.431-6.299,3.556c-0.564-0.226-1.18-0.355-1.826-0.355
			c-2.13,0-3.922,1.354-4.585,3.228c-0.099-0.005-0.19-0.028-0.29-0.028c-2.692,0-4.875,2.149-4.875,4.8
			C6,25.851,8.183,28,10.875,28H28.75c1.795,0,3.25-1.433,3.25-3.2C32,23.688,31.422,22.709,30.547,22.136z"/>
	</g>
</g>
<g id="Cloud_58_">
	<g>
		<path style="fill-rule:evenodd;clip-rule:evenodd;fill:#999999;" d="M0.688,20.3c0,0.916,0.197,1.783,0.544,2.567
			C0.49,23.369,0,24.226,0,25.199C0,26.746,1.231,28,2.75,28h2.011C3.661,26.63,3,24.894,3,23c0-4.165,3.185-7.584,7.25-7.962
			C9.279,14.389,8.125,14,6.875,14C3.458,14,0.688,16.82,0.688,20.3z"/>
	</g>
</g>
<g id="Sun_12_">
	<g>
		<path style="fill-rule:evenodd;clip-rule:evenodd;fill:#FFCC66;" d="M25.188,7.875c-0.264,0-0.473,0.086-0.649,0.185
			c-0.068-0.404-0.192-0.786-0.343-1.154c0.114-0.199,0.258-0.404,0.444-0.513c0.617-0.355,0.919,0.119,1.743-0.356
			c0.441-0.255,0.672-1.085,0.411-1.536c-1.812,1.046-2.039-0.122-2.998,0.432c-0.241,0.139-0.384,0.33-0.487,0.514
			C23.05,5.137,22.77,4.848,22.451,4.6c-0.002-0.232,0.021-0.487,0.13-0.677c0.356-0.617,0.854-0.356,1.331-1.181
			c0.255-0.441,0.04-1.276-0.412-1.537c-1.046,1.813-1.827,0.914-2.381,1.874c-0.139,0.24-0.167,0.477-0.165,0.687
			c-0.375-0.14-0.762-0.255-1.17-0.313c-0.116-0.198-0.222-0.426-0.222-0.641c0-0.713,0.563-0.736,0.563-1.688
			C20.125,0.615,19.521,0,19,0c0,2.092-1.125,1.705-1.125,2.813c0,0.268,0.088,0.479,0.188,0.656
			c-0.403,0.068-0.784,0.19-1.151,0.34c-0.202-0.115-0.41-0.26-0.519-0.448c-0.356-0.617,0.119-0.919-0.356-1.743
			c-0.255-0.441-1.085-0.673-1.537-0.412c1.046,1.813-0.122,2.04,0.432,2.999c0.14,0.241,0.332,0.384,0.515,0.487
			c-0.31,0.259-0.6,0.539-0.849,0.856c-0.232,0.002-0.486-0.021-0.675-0.129c-0.617-0.356-0.356-0.855-1.181-1.331
			c-0.441-0.255-1.275-0.04-1.536,0.412c1.812,1.046,0.914,1.826,1.873,2.38c0.238,0.138,0.472,0.166,0.68,0.166
			c-0.14,0.376-0.256,0.765-0.313,1.175c-0.196,0.113-0.42,0.217-0.633,0.217c-0.713,0-0.736-0.563-1.688-0.563
			C10.615,7.875,10,8.479,10,9c2.092,0,1.705,1.125,2.813,1.125c0.264,0,0.473-0.086,0.649-0.185
			c0.068,0.403,0.191,0.786,0.343,1.153c-0.114,0.2-0.258,0.405-0.444,0.513c-0.617,0.356-0.919-0.119-1.743,0.356
			c-0.441,0.255-0.672,1.085-0.411,1.537c0.188-0.108,0.349-0.18,0.505-0.245C12.951,12.464,14.42,12,16,12
			c0.155,0,0.308,0.015,0.461,0.023C18.43,10.158,21.073,9,24,9c1.307,0,2.554,0.239,3.716,0.657C27.885,9.458,28,9.223,28,9
			C25.908,9,26.295,7.875,25.188,7.875z"/>
	</g>
</g>
<g>
</g>
<g>
</g>
<g>
</g>
<g>
</g>
<g>
</g>
<g>
</g>
<g>
</g>
<g>
</g>
<g>
</g>
<g>
</g>
<g>
</g>
<g>
</g>
<g>
</g>
<g>
</g>
<g>
</g>
</svg>
