<?xml version="1.0" encoding="iso-8859-1"?>
<!-- Generator: Adobe Illustrator 16.0.0, SVG Export Plug-In . SVG Version: 6.00 Build 0)  -->
<!DOCTYPE svg PUBLIC "-//W3C//DTD SVG 1.1//EN" "http://www.w3.org/Graphics/SVG/1.1/DTD/svg11.dtd">
<svg version="1.1" id="Layer_1" xmlns="http://www.w3.org/2000/svg" xmlns:xlink="http://www.w3.org/1999/xlink" x="0px" y="0px"
	 width="32.005px" height="32.008px" viewBox="0 0 32.005 32.008" style="enable-background:new 0 0 32.005 32.008;"
	 xml:space="preserve">
<g id="Cloud_42_">
	<g>
		<path style="fill-rule:evenodd;clip-rule:evenodd;fill:#CCCCCC;" d="M30.218,12.67c0.502-1.121,0.787-2.361,0.787-3.67
			c0-4.971-4.029-9-9-9c-3.305,0-6.185,1.786-7.75,4.44C13.56,4.158,12.801,4,12.005,4C9.387,4,7.167,5.679,6.348,8.018
			C6.233,8.011,6.12,8,6.005,8c-3.313,0-6,2.686-6,6c0,3.313,2.687,6,6,6h22c2.209,0,4-1.791,4-4
			C32.005,14.609,31.294,13.387,30.218,12.67z"/>
	</g>
</g>
<g id="Hail">
	<g>
		<path style="fill-rule:evenodd;clip-rule:evenodd;fill:#54BBFF;" d="M11.754,32.008l4.66-1.684c0,0,1.613-8.321,1.591-8.333
			C17.994,21.985,11,27.432,11,27.432L11.754,32.008z M22,27.432l0.754,4.576l4.66-1.684c0,0,1.612-8.321,1.591-8.333
			C28.994,21.985,22,27.432,22,27.432z M0.754,32.008l4.66-1.684c0,0,1.612-8.321,1.591-8.333C6.994,21.985,0,27.432,0,27.432
			L0.754,32.008z"/>
	</g>
</g>
<g>
</g>
<g>
</g>
<g>
</g>
<g>
</g>
<g>
</g>
<g>
</g>
<g>
</g>
<g>
</g>
<g>
</g>
<g>
</g>
<g>
</g>
<g>
</g>
<g>
</g>
<g>
</g>
<g>
</g>
</svg>
