<?xml version="1.0" encoding="iso-8859-1"?>
<!-- Generator: Adobe Illustrator 16.0.0, SVG Export Plug-In . SVG Version: 6.00 Build 0)  -->
<!DOCTYPE svg PUBLIC "-//W3C//DTD SVG 1.1//EN" "http://www.w3.org/Graphics/SVG/1.1/DTD/svg11.dtd">
<svg version="1.1" id="Layer_1" xmlns="http://www.w3.org/2000/svg" xmlns:xlink="http://www.w3.org/1999/xlink" x="0px" y="0px"
	 width="35px" height="32px" viewBox="0 0 35 32" style="enable-background:new 0 0 35 32;" xml:space="preserve">
<g id="Cloud_16_">
	<g>
		<path style="fill-rule:evenodd;clip-rule:evenodd;fill:#CCCCCC;" d="M30.547,20.136c0.408-0.897,0.64-1.889,0.64-2.936
			c0-3.977-3.274-7.2-7.313-7.2c-2.686,0-5.027,1.43-6.298,3.555c-0.565-0.226-1.18-0.355-1.827-0.355
			c-2.13,0-3.922,1.354-4.585,3.229c-0.098-0.005-0.19-0.028-0.29-0.028C8.183,16.399,6,18.549,6,21.2c0,2.65,2.183,4.8,4.875,4.8
			H28.75c1.795,0,3.25-1.433,3.25-3.2C32,21.688,31.422,20.709,30.547,20.136z"/>
	</g>
</g>
<g id="Cloud_17_">
	<g>
		<path style="fill-rule:evenodd;clip-rule:evenodd;fill:#999999;" d="M0.688,18.3c0,0.916,0.197,1.783,0.544,2.567
			C0.49,21.369,0,22.226,0,23.199C0,24.746,1.231,26,2.75,26h2.011C3.661,24.63,3,22.894,3,21c0-4.165,3.184-7.584,7.25-7.962
			C9.279,12.389,8.125,12,6.875,12C3.458,12,0.688,14.82,0.688,18.3z"/>
	</g>
</g>
<g id="Sun_4_">
	<g>
		<path style="fill-rule:evenodd;clip-rule:evenodd;fill:#FFCC66;" d="M27.794,4.5c-1.812,1.046-2.04-0.122-2.999,0.432
			c-0.241,0.14-0.383,0.33-0.487,0.514C24.05,5.137,23.77,4.848,23.452,4.6c-0.002-0.232,0.02-0.487,0.129-0.677
			c0.356-0.617,0.855-0.356,1.331-1.181c0.255-0.441,0.04-1.275-0.412-1.537c-1.046,1.813-1.827,0.914-2.38,1.874
			c-0.139,0.24-0.167,0.477-0.166,0.687c-0.375-0.14-0.762-0.255-1.17-0.312c-0.116-0.199-0.221-0.427-0.221-0.642
			c0-0.713,0.563-0.736,0.563-1.688C21.125,0.615,20.521,0,20,0c0,2.092-1.125,1.705-1.125,2.813c0,0.268,0.088,0.479,0.188,0.656
			c-0.403,0.068-0.785,0.19-1.152,0.34c-0.202-0.114-0.41-0.26-0.518-0.449c-0.356-0.617,0.119-0.918-0.357-1.742
			c-0.255-0.441-1.085-0.673-1.537-0.412c1.046,1.813-0.122,2.039,0.432,2.998c0.139,0.242,0.331,0.385,0.515,0.489
			c-0.31,0.258-0.601,0.538-0.85,0.855c-0.232,0.002-0.486-0.02-0.674-0.129c-0.617-0.356-0.356-0.855-1.18-1.331
			c-0.442-0.255-1.276-0.04-1.537,0.412c1.812,1.046,0.914,1.826,1.874,2.38c0.238,0.138,0.471,0.166,0.68,0.166
			c-0.141,0.376-0.256,0.765-0.313,1.175c-0.197,0.113-0.421,0.217-0.633,0.217c-0.713,0-0.736-0.563-1.688-0.563
			C11.615,7.875,11,8.479,11,9c2.092,0,1.705,1.125,2.813,1.125c0.264,0,0.472-0.086,0.649-0.185
			c0.012,0.069,0.034,0.135,0.048,0.203C14.994,10.053,15.49,10,16,10c0.15,0,0.296,0.015,0.444,0.022C18.413,8.151,21.069,7,24,7
			c0.426,0,0.844,0.03,1.256,0.077c-0.021-0.057-0.039-0.116-0.062-0.172c0.114-0.199,0.258-0.404,0.445-0.513
			c0.617-0.355,0.919,0.119,1.743-0.356C27.824,5.781,28.055,4.951,27.794,4.5z"/>
	</g>
</g>
<g id="Snowflake_3_">
	<g>
		<path style="fill-rule:evenodd;clip-rule:evenodd;fill:#48A0DC;" d="M23.546,28.134L20.882,26.5l2.664-1.634
			c0.45-0.276,0.604-0.888,0.345-1.366c-0.26-0.479-0.836-0.643-1.286-0.366L20,24.731V22c0-0.553-0.448-1-1-1s-1,0.447-1,1v2.731
			l-2.605-1.598c-0.45-0.276-1.026-0.112-1.286,0.366s-0.105,1.09,0.345,1.366l2.663,1.634l-2.663,1.634
			c-0.45,0.276-0.604,0.888-0.345,1.366s0.835,0.642,1.286,0.366L18,28.269V31c0,0.552,0.448,1,1,1s1-0.448,1-1v-2.731l2.604,1.598
			c0.45,0.275,1.026,0.112,1.286-0.366C24.15,29.021,23.996,28.41,23.546,28.134z"/>
	</g>
</g>
<g>
</g>
<g>
</g>
<g>
</g>
<g>
</g>
<g>
</g>
<g>
</g>
<g>
</g>
<g>
</g>
<g>
</g>
<g>
</g>
<g>
</g>
<g>
</g>
<g>
</g>
<g>
</g>
<g>
</g>
</svg>
