<?xml version="1.0" encoding="iso-8859-1"?>
<!-- Generator: Adobe Illustrator 16.0.0, SVG Export Plug-In . SVG Version: 6.00 Build 0)  -->
<!DOCTYPE svg PUBLIC "-//W3C//DTD SVG 1.1//EN" "http://www.w3.org/Graphics/SVG/1.1/DTD/svg11.dtd">
<svg version="1.1" id="Layer_1" xmlns="http://www.w3.org/2000/svg" xmlns:xlink="http://www.w3.org/1999/xlink" x="0px" y="0px"
	 width="32px" height="32.019px" viewBox="0 0 32 32.019" style="enable-background:new 0 0 32 32.019;" xml:space="preserve">
<g id="Cloud_41_">
	<g>
		<path style="fill-rule:evenodd;clip-rule:evenodd;fill:#CCCCCC;" d="M30.212,12.67C30.714,11.549,31,10.309,31,9
			c0-4.971-4.03-9-9-9c-3.304,0-6.185,1.786-7.75,4.44C13.555,4.158,12.796,4,12,4C9.382,4,7.162,5.679,6.342,8.018
			C6.229,8.011,6.116,8,6,8c-3.314,0-6,2.686-6,6c0,3.313,2.686,6,6,6h22c2.209,0,4-1.791,4-4C32,14.609,31.289,13.387,30.212,12.67
			z"/>
	</g>
</g>
<g id="Shower_Rain_6_">
	<g>
		<path style="fill-rule:evenodd;clip-rule:evenodd;fill:#54BBFF;" d="M11.5,21.12c-0.479-0.286-1.09-0.116-1.366,0.379l-3,4.966
			C6.858,26.961,7.021,27.594,7.5,27.88c0.478,0.285,1.09,0.116,1.366-0.379l3-4.967C12.142,22.039,11.978,21.406,11.5,21.12z
			 M17.5,21.12c-0.479-0.286-1.09-0.116-1.366,0.379l-5,8.966c-0.276,0.496-0.112,1.129,0.366,1.414
			c0.478,0.286,1.09,0.117,1.366-0.379l5-8.966C18.142,22.039,17.978,21.406,17.5,21.12z M23.5,21.12
			c-0.479-0.286-1.09-0.116-1.366,0.379l-3,4.966c-0.276,0.496-0.112,1.129,0.366,1.415c0.478,0.285,1.09,0.116,1.366-0.379l3-4.967
			C24.142,22.039,23.978,21.406,23.5,21.12z"/>
	</g>
</g>
<g>
</g>
<g>
</g>
<g>
</g>
<g>
</g>
<g>
</g>
<g>
</g>
<g>
</g>
<g>
</g>
<g>
</g>
<g>
</g>
<g>
</g>
<g>
</g>
<g>
</g>
<g>
</g>
<g>
</g>
</svg>
