<?xml version="1.0" encoding="iso-8859-1"?>
<!-- Generator: Adobe Illustrator 16.0.0, SVG Export Plug-In . SVG Version: 6.00 Build 0)  -->
<!DOCTYPE svg PUBLIC "-//W3C//DTD SVG 1.1//EN" "http://www.w3.org/Graphics/SVG/1.1/DTD/svg11.dtd">
<svg version="1.1" id="Layer_1" xmlns="http://www.w3.org/2000/svg" xmlns:xlink="http://www.w3.org/1999/xlink" x="0px" y="0px"
	 width="32px" height="32px" viewBox="0 0 32 32" style="enable-background:new 0 0 32 32;" xml:space="preserve">
<g id="Cloud_53_">
	<g>
		<path style="fill-rule:evenodd;clip-rule:evenodd;fill:#CCCCCC;" d="M30.213,24.67C30.715,23.549,31,22.309,31,21
			c0-4.971-4.029-9-9-9c-3.305,0-6.185,1.786-7.75,4.44C13.555,16.158,12.796,16,12,16c-2.618,0-4.838,1.679-5.657,4.018
			C6.229,20.011,6.115,20,6,20c-3.313,0-6,2.686-6,6c0,3.313,2.687,6,6,6h22c2.209,0,4-1.791,4-4
			C32,26.609,31.289,25.387,30.213,24.67z"/>
	</g>
</g>
<g id="Star_5_">
	<g>
		<path style="fill:#FFCC66;" d="M9.973,3.777C9.91,3.572,9.747,3.42,9.547,3.38L6.823,2.834L5.484,0.301C5.387,0.115,5.201,0,5,0
			S4.613,0.115,4.515,0.301L3.177,2.834L0.452,3.38C0.253,3.42,0.09,3.572,0.027,3.777s-0.015,0.43,0.126,0.586l1.893,2.108
			L1.702,9.337C1.677,9.549,1.762,9.76,1.925,9.886c0.097,0.075,0.213,0.113,0.328,0.113c0.079,0,0.159-0.018,0.233-0.054L5,8.714
			l2.513,1.231c0.075,0.036,0.154,0.054,0.233,0.054c0.116,0,0.231-0.038,0.328-0.113C8.237,9.76,8.322,9.549,8.297,9.337
			L7.954,6.472l1.893-2.108C9.986,4.207,10.035,3.982,9.973,3.777z"/>
	</g>
</g>
<g>
</g>
<g>
</g>
<g>
</g>
<g>
</g>
<g>
</g>
<g>
</g>
<g>
</g>
<g>
</g>
<g>
</g>
<g>
</g>
<g>
</g>
<g>
</g>
<g>
</g>
<g>
</g>
<g>
</g>
</svg>
