<?xml version="1.0" encoding="iso-8859-1"?>
<!-- Generator: Adobe Illustrator 16.0.0, SVG Export Plug-In . SVG Version: 6.00 Build 0)  -->
<!DOCTYPE svg PUBLIC "-//W3C//DTD SVG 1.1//EN" "http://www.w3.org/Graphics/SVG/1.1/DTD/svg11.dtd">
<svg version="1.1" id="Layer_1" xmlns="http://www.w3.org/2000/svg" xmlns:xlink="http://www.w3.org/1999/xlink" x="0px" y="0px"
	 width="42px" height="43.019px" viewBox="0 0 42 43.019" style="enable-background:new 0 0 42 43.019;" xml:space="preserve">
<g id="Cloud_33_">
	<g>
		<path style="fill-rule:evenodd;clip-rule:evenodd;fill:#CCCCCC;" d="M30.548,31.136c0.408-0.897,0.64-1.889,0.64-2.936
			c0-3.977-3.274-7.2-7.313-7.2c-2.687,0-5.027,1.431-6.299,3.556c-0.564-0.226-1.18-0.355-1.826-0.355
			c-2.13,0-3.922,1.354-4.585,3.228c-0.099-0.005-0.19-0.028-0.29-0.028C8.183,27.399,6,29.549,6,32.2c0,2.65,2.183,4.8,4.875,4.8
			H28.75c1.795,0,3.25-1.433,3.25-3.2C32,32.688,31.423,31.709,30.548,31.136z"/>
	</g>
</g>
<g id="Cloud_34_">
	<g>
		<path style="fill-rule:evenodd;clip-rule:evenodd;fill:#999999;" d="M6.945,25.113c-0.553-0.604-1.062-1.247-1.51-1.935
			C2.714,23.84,0.688,26.326,0.688,29.3c0,0.916,0.197,1.783,0.544,2.567C0.49,32.369,0,33.226,0,34.199C0,35.746,1.231,37,2.75,37
			h2.011C3.661,35.63,3,33.894,3,32C3,29.063,4.586,26.504,6.945,25.113z"/>
	</g>
</g>
<g id="Moon_8_">
	<g>
		<path style="fill-rule:evenodd;clip-rule:evenodd;fill:#666666;" d="M17.264,11.389C13.072,12.58,10,16.427,10,21
			c0,0.688,0.09,1.353,0.226,2h0.468c1.519-1.177,3.396-1.905,5.446-1.983c0.661-0.65,1.409-1.212,2.224-1.67
			c-0.938-1.52-1.488-3.304-1.488-5.222C16.875,13.175,17.016,12.259,17.264,11.389z"/>
	</g>
</g>
<g id="Shower_Rain_1_">
	<g>
		<path style="fill-rule:evenodd;clip-rule:evenodd;fill:#48A0DC;" d="M15.5,32.12c-0.479-0.286-1.09-0.116-1.366,0.379l-3,4.966
			c-0.276,0.496-0.112,1.129,0.366,1.415c0.479,0.285,1.09,0.116,1.366-0.379l3-4.967C16.142,33.039,15.979,32.406,15.5,32.12z
			 M21.5,32.12c-0.479-0.286-1.09-0.116-1.366,0.379l-5,8.966c-0.276,0.496-0.112,1.129,0.366,1.414
			c0.479,0.286,1.09,0.117,1.366-0.379l5-8.966C22.143,33.039,21.979,32.406,21.5,32.12z M27.5,32.12
			c-0.479-0.286-1.09-0.116-1.366,0.379l-3,4.966c-0.276,0.496-0.112,1.129,0.366,1.415c0.479,0.285,1.09,0.116,1.366-0.379l3-4.967
			C28.143,33.039,27.979,32.406,27.5,32.12z"/>
	</g>
</g>
<g>
</g>
<g>
</g>
<g>
</g>
<g>
</g>
<g>
</g>
<g>
</g>
<g>
</g>
<g>
</g>
<g>
</g>
<g>
</g>
<g>
</g>
<g>
</g>
<g>
</g>
<g>
</g>
<g>
</g>
</svg>
