<?xml version="1.0" encoding="iso-8859-1"?>
<!-- Generator: Adobe Illustrator 16.0.0, SVG Export Plug-In . SVG Version: 6.00 Build 0)  -->
<!DOCTYPE svg PUBLIC "-//W3C//DTD SVG 1.1//EN" "http://www.w3.org/Graphics/SVG/1.1/DTD/svg11.dtd">
<svg version="1.1" id="Layer_1" xmlns="http://www.w3.org/2000/svg" xmlns:xlink="http://www.w3.org/1999/xlink" x="0px" y="0px"
	 width="42px" height="43px" viewBox="0 0 42 43" style="enable-background:new 0 0 42 43;" xml:space="preserve">
<g id="Cloud_13_">
	<g>
		<path style="fill-rule:evenodd;clip-rule:evenodd;fill:#CCCCCC;" d="M30.547,31.136c0.408-0.897,0.64-1.889,0.64-2.936
			c0-3.977-3.274-7.2-7.313-7.2c-2.686,0-5.027,1.43-6.298,3.555c-0.565-0.226-1.18-0.355-1.827-0.355
			c-2.13,0-3.922,1.354-4.585,3.229c-0.098-0.005-0.19-0.028-0.29-0.028C8.183,27.399,6,29.549,6,32.2c0,2.65,2.183,4.8,4.875,4.8
			H28.75c1.795,0,3.25-1.433,3.25-3.2C32,32.688,31.422,31.709,30.547,31.136z"/>
	</g>
</g>
<g id="Cloud_14_">
	<g>
		<path style="fill-rule:evenodd;clip-rule:evenodd;fill:#999999;" d="M6.945,25.113c-0.552-0.604-1.061-1.247-1.509-1.935
			C2.714,23.84,0.688,26.326,0.688,29.3c0,0.916,0.197,1.783,0.544,2.567C0.49,32.369,0,33.226,0,34.199C0,35.746,1.231,37,2.75,37
			h2.011C3.661,35.63,3,33.894,3,32C3,29.063,4.586,26.504,6.945,25.113z"/>
	</g>
</g>
<g id="Moon_4_">
	<g>
		<path style="fill-rule:evenodd;clip-rule:evenodd;fill:#666666;" d="M17.264,11.389C13.072,12.58,10,16.427,10,21
			c0,0.688,0.09,1.353,0.226,2h0.468c1.518-1.178,3.396-1.905,5.447-1.983c0.662-0.65,1.41-1.212,2.224-1.67
			c-0.938-1.52-1.489-3.304-1.489-5.222C16.875,13.175,17.016,12.259,17.264,11.389z"/>
	</g>
</g>
<g id="Snowflake_1_">
	<g>
		<path style="fill-rule:evenodd;clip-rule:evenodd;fill:#48A0DC;" d="M23.546,39.134L20.883,37.5l2.663-1.634
			c0.45-0.276,0.604-0.888,0.345-1.366s-0.836-0.643-1.286-0.366L20,35.731V33c0-0.553-0.448-1-1-1c-0.553,0-1,0.447-1,1v2.731
			l-2.604-1.598c-0.45-0.276-1.026-0.112-1.286,0.366s-0.105,1.09,0.345,1.366l2.663,1.634l-2.663,1.634
			c-0.45,0.276-0.604,0.888-0.345,1.366s0.836,0.642,1.286,0.366L18,39.269V42c0,0.552,0.447,1,1,1c0.552,0,1-0.448,1-1v-2.731
			l2.604,1.598c0.45,0.275,1.026,0.112,1.286-0.366S23.996,39.41,23.546,39.134z"/>
	</g>
</g>
<g>
</g>
<g>
</g>
<g>
</g>
<g>
</g>
<g>
</g>
<g>
</g>
<g>
</g>
<g>
</g>
<g>
</g>
<g>
</g>
<g>
</g>
<g>
</g>
<g>
</g>
<g>
</g>
<g>
</g>
</svg>
