<?xml version="1.0" encoding="iso-8859-1"?>
<!-- Generator: Adobe Illustrator 16.0.0, SVG Export Plug-In . SVG Version: 6.00 Build 0)  -->
<!DOCTYPE svg PUBLIC "-//W3C//DTD SVG 1.1//EN" "http://www.w3.org/Graphics/SVG/1.1/DTD/svg11.dtd">
<svg version="1.1" id="Layer_1" xmlns="http://www.w3.org/2000/svg" xmlns:xlink="http://www.w3.org/1999/xlink" x="0px" y="0px"
	 width="42px" height="43.875px" viewBox="0 0 42 43.875" style="enable-background:new 0 0 42 43.875;" xml:space="preserve">
<g id="Cloud_54_">
	<g>
		<path style="fill-rule:evenodd;clip-rule:evenodd;fill:#CCCCCC;" d="M30.548,33.011c0.407-0.897,0.64-1.89,0.64-2.937
			c0-3.976-3.274-7.199-7.313-7.199c-2.687,0-5.027,1.43-6.299,3.555c-0.564-0.226-1.18-0.355-1.826-0.355
			c-2.13,0-3.922,1.354-4.586,3.229c-0.098-0.005-0.189-0.028-0.289-0.028c-2.692,0-4.875,2.149-4.875,4.8
			c0,2.651,2.183,4.801,4.875,4.801H28.75c1.795,0,3.25-1.433,3.25-3.2C32,34.563,31.422,33.584,30.548,33.011z"/>
	</g>
</g>
<g id="Cloud_55_">
	<g>
		<path style="fill-rule:evenodd;clip-rule:evenodd;fill:#999999;" d="M6.945,26.988c-0.553-0.604-1.062-1.247-1.51-1.935
			c-2.722,0.661-4.748,3.147-4.748,6.121c0,0.916,0.197,1.783,0.544,2.567C0.49,34.244,0,35.101,0,36.074
			c0,1.547,1.231,2.801,2.75,2.801h2.011c-1.1-1.37-1.761-3.106-1.761-5C3,30.938,4.587,28.379,6.945,26.988z"/>
	</g>
</g>
<g id="Moon_12_">
	<g>
		<path style="fill-rule:evenodd;clip-rule:evenodd;fill:#666666;" d="M12.875,10c0-0.95,0.141-1.866,0.389-2.736
			C9.072,8.455,6,12.302,6,16.875c0,3.279,1.59,6.176,4.03,8h0.66c1.519-1.178,3.398-1.906,5.45-1.983
			c1.601-1.575,3.705-2.634,6.049-2.926C16.987,19.611,12.875,15.291,12.875,10z"/>
	</g>
</g>
<g>
</g>
<g>
</g>
<g>
</g>
<g>
</g>
<g>
</g>
<g>
</g>
<g>
</g>
<g>
</g>
<g>
</g>
<g>
</g>
<g>
</g>
<g>
</g>
<g>
</g>
<g>
</g>
<g>
</g>
</svg>
