<?xml version="1.0" encoding="iso-8859-1"?>
<!-- Generator: Adobe Illustrator 16.0.0, SVG Export Plug-In . SVG Version: 6.00 Build 0)  -->
<!DOCTYPE svg PUBLIC "-//W3C//DTD SVG 1.1//EN" "http://www.w3.org/Graphics/SVG/1.1/DTD/svg11.dtd">
<svg version="1.1" id="Layer_1" xmlns="http://www.w3.org/2000/svg" xmlns:xlink="http://www.w3.org/1999/xlink" x="0px" y="0px"
	 width="33px" height="32.019px" viewBox="0 0 33 32.019" style="enable-background:new 0 0 33 32.019;" xml:space="preserve">
<g id="Sun_9_">
	<g>
		<path style="fill-rule:evenodd;clip-rule:evenodd;fill:#FFCC66;" d="M3.849,13.204C5.281,10.133,8.388,8,12,8
			c0.488,0,0.963,0.05,1.431,0.124c0.269-0.335,0.55-0.66,0.856-0.962c-0.031-0.085-0.058-0.173-0.092-0.257
			c0.114-0.2,0.258-0.404,0.445-0.512c0.273-0.157,0.485-0.152,0.707-0.139c0.477-0.363,0.979-0.693,1.512-0.977
			c0.063-0.277,0.057-0.568-0.065-0.778c-1.812,1.046-2.039-0.122-2.998,0.432c-0.241,0.14-0.384,0.33-0.487,0.514
			C13.05,5.137,12.77,4.848,12.452,4.6c-0.002-0.232,0.02-0.487,0.129-0.678c0.356-0.617,0.855-0.355,1.331-1.18
			c0.255-0.441,0.04-1.275-0.412-1.537c-1.046,1.813-1.827,0.914-2.381,1.874c-0.139,0.24-0.167,0.477-0.165,0.687
			c-0.375-0.14-0.762-0.254-1.17-0.313C9.668,3.255,9.563,3.027,9.563,2.813c0-0.713,0.563-0.736,0.563-1.688
			C10.125,0.615,9.521,0,9,0c0,2.092-1.125,1.705-1.125,2.813c0,0.268,0.088,0.479,0.188,0.656C7.66,3.537,7.279,3.658,6.912,3.809
			C6.71,3.693,6.502,3.549,6.393,3.36C6.037,2.742,6.512,2.441,6.037,1.617C5.782,1.176,4.952,0.945,4.5,1.205
			c1.046,1.813-0.122,2.039,0.432,2.999c0.14,0.241,0.332,0.384,0.515,0.488c-0.31,0.258-0.6,0.538-0.849,0.855
			C4.365,5.55,4.111,5.528,3.923,5.419C3.305,5.063,3.566,4.563,2.742,4.088C2.301,3.833,1.466,4.048,1.206,4.5
			C3.017,5.546,2.12,6.326,3.079,6.88c0.238,0.138,0.471,0.166,0.68,0.166C3.619,7.422,3.503,7.811,3.446,8.221
			C3.249,8.334,3.025,8.438,2.813,8.438c-0.713,0-0.736-0.563-1.688-0.563C0.615,7.875,0,8.479,0,9c2.092,0,1.705,1.125,2.813,1.125
			c0.264,0,0.472-0.086,0.649-0.185c0.068,0.403,0.192,0.786,0.343,1.153c-0.114,0.2-0.258,0.405-0.444,0.513
			c-0.618,0.356-0.919-0.119-1.743,0.356c-0.442,0.255-0.673,1.085-0.412,1.537C2.771,12.597,3.155,13.34,3.849,13.204z"/>
	</g>
</g>
<g id="Cloud_38_">
	<g>
		<path style="fill-rule:evenodd;clip-rule:evenodd;fill:#CCCCCC;" d="M30.212,19.67C30.714,18.549,31,17.309,31,16
			c0-4.971-4.029-9-9-9c-3.305,0-6.185,1.786-7.75,4.44C13.555,11.158,12.796,11,12,11c-2.618,0-4.838,1.68-5.658,4.018
			C6.229,15.011,6.116,15,6,15c-3.314,0-6,2.687-6,6s2.686,6,6,6h22c2.209,0,4-1.791,4-4C32,21.609,31.289,20.387,30.212,19.67z"/>
	</g>
</g>
<g id="Shower_Rain_4_">
	<g>
		<path style="fill-rule:evenodd;clip-rule:evenodd;fill:#48A0DC;" d="M12.5,21.12c-0.479-0.286-1.09-0.116-1.366,0.379l-3,4.966
			C7.858,26.961,8.021,27.594,8.5,27.88c0.478,0.285,1.09,0.116,1.366-0.379l3-4.967C13.142,22.039,12.978,21.406,12.5,21.12z
			 M18.5,21.12c-0.479-0.286-1.09-0.116-1.366,0.379l-5,8.966c-0.276,0.496-0.112,1.129,0.366,1.414
			c0.478,0.286,1.09,0.117,1.366-0.379l5-8.966C19.142,22.039,18.978,21.406,18.5,21.12z M24.5,21.12
			c-0.479-0.286-1.09-0.116-1.366,0.379l-3,4.966c-0.276,0.496-0.112,1.129,0.366,1.415c0.478,0.285,1.09,0.116,1.366-0.379l3-4.967
			C25.142,22.039,24.978,21.406,24.5,21.12z"/>
	</g>
</g>
<g>
</g>
<g>
</g>
<g>
</g>
<g>
</g>
<g>
</g>
<g>
</g>
<g>
</g>
<g>
</g>
<g>
</g>
<g>
</g>
<g>
</g>
<g>
</g>
<g>
</g>
<g>
</g>
<g>
</g>
</svg>
