<?xml version="1.0" encoding="iso-8859-1"?>
<!-- Generator: Adobe Illustrator 16.0.0, SVG Export Plug-In . SVG Version: 6.00 Build 0)  -->
<!DOCTYPE svg PUBLIC "-//W3C//DTD SVG 1.1//EN" "http://www.w3.org/Graphics/SVG/1.1/DTD/svg11.dtd">
<svg version="1.1" id="Layer_1" xmlns="http://www.w3.org/2000/svg" xmlns:xlink="http://www.w3.org/1999/xlink" x="0px" y="0px"
	 width="35px" height="31.842px" viewBox="0 0 35 31.842" style="enable-background:new 0 0 35 31.842;" xml:space="preserve">
<g id="Cloud_47_">
	<g>
		<path style="fill-rule:evenodd;clip-rule:evenodd;fill:#CCCCCC;" d="M30.547,20.136c0.408-0.897,0.64-1.889,0.64-2.936
			c0-3.977-3.274-7.2-7.313-7.2c-2.686,0-5.027,1.43-6.298,3.555c-0.565-0.226-1.18-0.355-1.827-0.355
			c-2.13,0-3.922,1.354-4.585,3.229c-0.098-0.005-0.19-0.028-0.29-0.028c-2.692,0-4.875,2.149-4.875,4.8
			C6,23.851,8.183,26,10.875,26H28.75c1.795,0,3.25-1.433,3.25-3.2C32,21.688,31.422,20.709,30.547,20.136z"/>
	</g>
</g>
<g id="Cloud_48_">
	<g>
		<path style="fill-rule:evenodd;clip-rule:evenodd;fill:#999999;" d="M0.688,18.3c0,0.916,0.197,1.783,0.544,2.567
			C0.49,21.369,0,22.226,0,23.199C0,24.746,1.231,26,2.75,26h2.011C3.661,24.63,3,22.894,3,21c0-4.165,3.184-7.584,7.25-7.962
			C9.279,12.389,8.125,12,6.875,12C3.458,12,0.688,14.82,0.688,18.3z"/>
	</g>
</g>
<g id="Sun_10_">
	<g>
		<path style="fill-rule:evenodd;clip-rule:evenodd;fill:#FFCC66;" d="M27.794,4.5c-1.812,1.046-2.039-0.122-2.998,0.432
			c-0.241,0.14-0.384,0.33-0.487,0.514C24.05,5.137,23.77,4.848,23.451,4.6c-0.002-0.232,0.021-0.487,0.13-0.677
			c0.356-0.617,0.854-0.356,1.331-1.181c0.255-0.441,0.04-1.275-0.412-1.537c-1.046,1.812-1.827,0.915-2.381,1.874
			c-0.139,0.24-0.167,0.477-0.165,0.687c-0.375-0.14-0.762-0.255-1.17-0.312c-0.116-0.199-0.222-0.427-0.222-0.642
			c0-0.713,0.563-0.736,0.563-1.688C21.125,0.615,20.521,0,20,0c0,2.092-1.125,1.705-1.125,2.813c0,0.268,0.088,0.479,0.188,0.656
			c-0.403,0.068-0.784,0.19-1.151,0.34c-0.202-0.114-0.41-0.26-0.519-0.449c-0.356-0.617,0.119-0.918-0.356-1.742
			c-0.255-0.441-1.085-0.673-1.537-0.412c1.046,1.812-0.122,2.039,0.432,2.998c0.14,0.242,0.332,0.385,0.515,0.489
			c-0.31,0.258-0.6,0.538-0.849,0.855c-0.232,0.002-0.486-0.021-0.675-0.129c-0.617-0.356-0.356-0.855-1.181-1.331
			c-0.441-0.255-1.275-0.04-1.536,0.412c1.812,1.046,0.914,1.826,1.873,2.38c0.238,0.138,0.472,0.166,0.681,0.166
			c-0.141,0.376-0.257,0.765-0.314,1.175c-0.196,0.113-0.42,0.217-0.633,0.217c-0.713,0-0.736-0.563-1.688-0.563
			C11.615,7.875,11,8.479,11,9c2.092,0,1.705,1.125,2.813,1.125c0.264,0,0.473-0.086,0.649-0.185
			c0.012,0.069,0.034,0.135,0.048,0.203C14.994,10.053,15.49,10,16,10c0.15,0,0.296,0.015,0.444,0.022C18.413,8.151,21.069,7,24,7
			c0.426,0,0.844,0.03,1.257,0.077c-0.021-0.057-0.039-0.116-0.062-0.172c0.113-0.199,0.258-0.404,0.444-0.513
			c0.617-0.355,0.919,0.119,1.743-0.355C27.824,5.781,28.055,4.951,27.794,4.5z"/>
	</g>
</g>
<g id="Hail_4_">
	<g>
		<path style="fill-rule:evenodd;clip-rule:evenodd;fill:#54BBFF;" d="M9.65,31.842l1.885-0.535c0,0,0.39-3.295,0.38-3.301
			c-0.005-0.003-2.734,1.973-2.734,1.973L9.65,31.842z M27.181,29.979l0.47,1.863l1.885-0.535c0,0,0.39-3.295,0.38-3.301
			C29.91,28.003,27.181,29.979,27.181,29.979z M18.65,31.842l1.885-0.535c0,0,0.39-3.295,0.38-3.301
			c-0.005-0.003-2.734,1.973-2.734,1.973L18.65,31.842z"/>
	</g>
</g>
<g>
</g>
<g>
</g>
<g>
</g>
<g>
</g>
<g>
</g>
<g>
</g>
<g>
</g>
<g>
</g>
<g>
</g>
<g>
</g>
<g>
</g>
<g>
</g>
<g>
</g>
<g>
</g>
<g>
</g>
</svg>
