<?xml version="1.0" encoding="iso-8859-1"?>
<!-- Generator: Adobe Illustrator 16.0.0, SVG Export Plug-In . SVG Version: 6.00 Build 0)  -->
<!DOCTYPE svg PUBLIC "-//W3C//DTD SVG 1.1//EN" "http://www.w3.org/Graphics/SVG/1.1/DTD/svg11.dtd">
<svg version="1.1" id="Layer_1" xmlns="http://www.w3.org/2000/svg" xmlns:xlink="http://www.w3.org/1999/xlink" x="0px" y="0px"
	 width="38px" height="38.875px" viewBox="0 0 38 38.875" style="enable-background:new 0 0 38 38.875;" xml:space="preserve">
<g id="Moon_5_">
	<g>
		<path style="fill-rule:evenodd;clip-rule:evenodd;fill:#666666;" d="M5.951,18.875c1.289-2.588,3.781-4.466,6.751-4.896
			c-0.53-1.22-0.828-2.563-0.828-3.979c0-0.95,0.141-1.866,0.389-2.736C8.073,8.455,5,12.302,5,16.875c0,0.688,0.083,1.354,0.221,2
			H5.951z"/>
	</g>
</g>
<g id="Cloud_15_">
	<g>
		<path style="fill-rule:evenodd;clip-rule:evenodd;fill:#CCCCCC;" d="M32.212,25.545C32.714,24.424,33,23.184,33,21.875
			c0-4.971-4.029-9-9-9c-3.304,0-6.185,1.786-7.75,4.44c-0.695-0.282-1.454-0.44-2.25-0.44c-2.618,0-4.838,1.679-5.658,4.018
			C8.229,20.886,8.116,20.875,8,20.875c-3.314,0-6,2.686-6,6c0,3.313,2.686,6,6,6h22c2.209,0,4-1.791,4-4
			C34,27.484,33.289,26.262,32.212,25.545z"/>
	</g>
</g>
<g id="Snowflake_2_">
	<g>
		<path style="fill-rule:evenodd;clip-rule:evenodd;fill:#48A0DC;" d="M22.546,35.009l-2.664-1.634l2.664-1.634
			c0.45-0.276,0.604-0.888,0.345-1.366c-0.26-0.479-0.836-0.643-1.286-0.366L19,31.606v-2.731c0-0.553-0.448-1-1-1s-1,0.447-1,1
			v2.731l-2.605-1.598c-0.45-0.276-1.026-0.112-1.286,0.366s-0.105,1.09,0.345,1.366l2.663,1.634l-2.663,1.634
			c-0.45,0.276-0.604,0.888-0.345,1.366s0.835,0.642,1.286,0.366L17,35.144v2.731c0,0.552,0.448,1,1,1s1-0.448,1-1v-2.731
			l2.604,1.598c0.45,0.275,1.026,0.112,1.286-0.366C23.15,35.896,22.996,35.285,22.546,35.009z"/>
	</g>
</g>
<g>
</g>
<g>
</g>
<g>
</g>
<g>
</g>
<g>
</g>
<g>
</g>
<g>
</g>
<g>
</g>
<g>
</g>
<g>
</g>
<g>
</g>
<g>
</g>
<g>
</g>
<g>
</g>
<g>
</g>
</svg>
