<?xml version="1.0" encoding="iso-8859-1"?>
<!-- Generator: Adobe Illustrator 16.0.0, SVG Export Plug-In . SVG Version: 6.00 Build 0)  -->
<!DOCTYPE svg PUBLIC "-//W3C//DTD SVG 1.1//EN" "http://www.w3.org/Graphics/SVG/1.1/DTD/svg11.dtd">
<svg version="1.1" id="Layer_1" xmlns="http://www.w3.org/2000/svg" xmlns:xlink="http://www.w3.org/1999/xlink" x="0px" y="0px"
	 width="42px" height="42.842px" viewBox="0 0 42 42.842" style="enable-background:new 0 0 42 42.842;" xml:space="preserve">
<g id="Cloud_44_">
	<g>
		<path style="fill-rule:evenodd;clip-rule:evenodd;fill:#CCCCCC;" d="M30.548,31.136c0.407-0.897,0.64-1.889,0.64-2.936
			c0-3.977-3.274-7.2-7.313-7.2c-2.687,0-5.027,1.43-6.299,3.555c-0.564-0.226-1.18-0.355-1.826-0.355
			c-2.13,0-3.922,1.354-4.586,3.229c-0.098-0.005-0.189-0.028-0.289-0.028c-2.692,0-4.875,2.149-4.875,4.8
			C6,34.851,8.183,37,10.875,37H28.75c1.795,0,3.25-1.433,3.25-3.2C32,32.688,31.422,31.709,30.548,31.136z"/>
	</g>
</g>
<g id="Cloud_45_">
	<g>
		<path style="fill-rule:evenodd;clip-rule:evenodd;fill:#999999;" d="M6.945,25.113c-0.553-0.604-1.062-1.247-1.51-1.935
			C2.714,23.84,0.688,26.326,0.688,29.3c0,0.916,0.197,1.783,0.544,2.567C0.49,32.369,0,33.226,0,34.199C0,35.746,1.231,37,2.75,37
			h2.011C3.661,35.63,3,33.894,3,32C3,29.063,4.587,26.504,6.945,25.113z"/>
	</g>
</g>
<g id="Moon_10_">
	<g>
		<path style="fill-rule:evenodd;clip-rule:evenodd;fill:#666666;" d="M17.264,11.389C13.072,12.58,10,16.427,10,21
			c0,0.688,0.09,1.353,0.226,2h0.468c1.518-1.178,3.396-1.905,5.447-1.983c0.661-0.65,1.409-1.212,2.223-1.669
			c-0.938-1.521-1.488-3.305-1.488-5.223C16.875,13.175,17.016,12.259,17.264,11.389z"/>
	</g>
</g>
<g id="Hail_2_">
	<g>
		<path style="fill-rule:evenodd;clip-rule:evenodd;fill:#54BBFF;" d="M9.65,42.842l1.885-0.535c0,0,0.39-3.295,0.38-3.301
			c-0.005-0.003-2.734,1.973-2.734,1.973L9.65,42.842z M27.181,40.979l0.47,1.863l1.885-0.535l0.38-3.301L27.181,40.979z
			 M18.65,42.842l1.885-0.535c0,0,0.39-3.295,0.38-3.301c-0.005-0.003-2.734,1.973-2.734,1.973L18.65,42.842z"/>
	</g>
</g>
<g>
</g>
<g>
</g>
<g>
</g>
<g>
</g>
<g>
</g>
<g>
</g>
<g>
</g>
<g>
</g>
<g>
</g>
<g>
</g>
<g>
</g>
<g>
</g>
<g>
</g>
<g>
</g>
<g>
</g>
</svg>
