<?xml version="1.0" encoding="iso-8859-1"?>
<!-- Generator: Adobe Illustrator 16.0.0, SVG Export Plug-In . SVG Version: 6.00 Build 0)  -->
<!DOCTYPE svg PUBLIC "-//W3C//DTD SVG 1.1//EN" "http://www.w3.org/Graphics/SVG/1.1/DTD/svg11.dtd">
<svg version="1.1" id="Layer_1" xmlns="http://www.w3.org/2000/svg" xmlns:xlink="http://www.w3.org/1999/xlink" x="0px" y="0px"
	 width="33px" height="27px" viewBox="0 0 33 27" style="enable-background:new 0 0 33 27;" xml:space="preserve">
<g id="Sun_13_">
	<g>
		<path style="fill-rule:evenodd;clip-rule:evenodd;fill:#FFCC66;" d="M3.849,13.204C5.281,10.133,8.388,8,12,8
			c0.488,0,0.964,0.05,1.431,0.124c0.27-0.335,0.551-0.66,0.857-0.962c-0.031-0.085-0.058-0.173-0.092-0.257
			c0.113-0.199,0.258-0.404,0.444-0.513c0.273-0.157,0.485-0.151,0.707-0.138c0.477-0.363,0.979-0.694,1.512-0.977
			c0.063-0.277,0.056-0.568-0.065-0.778c-1.812,1.046-2.039-0.122-2.998,0.432c-0.241,0.139-0.384,0.33-0.487,0.514
			C13.05,5.137,12.77,4.848,12.451,4.6c-0.002-0.232,0.021-0.487,0.13-0.678c0.356-0.616,0.854-0.355,1.331-1.18
			c0.254-0.441,0.04-1.275-0.412-1.537c-1.046,1.813-1.827,0.914-2.381,1.873c-0.139,0.241-0.167,0.478-0.165,0.688
			c-0.375-0.14-0.762-0.255-1.17-0.312C9.668,3.255,9.563,3.027,9.563,2.813c0-0.713,0.563-0.736,0.563-1.688
			C10.125,0.615,9.521,0,9,0c0,2.092-1.125,1.705-1.125,2.813c0,0.268,0.088,0.479,0.188,0.656c-0.403,0.068-0.784,0.19-1.151,0.34
			C6.71,3.694,6.502,3.549,6.394,3.36C6.037,2.743,6.513,2.441,6.037,1.617C5.781,1.176,4.951,0.944,4.5,1.205
			c1.046,1.813-0.122,2.039,0.432,2.999c0.14,0.241,0.331,0.384,0.515,0.488c-0.31,0.258-0.6,0.538-0.85,0.855
			C4.365,5.55,4.111,5.528,3.923,5.419C3.306,5.063,3.566,4.563,2.742,4.088C2.301,3.833,1.467,4.048,1.206,4.5
			C3.018,5.546,2.12,6.326,3.079,6.88c0.238,0.138,0.472,0.166,0.68,0.166c-0.14,0.376-0.256,0.765-0.313,1.175
			c-0.197,0.113-0.42,0.217-0.633,0.217c-0.713,0-0.736-0.563-1.688-0.563C0.615,7.875,0,8.479,0,9c2.092,0,1.705,1.125,2.813,1.125
			c0.264,0,0.473-0.086,0.649-0.185c0.068,0.403,0.191,0.786,0.343,1.153c-0.114,0.2-0.258,0.405-0.444,0.513
			c-0.617,0.356-0.919-0.119-1.743,0.356c-0.441,0.255-0.672,1.085-0.411,1.537C2.771,12.597,3.155,13.34,3.849,13.204z"/>
	</g>
</g>
<g id="Cloud_59_">
	<g>
		<path style="fill-rule:evenodd;clip-rule:evenodd;fill:#CCCCCC;" d="M30.212,19.67C30.714,18.549,31,17.309,31,16
			c0-4.971-4.029-9-9-9c-3.304,0-6.185,1.786-7.75,4.44C13.555,11.158,12.796,11,12,11c-2.618,0-4.838,1.679-5.658,4.018
			C6.229,15.011,6.116,15,6,15c-3.313,0-6,2.686-6,6c0,3.313,2.687,6,6,6h22c2.209,0,4-1.791,4-4
			C32,21.609,31.289,20.387,30.212,19.67z"/>
	</g>
</g>
<g>
</g>
<g>
</g>
<g>
</g>
<g>
</g>
<g>
</g>
<g>
</g>
<g>
</g>
<g>
</g>
<g>
</g>
<g>
</g>
<g>
</g>
<g>
</g>
<g>
</g>
<g>
</g>
<g>
</g>
</svg>
