<?xml version="1.0" encoding="iso-8859-1"?>
<!-- Generator: Adobe Illustrator 16.0.0, SVG Export Plug-In . SVG Version: 6.00 Build 0)  -->
<!DOCTYPE svg PUBLIC "-//W3C//DTD SVG 1.1//EN" "http://www.w3.org/Graphics/SVG/1.1/DTD/svg11.dtd">
<svg version="1.1" id="Layer_1" xmlns="http://www.w3.org/2000/svg" xmlns:xlink="http://www.w3.org/1999/xlink" x="0px" y="0px"
	 width="38px" height="38.894px" viewBox="0 0 38 38.894" style="enable-background:new 0 0 38 38.894;" xml:space="preserve">
<g id="Moon_9_">
	<g>
		<path style="fill-rule:evenodd;clip-rule:evenodd;fill:#666666;" d="M5.952,18.875c1.288-2.588,3.78-4.467,6.75-4.896
			c-0.529-1.22-0.827-2.563-0.827-3.979c0-0.95,0.141-1.866,0.389-2.736C8.073,8.455,5,12.302,5,16.875c0,0.688,0.083,1.354,0.221,2
			H5.952z"/>
	</g>
</g>
<g id="Cloud_35_">
	<g>
		<path style="fill-rule:evenodd;clip-rule:evenodd;fill:#CCCCCC;" d="M32.213,25.545C32.715,24.424,33,23.184,33,21.875
			c0-4.971-4.029-9-9-9c-3.305,0-6.185,1.786-7.75,4.44c-0.695-0.282-1.454-0.44-2.25-0.44c-2.618,0-4.838,1.679-5.657,4.018
			C8.229,20.886,8.115,20.875,8,20.875c-3.313,0-6,2.686-6,6c0,3.313,2.687,6,6,6h22c2.209,0,4-1.791,4-4
			C34,27.484,33.289,26.262,32.213,25.545z"/>
	</g>
</g>
<g id="Shower_Rain_2_">
	<g>
		<path style="fill-rule:evenodd;clip-rule:evenodd;fill:#48A0DC;" d="M14.5,27.995c-0.479-0.286-1.09-0.116-1.366,0.379l-3,4.966
			c-0.276,0.496-0.112,1.129,0.366,1.415c0.479,0.285,1.09,0.116,1.366-0.379l3-4.967C15.143,28.914,14.979,28.281,14.5,27.995z
			 M20.5,27.995c-0.479-0.286-1.09-0.116-1.366,0.379l-5,8.966c-0.276,0.496-0.112,1.129,0.366,1.414
			c0.479,0.286,1.09,0.117,1.366-0.379l5-8.966C21.143,28.914,20.979,28.281,20.5,27.995z M26.5,27.995
			c-0.479-0.286-1.09-0.116-1.366,0.379l-3,4.966c-0.276,0.496-0.112,1.129,0.366,1.415c0.479,0.285,1.09,0.116,1.366-0.379l3-4.967
			C27.143,28.914,26.979,28.281,26.5,27.995z"/>
	</g>
</g>
<g>
</g>
<g>
</g>
<g>
</g>
<g>
</g>
<g>
</g>
<g>
</g>
<g>
</g>
<g>
</g>
<g>
</g>
<g>
</g>
<g>
</g>
<g>
</g>
<g>
</g>
<g>
</g>
<g>
</g>
</svg>
