<?xml version="1.0" encoding="iso-8859-1"?>
<!-- Generator: Adobe Illustrator 16.0.0, SVG Export Plug-In . SVG Version: 6.00 Build 0)  -->
<!DOCTYPE svg PUBLIC "-//W3C//DTD SVG 1.1//EN" "http://www.w3.org/Graphics/SVG/1.1/DTD/svg11.dtd">
<svg version="1.1" id="Layer_1" xmlns="http://www.w3.org/2000/svg" xmlns:xlink="http://www.w3.org/1999/xlink" x="0px" y="0px"
	 width="48px" height="32px" viewBox="0 0 48 32" style="enable-background:new 0 0 48 32;" xml:space="preserve">
<g id="Rainbow_5_">
	<g>
		<path style="fill-rule:evenodd;clip-rule:evenodd;fill:#387AA7;" d="M32,5c-6.075,0-11,4.925-11,11h3.012
			c0-4.412,3.576-7.988,7.988-7.988V5z"/>
	</g>
</g>
<g id="Rainbow_6_">
	<g>
		<path style="fill-rule:evenodd;clip-rule:evenodd;fill:#88C057;" d="M32,3c-7.18,0-13,5.82-13,13h3.006
			c0-5.52,4.475-9.994,9.994-9.994V3z"/>
	</g>
</g>
<g id="Rainbow_7_">
	<g>
		<path style="fill-rule:evenodd;clip-rule:evenodd;fill:#FFCC66;" d="M32,1c-8.284,0-15,6.716-15,15h3c0-6.628,5.372-12,12-12V1z"
			/>
	</g>
</g>
<g id="Rainbow_8_">
	<g>
		<path style="fill-rule:evenodd;clip-rule:evenodd;fill:#ED7161;" d="M32,0c-8.837,0-16,7.163-16,16h2c0-7.732,6.268-14,14-14V0z"
			/>
	</g>
</g>
<g id="Cloud_64_">
	<g>
		<path style="fill-rule:evenodd;clip-rule:evenodd;fill:#CCCCCC;" d="M30.213,24.67C30.715,23.548,31,22.309,31,21
			c0-4.971-4.029-9-9-9c-3.305,0-6.185,1.786-7.75,4.44C13.555,16.159,12.796,16,12,16c-2.618,0-4.838,1.679-5.657,4.017
			C6.229,20.011,6.115,20,6,20c-3.313,0-6,2.687-6,6s2.687,6,6,6h22c2.209,0,4-1.791,4-4C32,26.609,31.289,25.387,30.213,24.67z"/>
	</g>
</g>
<g>
</g>
<g>
</g>
<g>
</g>
<g>
</g>
<g>
</g>
<g>
</g>
<g>
</g>
<g>
</g>
<g>
</g>
<g>
</g>
<g>
</g>
<g>
</g>
<g>
</g>
<g>
</g>
<g>
</g>
</svg>
