<?xml version="1.0" encoding="iso-8859-1"?>
<!-- Generator: Adobe Illustrator 16.0.0, SVG Export Plug-In . SVG Version: 6.00 Build 0)  -->
<!DOCTYPE svg PUBLIC "-//W3C//DTD SVG 1.1//EN" "http://www.w3.org/Graphics/SVG/1.1/DTD/svg11.dtd">
<svg version="1.1" id="Layer_1" xmlns="http://www.w3.org/2000/svg" xmlns:xlink="http://www.w3.org/1999/xlink" x="0px" y="0px"
	 width="34px" height="32px" viewBox="0 0 34 32" style="enable-background:new 0 0 34 32;" xml:space="preserve">
<g id="Sun_14_">
	<g>
		<path style="fill-rule:evenodd;clip-rule:evenodd;fill:#FFCC66;" d="M8,29.856c0.103-0.178,0.203-0.334,0.302-0.483
			c-0.366-0.149-0.717-0.325-1.056-0.521C7.404,29.28,7.661,29.661,8,29.856z M3.015,21.2c-0.048,0.025-0.089,0.038-0.14,0.067
			C2.091,21.721,1.68,23.197,2.144,24c0.408-0.235,0.77-0.407,1.095-0.53C3.088,22.837,3,22.18,3,21.5
			C3,21.398,3.012,21.301,3.015,21.2z M14.022,29.619C14.01,29.738,14,29.86,14,30c0,0.906,1.073,2,2,2
			c0-1.759,0.447-2.528,0.919-3.063c-0.235-0.114-0.457-0.249-0.682-0.379C15.561,29.012,14.817,29.373,14.022,29.619z
			 M22.479,29.95c0.533,0.15,1.113,0.142,1.521-0.094c-0.03-0.052-0.051-0.098-0.079-0.148
			C23.451,29.819,22.972,29.905,22.479,29.95z M29.856,8c-3.221,1.859-3.625-0.217-5.33,0.768C24.271,8.915,24.082,9.1,23.92,9.291
			c1.44,0.341,2.762,0.977,3.905,1.842c0.358-0.013,0.767-0.094,1.299-0.401C29.909,10.278,30.32,8.803,29.856,8z M22.126,8.14
			c0-0.403,0.052-0.841,0.24-1.166C23,5.876,23.886,6.34,24.732,4.875C25.185,4.091,24.803,2.607,24,2.144
			c-1.859,3.221-3.248,1.625-4.232,3.33c-0.234,0.405-0.311,0.819-0.316,1.18c-0.671-0.247-1.362-0.451-2.092-0.551
			C17.165,5.76,17,5.366,17,5c0-1.268,1-1.309,1-3c0-0.906-1.073-2-2-2c0,3.719-2,3.031-2,5c0,0.456,0.134,0.844,0.303,1.154
			c-0.719,0.123-1.406,0.332-2.062,0.602c-0.345-0.2-0.69-0.461-0.876-0.782c-0.633-1.098,0.212-1.634-0.634-3.099
			C10.279,2.09,8.803,1.68,8,2.143c1.859,3.222-0.217,3.626,0.768,5.331C9.002,7.88,9.324,8.154,9.634,8.34
			C9.086,8.799,8.582,9.31,8.141,9.874c-0.403,0-0.841-0.052-1.167-0.24C5.876,9,6.34,8.113,4.875,7.268
			C4.091,6.814,2.607,7.196,2.144,8c3.221,1.859,1.625,3.247,3.33,4.231c0.405,0.234,0.819,0.312,1.18,0.317
			c-0.248,0.671-0.452,1.362-0.552,2.093C5.759,14.836,5.366,15,5,15c-1.267,0-1.309-1-3-1c-0.906,0-2,1.072-2,2
			c2.789,0,3.1,1.125,3.911,1.688C5.309,14.91,8.178,13,11.5,13c0.563,0,1.111,0.058,1.643,0.162C15.061,10.638,18.085,9,21.5,9
			c0.586,0,1.157,0.061,1.717,0.152C22.875,8.791,22.519,8.445,22.126,8.14z"/>
	</g>
</g>
<g id="Cloud_60_">
	<g>
		<path style="fill-rule:evenodd;clip-rule:evenodd;fill:#CCCCCC;" d="M30.212,24.67C30.714,23.549,31,22.309,31,21
			c0-4.971-4.029-9-9-9c-3.304,0-6.185,1.786-7.75,4.44C13.555,16.158,12.796,16,12,16c-2.618,0-4.838,1.679-5.658,4.018
			C6.229,20.011,6.116,20,6,20c-3.314,0-6,2.686-6,6c0,3.313,2.686,6,6,6h22c2.209,0,4-1.791,4-4
			C32,26.609,31.289,25.387,30.212,24.67z"/>
	</g>
</g>
<g>
</g>
<g>
</g>
<g>
</g>
<g>
</g>
<g>
</g>
<g>
</g>
<g>
</g>
<g>
</g>
<g>
</g>
<g>
</g>
<g>
</g>
<g>
</g>
<g>
</g>
<g>
</g>
<g>
</g>
</svg>
