<?xml version="1.0" encoding="iso-8859-1"?>
<!-- Generator: Adobe Illustrator 16.0.0, SVG Export Plug-In . SVG Version: 6.00 Build 0)  -->
<!DOCTYPE svg PUBLIC "-//W3C//DTD SVG 1.1//EN" "http://www.w3.org/Graphics/SVG/1.1/DTD/svg11.dtd">
<svg version="1.1" id="Layer_1" xmlns="http://www.w3.org/2000/svg" xmlns:xlink="http://www.w3.org/1999/xlink" x="0px" y="0px"
	 width="32px" height="31.846px" viewBox="0 0 32 31.846" style="enable-background:new 0 0 32 31.846;" xml:space="preserve">
<g id="Cloud_43_">
	<g>
		<path style="fill-rule:evenodd;clip-rule:evenodd;fill:#CCCCCC;" d="M30.213,18.67C30.715,17.549,31,16.309,31,15
			c0-4.971-4.029-9-9-9c-3.305,0-6.185,1.786-7.75,4.44C13.555,10.158,12.796,10,12,10c-2.618,0-4.838,1.679-5.657,4.018
			C6.229,14.011,6.115,14,6,14c-3.313,0-6,2.686-6,6c0,3.313,2.687,6,6,6h22c2.209,0,4-1.791,4-4
			C32,20.609,31.289,19.387,30.213,18.67z"/>
	</g>
</g>
<g id="Star_4_">
	<g>
		<path style="fill:#FFCC66;" d="M7.978,3.021c-0.05-0.164-0.18-0.285-0.34-0.317l-2.18-0.438L4.388,0.24C4.31,0.092,4.161,0,4,0
			S3.69,0.092,3.612,0.24L2.541,2.267L0.362,2.704c-0.16,0.032-0.291,0.153-0.341,0.317S0.011,3.365,0.122,3.49l1.515,1.688
			L1.361,7.47C1.342,7.64,1.41,7.808,1.54,7.908C1.617,7.969,1.71,8,1.803,8C1.866,8,1.93,7.985,1.989,7.956L4,6.972l2.01,0.984
			C6.07,7.985,6.134,8,6.197,8C6.29,8,6.382,7.969,6.46,7.908C6.59,7.808,6.658,7.64,6.638,7.47L6.363,5.178L7.877,3.49
			C7.989,3.365,8.027,3.186,7.978,3.021z"/>
	</g>
</g>
<g id="Hail_1_">
	<g>
		<path style="fill-rule:evenodd;clip-rule:evenodd;fill:#54BBFF;" d="M6.687,31.785c0.289-0.153,1.849-0.479,1.849-0.479
			s0.39-3.295,0.38-3.301c-0.005-0.003-2.734,1.973-2.734,1.973S6.688,31.468,6.687,31.785z M6.65,31.842
			c0.025,0.013,0.036-0.01,0.036-0.057C6.643,31.809,6.624,31.828,6.65,31.842z M24.181,29.979l0.47,1.863l1.885-0.535
			c0,0,0.39-3.295,0.38-3.301C26.91,28.003,24.181,29.979,24.181,29.979z M15.65,31.842l1.885-0.535c0,0,0.39-3.295,0.38-3.301
			c-0.005-0.003-2.734,1.973-2.734,1.973L15.65,31.842z"/>
	</g>
</g>
<g>
</g>
<g>
</g>
<g>
</g>
<g>
</g>
<g>
</g>
<g>
</g>
<g>
</g>
<g>
</g>
<g>
</g>
<g>
</g>
<g>
</g>
<g>
</g>
<g>
</g>
<g>
</g>
<g>
</g>
</svg>
