<?xml version="1.0" encoding="iso-8859-1"?>
<!-- Generator: Adobe Illustrator 16.0.0, SVG Export Plug-In . SVG Version: 6.00 Build 0)  -->
<!DOCTYPE svg PUBLIC "-//W3C//DTD SVG 1.1//EN" "http://www.w3.org/Graphics/SVG/1.1/DTD/svg11.dtd">
<svg version="1.1" id="Layer_1" xmlns="http://www.w3.org/2000/svg" xmlns:xlink="http://www.w3.org/1999/xlink" x="0px" y="0px"
	 width="33px" height="32px" viewBox="0 0 33 32" style="enable-background:new 0 0 33 32;" xml:space="preserve">
<g id="Cloud_9_">
	<g>
		<path style="fill-rule:evenodd;clip-rule:evenodd;fill:#999999;" d="M17.125,0c-2.273,0-4.254,1.252-5.33,3.11
			C11.317,2.914,10.797,2.8,10.25,2.8c-1.801,0-3.316,1.183-3.879,2.82C6.289,5.615,6.209,5.6,6.125,5.6C3.847,5.6,2,7.48,2,9.8
			c0,0.968,0.335,1.845,0.876,2.553c1.075-0.786,2.381-1.271,3.8-1.336C7.796,8.645,10.202,7,13,7c0.636,0,1.248,0.092,1.834,0.251
			c1.703-2.409,4.44-4.036,7.572-4.221C21.32,1.216,19.364,0,17.125,0z"/>
	</g>
</g>
<g id="Cloud_10_">
	<g>
		<path style="fill-rule:evenodd;clip-rule:evenodd;fill:#CCCCCC;" d="M31.213,18.67C31.715,17.549,32,16.309,32,15
			c0-4.971-4.029-9-9-9c-3.305,0-6.185,1.786-7.75,4.44C14.555,10.158,13.796,10,13,10c-2.618,0-4.838,1.679-5.657,4.018
			C7.229,14.011,7.115,14,7,14c-3.313,0-6,2.686-6,6c0,3.313,2.687,6,6,6h22c2.209,0,4-1.791,4-4
			C33,20.609,32.289,19.387,31.213,18.67z"/>
	</g>
</g>
<g id="Wind_9_">
	<g>
		<path style="fill-rule:evenodd;clip-rule:evenodd;fill:#48A0DC;" d="M9,24h4c0.553,0,1-0.448,1-1c0-0.553-0.447-1-1-1H9
			c-0.553,0-1,0.447-1,1C8,23.552,8.447,24,9,24z M20,26H9c-0.553,0-1,0.447-1,1s0.447,1,1,1h8.184H20c0.552,0,1,0.447,1,1
			s-0.448,1-1,1c-0.553,0-1,0.447-1,1c0,0.552,0.447,1,1,1c1.656,0,3-1.344,3-3C23,27.343,21.656,26,20,26z M24,18
			c-0.553,0-1,0.447-1,1s0.447,1,1,1c0.552,0,1,0.447,1,1s-0.448,1-1,1h-2.816H17c-0.553,0-1,0.447-1,1c0,0.552,0.447,1,1,1h7
			c1.657,0,3-1.344,3-3C27,19.343,25.657,18,24,18z"/>
	</g>
</g>
<g>
</g>
<g>
</g>
<g>
</g>
<g>
</g>
<g>
</g>
<g>
</g>
<g>
</g>
<g>
</g>
<g>
</g>
<g>
</g>
<g>
</g>
<g>
</g>
<g>
</g>
<g>
</g>
<g>
</g>
</svg>
