<?xml version="1.0" encoding="iso-8859-1"?>
<!-- Generator: Adobe Illustrator 16.0.0, SVG Export Plug-In . SVG Version: 6.00 Build 0)  -->
<!DOCTYPE svg PUBLIC "-//W3C//DTD SVG 1.1//EN" "http://www.w3.org/Graphics/SVG/1.1/DTD/svg11.dtd">
<svg version="1.1" id="Layer_1" xmlns="http://www.w3.org/2000/svg" xmlns:xlink="http://www.w3.org/1999/xlink" x="0px" y="0px"
	 width="32px" height="26.842px" viewBox="0 0 32 26.842" style="enable-background:new 0 0 32 26.842;" xml:space="preserve">
<g id="Cloud_52_">
	<g>
		<path style="fill-rule:evenodd;clip-rule:evenodd;fill:#CCCCCC;" d="M30.212,12.67C30.714,11.549,31,10.309,31,9
			c0-4.971-4.03-9-9-9c-3.304,0-6.185,1.786-7.75,4.44C13.555,4.158,12.796,4,12,4C9.382,4,7.162,5.679,6.342,8.018
			C6.229,8.011,6.116,8,6,8c-3.314,0-6,2.686-6,6c0,3.313,2.686,6,6,6h22c2.209,0,4-1.791,4-4C32,14.609,31.289,13.387,30.212,12.67
			z"/>
	</g>
</g>
<g id="Hail_7_">
	<g>
		<path style="fill-rule:evenodd;clip-rule:evenodd;fill:#54BBFF;" d="M4.65,26.842l1.884-0.535l0.38-3.301l-2.734,1.973
			L4.65,26.842z M22.181,24.979l0.469,1.863l1.884-0.535l0.38-3.301L22.181,24.979z M13.65,26.842l1.884-0.535
			c0,0,0.39-3.295,0.38-3.301c-0.005-0.003-2.734,1.973-2.734,1.973L13.65,26.842z"/>
	</g>
</g>
<g>
</g>
<g>
</g>
<g>
</g>
<g>
</g>
<g>
</g>
<g>
</g>
<g>
</g>
<g>
</g>
<g>
</g>
<g>
</g>
<g>
</g>
<g>
</g>
<g>
</g>
<g>
</g>
<g>
</g>
</svg>
