<?xml version="1.0" encoding="iso-8859-1"?>
<!-- Generator: Adobe Illustrator 16.0.0, SVG Export Plug-In . SVG Version: 6.00 Build 0)  -->
<!DOCTYPE svg PUBLIC "-//W3C//DTD SVG 1.1//EN" "http://www.w3.org/Graphics/SVG/1.1/DTD/svg11.dtd">
<svg version="1.1" id="Layer_1" xmlns="http://www.w3.org/2000/svg" xmlns:xlink="http://www.w3.org/1999/xlink" x="0px" y="0px"
	 width="42px" height="43px" viewBox="0 0 42 43" style="enable-background:new 0 0 42 43;" xml:space="preserve">
<g id="Cloud_3_">
	<g>
		<path style="fill-rule:evenodd;clip-rule:evenodd;fill:#CCCCCC;" d="M30.548,31.136c0.408-0.897,0.64-1.889,0.64-2.936
			c0-3.977-3.274-7.2-7.313-7.2c-2.686,0-5.027,1.43-6.298,3.555c-0.565-0.226-1.18-0.355-1.827-0.355
			c-2.13,0-3.922,1.354-4.586,3.229c-0.098-0.005-0.19-0.028-0.289-0.028C8.183,27.4,6,29.549,6,32.199C6,34.851,8.183,37,10.875,37
			H28.75c1.795,0,3.25-1.433,3.25-3.2C32,32.688,31.422,31.709,30.548,31.136z"/>
	</g>
</g>
<g id="Cloud_4_">
	<g>
		<path style="fill-rule:evenodd;clip-rule:evenodd;fill:#999999;" d="M6.945,25.113c-0.553-0.604-1.061-1.247-1.509-1.935
			C2.713,23.84,0.688,26.326,0.688,29.3c0,0.916,0.197,1.783,0.544,2.567C0.49,32.369,0,33.226,0,34.199C0,35.746,1.231,37,2.75,37
			h2.011C3.661,35.63,3,33.894,3,32C3,29.063,4.586,26.503,6.945,25.113z"/>
	</g>
</g>
<g id="Moon_2_">
	<g>
		<path style="fill-rule:evenodd;clip-rule:evenodd;fill:#666666;" d="M17.264,11.389C13.073,12.58,10,16.427,10,21
			c0,0.688,0.09,1.353,0.226,2h0.468c1.518-1.177,3.396-1.905,5.447-1.983c0.661-0.65,1.409-1.212,2.224-1.67
			c-0.938-1.52-1.489-3.304-1.489-5.222C16.875,13.175,17.016,12.259,17.264,11.389z"/>
	</g>
</g>
<g id="Wind_5_">
	<g>
		<path style="fill-rule:evenodd;clip-rule:evenodd;fill:#48A0DC;" d="M14,35h4c0.552,0,1-0.447,1-1s-0.448-1-1-1h-4
			c-0.552,0-1,0.447-1,1S13.448,35,14,35z M25,37H14c-0.552,0-1,0.447-1,1c0,0.552,0.448,1,1,1h8.184H25c0.552,0,1,0.447,1,1
			c0,0.552-0.448,1-1,1s-1,0.447-1,1c0,0.552,0.448,1,1,1c1.657,0,3-1.344,3-3C28,38.343,26.657,37,25,37z M29,29
			c-0.552,0-1,0.447-1,1c0,0.552,0.448,1,1,1s1,0.447,1,1c0,0.552-0.448,1-1,1h-2.816H22c-0.552,0-1,0.447-1,1s0.448,1,1,1h7
			c1.657,0,3-1.344,3-3C32,30.343,30.657,29,29,29z"/>
	</g>
</g>
<g>
</g>
<g>
</g>
<g>
</g>
<g>
</g>
<g>
</g>
<g>
</g>
<g>
</g>
<g>
</g>
<g>
</g>
<g>
</g>
<g>
</g>
<g>
</g>
<g>
</g>
<g>
</g>
<g>
</g>
</svg>
