<?xml version="1.0" encoding="iso-8859-1"?>
<!-- Generator: Adobe Illustrator 16.0.0, SVG Export Plug-In . SVG Version: 6.00 Build 0)  -->
<!DOCTYPE svg PUBLIC "-//W3C//DTD SVG 1.1//EN" "http://www.w3.org/Graphics/SVG/1.1/DTD/svg11.dtd">
<svg version="1.1" id="Layer_1" xmlns="http://www.w3.org/2000/svg" xmlns:xlink="http://www.w3.org/1999/xlink" x="0px" y="0px"
	 width="38px" height="38.875px" viewBox="0 0 38 38.875" style="enable-background:new 0 0 38 38.875;" xml:space="preserve">
<g id="Moon_7_">
	<g>
		<path style="fill-rule:evenodd;clip-rule:evenodd;fill:#666666;" d="M5.951,18.875c1.289-2.588,3.781-4.466,6.751-4.896
			c-0.53-1.22-0.828-2.563-0.828-3.979c0-0.95,0.141-1.866,0.389-2.736C8.072,8.455,5,12.302,5,16.875c0,0.688,0.083,1.354,0.221,2
			H5.951z"/>
	</g>
</g>
<g id="Cloud_25_">
	<g>
		<path style="fill-rule:evenodd;clip-rule:evenodd;fill:#999999;" d="M32.212,25.545C32.714,24.423,33,23.184,33,21.875
			c0-4.971-4.029-9-9-9c-3.304,0-6.185,1.786-7.75,4.44c-0.695-0.282-1.454-0.44-2.25-0.44c-2.618,0-4.838,1.679-5.658,4.018
			C8.229,20.886,8.116,20.875,8,20.875c-3.313,0-6,2.686-6,6c0,3.313,2.687,6,6,6h22c2.209,0,4-1.791,4-4
			C34,27.484,33.289,26.262,32.212,25.545z"/>
	</g>
</g>
<g id="Lightning_2_">
	<g>
		<polygon style="fill:#FFCC66;" points="23,28.875 20,28.875 22.263,19.875 13,30.875 16,30.875 15,38.875 		"/>
	</g>
</g>
<g>
</g>
<g>
</g>
<g>
</g>
<g>
</g>
<g>
</g>
<g>
</g>
<g>
</g>
<g>
</g>
<g>
</g>
<g>
</g>
<g>
</g>
<g>
</g>
<g>
</g>
<g>
</g>
<g>
</g>
</svg>
