<?xml version="1.0" encoding="iso-8859-1"?>
<!-- Generator: Adobe Illustrator 16.0.0, SVG Export Plug-In . SVG Version: 6.00 Build 0)  -->
<!DOCTYPE svg PUBLIC "-//W3C//DTD SVG 1.1//EN" "http://www.w3.org/Graphics/SVG/1.1/DTD/svg11.dtd">
<svg version="1.1" id="Layer_1" xmlns="http://www.w3.org/2000/svg" xmlns:xlink="http://www.w3.org/1999/xlink" x="0px" y="0px"
	 width="32px" height="31.994px" viewBox="0 0 32 31.994" style="enable-background:new 0 0 32 31.994;" xml:space="preserve">
<g id="Label_2_">
	<g>
		<path style="fill:#CCCCCC;" d="M30,0H2C0.896,0,0,0.896,0,2v27.994c0,1.104,0.896,2,2,2h28c1.104,0,2-0.896,2-2V2
			C32,0.896,31.104,0,30,0z"/>
	</g>
</g>
<g id="H_1_">
	<g>
		<path style="fill-rule:evenodd;clip-rule:evenodd;fill:#FFFFFF;" d="M13,4.03c-0.552,0-1,0.447-1,0.999v2.995H9V5.029
			C9,4.478,8.552,4.03,8,4.03S7,4.478,7,5.029v7.987c0,0.552,0.448,0.998,1,0.998s1-0.446,1-0.998v-2.995h3v2.995
			c0,0.552,0.448,0.998,1,0.998s1-0.446,1-0.998V5.029C14,4.478,13.552,4.03,13,4.03z"/>
	</g>
</g>
<g id="A">
	<g>
		<path style="fill-rule:evenodd;clip-rule:evenodd;fill:#FFFFFF;" d="M24.929,12.592l-2.88-7.853
			c-0.12-0.328-0.395-0.542-0.709-0.63c-0.015-0.006-0.025-0.019-0.04-0.024c-0.05-0.019-0.101-0.013-0.151-0.022
			c-0.016-0.002-0.031-0.007-0.047-0.008c-0.487-0.076-0.976,0.179-1.151,0.658l-2.88,7.9c-0.199,0.546,0.083,1.148,0.629,1.348
			c0.546,0.198,1.15-0.083,1.349-0.629l0.479-1.313h2.951l0.472,1.287c0.199,0.542,0.803,0.821,1.349,0.624
			C24.846,13.733,25.128,13.133,24.929,12.592z M20.256,10.021l0.743-2.037l0.748,2.037H20.256z"/>
	</g>
</g>
<g id="Z">
	<g>
		<path style="fill-rule:evenodd;clip-rule:evenodd;fill:#FFFFFF;" d="M12,24.998H9.614l3.252-6.475
			c0.016-0.027,0.016-0.058,0.029-0.086c0.022-0.045,0.033-0.094,0.048-0.143c0.021-0.075,0.041-0.147,0.045-0.224
			C12.989,18.05,13,18.031,13,18.009c0-0.046-0.02-0.084-0.026-0.128c-0.009-0.061-0.016-0.119-0.036-0.177
			c-0.025-0.076-0.061-0.143-0.102-0.209c-0.024-0.04-0.047-0.078-0.078-0.114c-0.057-0.069-0.124-0.124-0.198-0.176
			c-0.023-0.016-0.037-0.04-0.062-0.055c-0.013-0.008-0.027-0.007-0.04-0.014c-0.076-0.04-0.158-0.063-0.244-0.082
			c-0.047-0.011-0.093-0.025-0.141-0.028c-0.026-0.002-0.049-0.016-0.076-0.016H8c-0.552,0-1,0.446-1,0.998s0.448,0.999,1,0.999
			h2.385l-3.251,6.475c-0.016,0.027-0.016,0.059-0.029,0.087c-0.021,0.044-0.032,0.091-0.047,0.139
			c-0.022,0.076-0.042,0.149-0.045,0.227C7.011,25.956,7,25.975,7,25.996c0,0.045,0.02,0.083,0.025,0.126
			c0.009,0.063,0.017,0.121,0.037,0.181c0.024,0.074,0.059,0.14,0.099,0.205c0.025,0.041,0.049,0.081,0.081,0.119
			c0.057,0.067,0.123,0.121,0.195,0.172c0.024,0.018,0.038,0.042,0.063,0.057c0.013,0.008,0.027,0.007,0.04,0.014
			c0.076,0.04,0.158,0.063,0.245,0.082c0.046,0.011,0.091,0.024,0.138,0.028c0.027,0.002,0.05,0.016,0.078,0.016h4
			c0.552,0,1-0.447,1-0.999C13,25.445,12.552,24.998,12,24.998z"/>
	</g>
</g>
<g id="E">
	<g>
		<path style="fill-rule:evenodd;clip-rule:evenodd;fill:#FFFFFF;" d="M24,24.998h-5v-1.997h3c0.552,0,1-0.447,1-0.998
			c0-0.552-0.448-0.999-1-0.999h-3v-1.997h5c0.552,0,1-0.446,1-0.998s-0.447-0.999-1-0.999h-6c-0.553,0-1,0.447-1,0.999v7.987
			c0,0.552,0.447,0.999,1,0.999h6c0.552,0,1-0.447,1-0.999C25,25.445,24.552,24.998,24,24.998z"/>
	</g>
</g>
<g>
</g>
<g>
</g>
<g>
</g>
<g>
</g>
<g>
</g>
<g>
</g>
<g>
</g>
<g>
</g>
<g>
</g>
<g>
</g>
<g>
</g>
<g>
</g>
<g>
</g>
<g>
</g>
<g>
</g>
</svg>
