<?xml version="1.0" encoding="iso-8859-1"?>
<!-- Generator: Adobe Illustrator 16.0.0, SVG Export Plug-In . SVG Version: 6.00 Build 0)  -->
<!DOCTYPE svg PUBLIC "-//W3C//DTD SVG 1.1//EN" "http://www.w3.org/Graphics/SVG/1.1/DTD/svg11.dtd">
<svg version="1.1" id="Layer_1" xmlns="http://www.w3.org/2000/svg" xmlns:xlink="http://www.w3.org/1999/xlink" x="0px" y="0px"
	 width="32px" height="15.997px" viewBox="0 0 32 15.997" style="enable-background:new 0 0 32 15.997;" xml:space="preserve">
<g id="Label_4_">
	<g>
		<path style="fill:#ED7161;" d="M30,0H2C0.896,0,0,0.896,0,2v11.998c0,1.104,0.896,1.999,2,1.999h28c1.104,0,2-0.896,2-1.999V2
			C32,0.896,31.104,0,30,0z"/>
	</g>
</g>
<g id="H_2_">
	<g>
		<path style="fill-rule:evenodd;clip-rule:evenodd;fill:#FFFFFF;" d="M10,3C9.448,3,9,3.447,9,4v2.999H6V4c0-0.553-0.448-1-1-1
			C4.447,3,4,3.447,4,4v7.998c0,0.552,0.447,1,1,1c0.552,0,1-0.448,1-1V8.999h3v2.999c0,0.552,0.448,1,1,1s1-0.448,1-1V4
			C11,3.447,10.552,3,10,3z"/>
	</g>
</g>
<g id="O_1_">
	<g>
		<path style="fill-rule:evenodd;clip-rule:evenodd;fill:#FFFFFF;" d="M16.5,3C14.567,3,13,4.566,13,6.499v2.999
			c0,1.934,1.567,3.5,3.5,3.5c1.933,0,3.5-1.566,3.5-3.5V6.499C20,4.566,18.433,3,16.5,3z M18,9.498c0,0.829-0.672,1.5-1.5,1.5
			c-0.829,0-1.5-0.671-1.5-1.5V6.499c0-0.828,0.671-1.5,1.5-1.5c0.828,0,1.5,0.672,1.5,1.5V9.498z"/>
	</g>
</g>
<g id="T_1_">
	<g>
		<path style="fill-rule:evenodd;clip-rule:evenodd;fill:#FFFFFF;" d="M27,3h-4c-0.553,0-1,0.447-1,1c0,0.552,0.447,0.999,1,0.999h1
			v6.999c0,0.552,0.447,1,1,1c0.552,0,1-0.448,1-1V4.999h1c0.552,0,1-0.447,1-0.999C28,3.447,27.552,3,27,3z"/>
	</g>
</g>
<g>
</g>
<g>
</g>
<g>
</g>
<g>
</g>
<g>
</g>
<g>
</g>
<g>
</g>
<g>
</g>
<g>
</g>
<g>
</g>
<g>
</g>
<g>
</g>
<g>
</g>
<g>
</g>
<g>
</g>
</svg>
