<?xml version="1.0" encoding="iso-8859-1"?>
<!-- Generator: Adobe Illustrator 16.0.0, SVG Export Plug-In . SVG Version: 6.00 Build 0)  -->
<!DOCTYPE svg PUBLIC "-//W3C//DTD SVG 1.1//EN" "http://www.w3.org/Graphics/SVG/1.1/DTD/svg11.dtd">
<svg version="1.1" id="Layer_1" xmlns="http://www.w3.org/2000/svg" xmlns:xlink="http://www.w3.org/1999/xlink" x="0px" y="0px"
	 width="32px" height="32px" viewBox="0 0 32 32" style="enable-background:new 0 0 32 32;" xml:space="preserve">
<g id="Hurricane">
	<g>
		<path style="fill-rule:evenodd;clip-rule:evenodd;fill:#48A0DC;" d="M27,2c0-1.104-0.896-2-2-2H2C0.896,0,0,0.896,0,2s0.896,2,2,2
			h23C26.104,4,27,3.104,27,2z M30,6H8C6.896,6,6,6.896,6,8s0.896,2,2,2h22c1.104,0,2-0.896,2-2S31.104,6,30,6z M26,12H12
			c-1.104,0-2,0.896-2,2s0.896,2,2,2h14c1.104,0,2-0.896,2-2S27.104,12,26,12z M19,18H9c-1.104,0-2,0.896-2,2s0.896,2,2,2h10
			c1.104,0,2-0.896,2-2S20.104,18,19,18z M14,24h-4c-1.104,0-2,0.896-2,2s0.896,2,2,2h4c1.104,0,2-0.896,2-2S15.104,24,14,24z
			 M15,30h-2c-0.553,0-1,0.447-1,1c0,0.552,0.447,1,1,1h2c0.552,0,1-0.448,1-1C16,30.447,15.552,30,15,30z"/>
	</g>
</g>
<g>
</g>
<g>
</g>
<g>
</g>
<g>
</g>
<g>
</g>
<g>
</g>
<g>
</g>
<g>
</g>
<g>
</g>
<g>
</g>
<g>
</g>
<g>
</g>
<g>
</g>
<g>
</g>
<g>
</g>
</svg>
