<?xml version="1.0" encoding="iso-8859-1"?>
<!-- Generator: Adobe Illustrator 16.0.0, SVG Export Plug-In . SVG Version: 6.00 Build 0)  -->
<!DOCTYPE svg PUBLIC "-//W3C//DTD SVG 1.1//EN" "http://www.w3.org/Graphics/SVG/1.1/DTD/svg11.dtd">
<svg version="1.1" id="Layer_1" xmlns="http://www.w3.org/2000/svg" xmlns:xlink="http://www.w3.org/1999/xlink" x="0px" y="0px"
	 width="32px" height="31.961px" viewBox="0 0 32 31.961" style="enable-background:new 0 0 32 31.961;" xml:space="preserve">
<g id="Shape_1">
	<g>
		<path style="fill-rule:evenodd;clip-rule:evenodd;fill:#ED7161;" d="M32,0.024c0,0-23.149-1.195-25.589,13.33
			c-0.195,0.816-0.31,1.663-0.31,2.538c0,2.811,1.075,5.365,2.827,7.3C14.148,30.611,0,31.948,0,31.948s23.048,0.869,27.321-11.753
			c0.558-1.316,0.867-2.763,0.867-4.282c0-2.857-1.101-5.451-2.89-7.406C19.989,1.107,32,0.024,32,0.024z M17,19.968
			c-2.209,0-4-1.789-4-3.996s1.791-3.996,4-3.996s4,1.789,4,3.996S19.209,19.968,17,19.968z"/>
	</g>
</g>
<g>
</g>
<g>
</g>
<g>
</g>
<g>
</g>
<g>
</g>
<g>
</g>
<g>
</g>
<g>
</g>
<g>
</g>
<g>
</g>
<g>
</g>
<g>
</g>
<g>
</g>
<g>
</g>
<g>
</g>
</svg>
