<?xml version="1.0" encoding="iso-8859-1"?>
<!-- Generator: Adobe Illustrator 16.0.0, SVG Export Plug-In . SVG Version: 6.00 Build 0)  -->
<!DOCTYPE svg PUBLIC "-//W3C//DTD SVG 1.1//EN" "http://www.w3.org/Graphics/SVG/1.1/DTD/svg11.dtd">
<svg version="1.1" id="Layer_1" xmlns="http://www.w3.org/2000/svg" xmlns:xlink="http://www.w3.org/1999/xlink" x="0px" y="0px"
	 width="32px" height="32px" viewBox="0 0 32 32" style="enable-background:new 0 0 32 32;" xml:space="preserve">
<g id="Shape_1_">
	<g>
		<path style="fill:#CCCCCC;" d="M0,5v2c0,0.552,0.447,1,1,1h30c0.553,0,1-0.448,1-1V5H0z"/>
	</g>
</g>
<g id="Icicle">
	<g>
		<path style="fill-rule:evenodd;clip-rule:evenodd;fill:#48A0DC;" d="M28,7H4C3.447,7,3,7.447,3,8c0,0.552,0.447,1,1,1h1v1
			c0,0.552,0.447,1,1,1c0.032,0,0.059-0.015,0.09-0.018L7,31c0,0.552,0.447,1,1,1c0.552,0,1-0.448,1-1l1-22l1,11
			c0,0.552,0.447,1,1,1s1-0.448,1-1l1-11l1,16c0,0.552,0.447,1,1,1s1-0.448,1-1l1-16l1,11c0,0.552,0.447,1,1,1c0.552,0,1-0.448,1-1
			l1-11l1,7c0,0.552,0.447,1,1,1c0.552,0,1-0.448,1-1l1-7h2c0.553,0,1-0.448,1-1C29,7.447,28.553,7,28,7z"/>
	</g>
</g>
<g id="Roof_1_">
	<g>
		<path style="fill:#BA594C;" d="M30,0H2C0.896,0,0,0.896,0,2v3h32V2C32,0.896,31.104,0,30,0z"/>
	</g>
</g>
<g>
</g>
<g>
</g>
<g>
</g>
<g>
</g>
<g>
</g>
<g>
</g>
<g>
</g>
<g>
</g>
<g>
</g>
<g>
</g>
<g>
</g>
<g>
</g>
<g>
</g>
<g>
</g>
<g>
</g>
</svg>
