<?xml version="1.0" encoding="iso-8859-1"?>
<!-- Generator: Adobe Illustrator 16.0.0, SVG Export Plug-In . SVG Version: 6.00 Build 0)  -->
<!DOCTYPE svg PUBLIC "-//W3C//DTD SVG 1.1//EN" "http://www.w3.org/Graphics/SVG/1.1/DTD/svg11.dtd">
<svg version="1.1" id="Layer_1" xmlns="http://www.w3.org/2000/svg" xmlns:xlink="http://www.w3.org/1999/xlink" x="0px" y="0px"
	 width="32px" height="15.997px" viewBox="0 0 32 15.997" style="enable-background:new 0 0 32 15.997;" xml:space="preserve">
<g id="Label_3_">
	<g>
		<path style="fill:#48A0DC;" d="M30,0H2C0.896,0,0,0.896,0,2v11.998c0,1.104,0.896,1.999,2,1.999h28c1.104,0,2-0.896,2-1.999V2
			C32,0.896,31.104,0,30,0z"/>
	</g>
</g>
<g id="I">
	<g>
		<path style="fill:#FFFFFF;" d="M7,3C6.448,3,6,3.447,6,4v7.998c0,0.552,0.448,1,1,1s1-0.448,1-1V4C8,3.447,7.552,3,7,3z"/>
	</g>
</g>
<g id="C">
	<g>
		<path style="fill-rule:evenodd;clip-rule:evenodd;fill:#FFFFFF;" d="M16,6.999c0.552,0,1-0.447,1-1V5.996
			C17,4.063,15.433,3,13.5,3C11.567,3,10,4.566,10,6.499v2.999c0,1.934,1.567,3.5,3.5,3.5c1.932,0,3.499-1.068,3.5-3
			c0-0.552-0.448-0.999-1-0.999s-1,0.447-1,0.999c-0.001,0.826-0.673,1-1.5,1c-0.829,0-1.5-0.671-1.5-1.5V6.499
			c0-0.828,0.671-1.5,1.5-1.5c0.828,0,1.5,0.169,1.5,0.997v0.003C15,6.552,15.448,6.999,16,6.999z"/>
	</g>
</g>
<g id="Y">
	<g>
		<path style="fill-rule:evenodd;clip-rule:evenodd;fill:#FFFFFF;" d="M26.706,3.294c-0.403-0.403-1.057-0.403-1.46,0l-2.241,2.241
			l-2.239-2.239c-0.406-0.405-1.063-0.405-1.469,0s-0.406,1.063,0,1.469L22,7.469v4.529c0,0.552,0.447,1,1,1c0.552,0,1-0.448,1-1
			V7.459l2.706-2.705C27.109,4.351,27.109,3.697,26.706,3.294z"/>
	</g>
</g>
<g>
</g>
<g>
</g>
<g>
</g>
<g>
</g>
<g>
</g>
<g>
</g>
<g>
</g>
<g>
</g>
<g>
</g>
<g>
</g>
<g>
</g>
<g>
</g>
<g>
</g>
<g>
</g>
<g>
</g>
</svg>
