<?xml version="1.0" encoding="iso-8859-1"?>
<!-- Generator: Adobe Illustrator 16.0.0, SVG Export Plug-In . SVG Version: 6.00 Build 0)  -->
<!DOCTYPE svg PUBLIC "-//W3C//DTD SVG 1.1//EN" "http://www.w3.org/Graphics/SVG/1.1/DTD/svg11.dtd">
<svg version="1.1" id="Layer_1" xmlns="http://www.w3.org/2000/svg" xmlns:xlink="http://www.w3.org/1999/xlink" x="0px" y="0px"
	 width="43px" height="43px" viewBox="0 0 43 43" style="enable-background:new 0 0 43 43;" xml:space="preserve">
<g id="Moon_14_">
	<g>
		<path style="fill-rule:evenodd;clip-rule:evenodd;fill:#CCCCCC;" d="M27,32c-8.837,0-16-7.164-16-16
			c0-1.52,0.226-2.985,0.622-4.378C4.916,13.527,0,19.683,0,27c0,8.836,7.163,16,16,16c7.316,0,13.472-4.917,15.378-11.622
			C29.985,31.774,28.52,32,27,32z"/>
	</g>
</g>
<g id="Cratter_2_">
	<g>
		<path style="fill-rule:evenodd;clip-rule:evenodd;fill:#B3B3B3;" d="M11.302,19.07C8.874,19.413,7,21.478,7,24
			c0,2.762,2.238,5,5,5c1.477,0,2.79-0.652,3.705-1.669C13.489,25.121,11.923,22.265,11.302,19.07z"/>
	</g>
</g>
<g id="Cratter_3_">
	<g>
		<circle style="fill:#B3B3B3;" cx="16" cy="36" r="2"/>
	</g>
</g>
<g id="Star_6_">
	<g>
		<path style="fill:#FFCC66;" d="M31.972,14.777c-0.062-0.205-0.225-0.357-0.425-0.397l-2.724-0.546l-1.339-2.533
			C27.387,11.115,27.201,11,27,11s-0.387,0.115-0.485,0.301l-1.338,2.533l-2.724,0.546c-0.2,0.04-0.363,0.192-0.425,0.397
			s-0.014,0.43,0.126,0.586l1.892,2.108l-0.343,2.865c-0.025,0.212,0.06,0.423,0.223,0.549C24.022,20.961,24.137,21,24.253,21
			c0.079,0,0.159-0.019,0.233-0.055L27,19.714l2.513,1.231C29.587,20.981,29.667,21,29.746,21c0.116,0,0.231-0.039,0.328-0.114
			c0.163-0.126,0.249-0.337,0.223-0.549l-0.343-2.865l1.893-2.108C31.986,15.207,32.035,14.982,31.972,14.777z"/>
	</g>
</g>
<g>
</g>
<g>
</g>
<g>
</g>
<g>
</g>
<g>
</g>
<g>
</g>
<g>
</g>
<g>
</g>
<g>
</g>
<g>
</g>
<g>
</g>
<g>
</g>
<g>
</g>
<g>
</g>
<g>
</g>
</svg>
