<?xml version="1.0" encoding="iso-8859-1"?>
<!-- Generator: Adobe Illustrator 16.0.0, SVG Export Plug-In . SVG Version: 6.00 Build 0)  -->
<!DOCTYPE svg PUBLIC "-//W3C//DTD SVG 1.1//EN" "http://www.w3.org/Graphics/SVG/1.1/DTD/svg11.dtd">
<svg version="1.1" id="Layer_1" xmlns="http://www.w3.org/2000/svg" xmlns:xlink="http://www.w3.org/1999/xlink" x="0px" y="0px"
	 width="35px" height="32px" viewBox="0 0 35 32" style="enable-background:new 0 0 35 32;" xml:space="preserve">
<g id="Moon_1_">
	<g>
		<path style="fill-rule:evenodd;clip-rule:evenodd;fill:#CCCCCC;" d="M16,0C7.163,0,0,7.163,0,16c0,8.836,7.163,16,16,16
			c2.796,0,5.412-0.738,7.698-2H16c-3.313,0-6-2.691-6-6.011c0-3.057,2.279-5.574,5.227-5.955c1.009-1.246,2.547-2.044,4.273-2.044
			c0.379,0,0.749,0.038,1.105,0.111C22.029,14.801,23.919,14,26,14c2.374,0,4.5,1.039,5.966,2.68C31.976,16.452,32,16.229,32,16
			C32,7.163,24.836,0,16,0z"/>
	</g>
</g>
<g id="Cratter_1_">
	<g>
		<path style="fill-rule:evenodd;clip-rule:evenodd;fill:#B3B3B3;" d="M26,12c-1.158,0-2.151,0.663-2.651,1.623
			C24.149,13.229,25.047,13,26,13s1.851,0.228,2.65,0.623C28.15,12.663,27.157,12,26,12z M7,18c-0.553,0-1,0.447-1,1
			c0,0.552,0.447,1,1,1c0.552,0,1-0.448,1-1C8,18.447,7.552,18,7,18z M16,23c-1.104,0-2,0.896-2,2s0.896,2,2,2s2-0.896,2-2
			S17.104,23,16,23z M17,11c0-2.762-2.238-5-5-5s-5,2.238-5,5s2.238,5,5,5S17,13.762,17,11z"/>
	</g>
</g>
<g id="Cloud">
	<g>
		<path style="fill-rule:evenodd;clip-rule:evenodd;fill:#999999;" d="M30.883,23.602c0.313-0.673,0.492-1.417,0.492-2.202
			c0-2.981-2.519-5.399-5.625-5.399c-2.066,0-3.867,1.073-4.846,2.667C20.471,18.498,19.998,18.4,19.5,18.4
			c-1.639,0-3.017,1.015-3.527,2.421c-0.075-0.004-0.146-0.021-0.223-0.021c-2.071,0-3.75,1.612-3.75,3.6
			C12,26.388,13.679,28,15.75,28H29.5c1.381,0,2.5-1.075,2.5-2.4C32,24.766,31.556,24.031,30.883,23.602z"/>
	</g>
</g>
<g>
</g>
<g>
</g>
<g>
</g>
<g>
</g>
<g>
</g>
<g>
</g>
<g>
</g>
<g>
</g>
<g>
</g>
<g>
</g>
<g>
</g>
<g>
</g>
<g>
</g>
<g>
</g>
<g>
</g>
</svg>
