<?xml version="1.0" encoding="iso-8859-1"?>
<!-- Generator: Adobe Illustrator 16.0.0, SVG Export Plug-In . SVG Version: 6.00 Build 0)  -->
<!DOCTYPE svg PUBLIC "-//W3C//DTD SVG 1.1//EN" "http://www.w3.org/Graphics/SVG/1.1/DTD/svg11.dtd">
<svg version="1.1" id="Layer_1" xmlns="http://www.w3.org/2000/svg" xmlns:xlink="http://www.w3.org/1999/xlink" x="0px" y="0px"
	 width="36px" height="32px" viewBox="0 0 36 32" style="enable-background:new 0 0 36 32;" xml:space="preserve">
<g id="Moon">
	<g>
		<path style="fill-rule:evenodd;clip-rule:evenodd;fill:#CCCCCC;" d="M20,21h-9c-1.657,0-3-1.344-3-3c0-1.657,1.343-3,3-3h1.184
			C12.072,14.686,12,14.353,12,14c0-1.657,1.343-3,3-3h5c0-3.727,2.914-6.765,6.587-6.979C23.768,1.522,20.064,0,16,0
			C7.163,0,0,7.163,0,16c0,8.836,7.163,16,16,16c4.063,0,7.759-1.523,10.571-4.021C22.906,27.756,20,24.722,20,21z"/>
	</g>
</g>
<g id="Cratter">
	<g>
		<path style="fill-rule:evenodd;clip-rule:evenodd;fill:#B3B3B3;" d="M7,18c-0.553,0-1,0.447-1,1c0,0.552,0.447,1,1,1
			c0.552,0,1-0.448,1-1C8,18.447,7.552,18,7,18z M15,11h2c0-2.762-2.239-5-5-5c-2.762,0-5,2.238-5,5c0,1.887,1.058,3.51,2.601,4.361
			C10.021,15.139,10.491,15,11,15h1.181C12.066,14.688,12,14.353,12,14C12,12.343,13.343,11,15,11z M16,23c-1.104,0-2,0.896-2,2
			s0.896,2,2,2s2-0.896,2-2S17.104,23,16,23z"/>
	</g>
</g>
<g id="Wind">
	<g>
		<path style="fill-rule:evenodd;clip-rule:evenodd;fill:#72C1F7;" d="M27.363,17H11.03C10.461,17,10,17.447,10,18
			c0,0.552,0.461,1,1.03,1h11.697h0.782h3.854c1.423,0,2.576,1.119,2.576,2.5S28.786,24,27.363,24c-1.422,0-2.575-1.119-2.575-2.5
			c0-0.553-0.462-1-1.03-1c-0.569,0-1.03,0.447-1.03,1c0,2.485,2.075,4.5,4.636,4.5S32,23.985,32,21.5S29.924,17,27.363,17z"/>
	</g>
</g>
<g id="Wind_1_">
	<g>
		<path style="fill-rule:evenodd;clip-rule:evenodd;fill:#72C1F7;" d="M27.363,6c-2.561,0-4.636,2.015-4.636,4.5
			c0,0.553,0.461,1,1.03,1c0.568,0,1.03-0.447,1.03-1c0-1.381,1.153-2.5,2.575-2.5c1.423,0,2.576,1.119,2.576,2.5
			S28.786,13,27.363,13H23.51h-0.782H15.03C14.461,13,14,13.447,14,14s0.461,1,1.03,1h12.333C29.924,15,32,12.985,32,10.5
			S29.924,6,27.363,6z"/>
	</g>
</g>
<g>
</g>
<g>
</g>
<g>
</g>
<g>
</g>
<g>
</g>
<g>
</g>
<g>
</g>
<g>
</g>
<g>
</g>
<g>
</g>
<g>
</g>
<g>
</g>
<g>
</g>
<g>
</g>
<g>
</g>
</svg>
