<?xml version="1.0" encoding="iso-8859-1"?>
<!-- Generator: Adobe Illustrator 16.0.0, SVG Export Plug-In . SVG Version: 6.00 Build 0)  -->
<!DOCTYPE svg PUBLIC "-//W3C//DTD SVG 1.1//EN" "http://www.w3.org/Graphics/SVG/1.1/DTD/svg11.dtd">
<svg version="1.1" id="Layer_1" xmlns="http://www.w3.org/2000/svg" xmlns:xlink="http://www.w3.org/1999/xlink" x="0px" y="0px"
	 width="27px" height="32px" viewBox="0 0 27 32" style="enable-background:new 0 0 27 32;" xml:space="preserve">
<g id="Smoke">
	<g>
		<path style="fill-rule:evenodd;clip-rule:evenodd;fill:#FFCC66;" d="M16.5,4c-0.612,0-1.165,0.229-1.6,0.594
			C14.959,4.405,15,4.208,15,4c0-1.104-0.896-2-2-2c-0.4,0-0.771,0.121-1.083,0.323C11.608,0.993,10.424,0,9,0
			C7.867,0,6.894,0.634,6.383,1.561C6.023,1.215,5.538,1,5,1C3.896,1,3,1.896,3,3s0.896,2,2,2c0.538,0,1.023-0.215,1.384-0.561
			c0.043,0.079,0.078,0.162,0.128,0.236C6.197,5.029,6,5.49,6,6c0,1.104,0.896,2,2,2c0.472,0,0.899-0.17,1.242-0.443
			C9.641,8.407,10.498,9,11.5,9C12.881,9,14,7.881,14,6.5c0-0.25-0.048-0.487-0.116-0.714c0.1-0.049,0.195-0.104,0.285-0.169
			C14.064,5.892,14,6.188,14,6.5C14,7.881,15.119,9,16.5,9S19,7.881,19,6.5S17.881,4,16.5,4z M1,4C0.447,4,0,4.447,0,5
			c0,0.552,0.447,1,1,1c0.552,0,1-0.448,1-1C2,4.447,1.552,4,1,4z"/>
	</g>
</g>
<g id="Plant">
	<g>
		<path style="fill:#CCCCCC;" d="M21.071,11v-1H14H6.929v1c0,0,0.589,11.25-3.929,17h11h11C20.482,22.25,21.071,11,21.071,11z"/>
	</g>
</g>
<g id="Plant_3_">
	<g>
		<path style="fill:#B3B3B3;" d="M25,28H3c-1.104,0-2,0.896-2,2s0.896,2,2,2h22c1.104,0,2-0.896,2-2S26.104,28,25,28z"/>
	</g>
</g>
<g id="Plant_2_">
	<g>
		<path style="fill:#B3B3B3;" d="M21,7H7C5.896,7,5,7.896,5,9s0.896,2,2,2h14c1.104,0,2-0.896,2-2S22.104,7,21,7z"/>
	</g>
</g>
<g>
</g>
<g>
</g>
<g>
</g>
<g>
</g>
<g>
</g>
<g>
</g>
<g>
</g>
<g>
</g>
<g>
</g>
<g>
</g>
<g>
</g>
<g>
</g>
<g>
</g>
<g>
</g>
<g>
</g>
</svg>
