<?xml version="1.0" encoding="iso-8859-1"?>
<!-- Generator: Adobe Illustrator 16.0.0, SVG Export Plug-In . SVG Version: 6.00 Build 0)  -->
<!DOCTYPE svg PUBLIC "-//W3C//DTD SVG 1.1//EN" "http://www.w3.org/Graphics/SVG/1.1/DTD/svg11.dtd">
<svg version="1.1" id="Layer_1" xmlns="http://www.w3.org/2000/svg" xmlns:xlink="http://www.w3.org/1999/xlink" x="0px" y="0px"
	 width="32px" height="32px" viewBox="0 0 32 32" style="enable-background:new 0 0 32 32;" xml:space="preserve">
<g id="Water_Drop">
	<g>
		<path style="fill:#54BBFF;" d="M5,0C4.979,0,0,5.979,0,11c0,2.485,2.238,5,5,5s5-2.515,5-5C10,6.025,5.041,0,5,0z"/>
	</g>
</g>
<g id="Water_Drop_4_">
	<g>
		<path style="fill:#54BBFF;" d="M27,0c-0.021,0-5,5.979-5,11c0,2.485,2.238,5,5,5s5-2.515,5-5C32,6.025,27.041,0,27,0z"/>
	</g>
</g>
<g id="Water_Drop_2_">
	<g>
		<path style="fill:#48A0DC;" d="M16,10c-0.029,0-7,8.222-7,15.125C9,28.542,12.134,32,16,32s7-3.458,7-6.875
			C23,18.285,16.057,10,16,10z"/>
	</g>
</g>
<g>
</g>
<g>
</g>
<g>
</g>
<g>
</g>
<g>
</g>
<g>
</g>
<g>
</g>
<g>
</g>
<g>
</g>
<g>
</g>
<g>
</g>
<g>
</g>
<g>
</g>
<g>
</g>
<g>
</g>
</svg>
