<?xml version="1.0" encoding="iso-8859-1"?>
<!-- Generator: Adobe Illustrator 16.0.0, SVG Export Plug-In . SVG Version: 6.00 Build 0)  -->
<!DOCTYPE svg PUBLIC "-//W3C//DTD SVG 1.1//EN" "http://www.w3.org/Graphics/SVG/1.1/DTD/svg11.dtd">
<svg version="1.1" id="Layer_1" xmlns="http://www.w3.org/2000/svg" xmlns:xlink="http://www.w3.org/1999/xlink" x="0px" y="0px"
	 width="32px" height="32px" viewBox="0 0 32 32" style="enable-background:new 0 0 32 32;" xml:space="preserve">
<g id="Rainbow">
	<g>
		<path style="fill-rule:evenodd;clip-rule:evenodd;fill:#387AA7;" d="M16,5C9.925,5,5,9.925,5,16h3.012
			c0-4.412,3.576-7.988,7.988-7.988s7.988,3.576,7.988,7.988H27C27,9.925,22.075,5,16,5z"/>
	</g>
</g>
<g id="Rainbow_9_">
	<g>
		<path style="fill-rule:evenodd;clip-rule:evenodd;fill:#88C057;" d="M16,3C8.82,3,3,8.82,3,16h3.006
			c0-5.52,4.475-9.994,9.994-9.994S25.994,10.48,25.994,16H29C29,8.82,23.18,3,16,3z"/>
	</g>
</g>
<g id="Rainbow_2_">
	<g>
		<path style="fill-rule:evenodd;clip-rule:evenodd;fill:#FFCC66;" d="M16,1C7.716,1,1,7.716,1,16h3C4,9.372,9.372,4,16,4
			c6.627,0,12,5.372,12,12h3C31,7.716,24.284,1,16,1z"/>
	</g>
</g>
<g id="Rainbow_3_">
	<g>
		<path style="fill-rule:evenodd;clip-rule:evenodd;fill:#ED7161;" d="M16,0C7.163,0,0,7.163,0,16h2C2,8.268,8.268,2,16,2
			s14,6.268,14,14h2C32,7.163,24.837,0,16,0z"/>
	</g>
</g>
<g>
</g>
<g>
</g>
<g>
</g>
<g>
</g>
<g>
</g>
<g>
</g>
<g>
</g>
<g>
</g>
<g>
</g>
<g>
</g>
<g>
</g>
<g>
</g>
<g>
</g>
<g>
</g>
<g>
</g>
</svg>
