<?xml version="1.0" encoding="iso-8859-1"?>
<!-- Generator: Adobe Illustrator 16.0.0, SVG Export Plug-In . SVG Version: 6.00 Build 0)  -->
<!DOCTYPE svg PUBLIC "-//W3C//DTD SVG 1.1//EN" "http://www.w3.org/Graphics/SVG/1.1/DTD/svg11.dtd">
<svg version="1.1" id="Layer_1" xmlns="http://www.w3.org/2000/svg" xmlns:xlink="http://www.w3.org/1999/xlink" x="0px" y="0px"
	 width="27.762px" height="31.999px" viewBox="0 0 27.762 31.999" style="enable-background:new 0 0 27.762 31.999;"
	 xml:space="preserve">
<g id="Slip_Marks">
	<g>
		<path style="fill-rule:evenodd;clip-rule:evenodd;fill:#CCCCCC;" d="M5.387,23.001c-2.272-3.889,1.261-7.102,1.261-7.102l-3.9-1.1
			c-5.192,5.34-1.429,10.201-1.429,10.201c4.171,5.781,1.018,6.998,1.018,6.998h10.17C12.506,27.573,8.082,27.613,5.387,23.001z
			 M17.591,31.999h10.171c0-4.426-3.933-4.7-7.119-8.998c-0.938-1.265-0.195-3.602-0.195-3.602l-3.8-1.3
			c-2.301,3.497-0.073,6.901-0.073,6.901C20.745,30.782,17.591,31.999,17.591,31.999z"/>
	</g>
</g>
<g id="Tiers">
	<g>
		<path style="fill-rule:evenodd;clip-rule:evenodd;fill:#4D4D4D;" d="M6.801,11.584l-1.976-0.513
			c-0.545-0.143-1.106,0.172-1.252,0.701l-0.794,2.875c-0.146,0.529,0.177,1.073,0.723,1.215l1.976,0.514
			c0.546,0.142,1.106-0.173,1.252-0.702L7.524,12.8C7.67,12.271,7.347,11.727,6.801,11.584z M20.629,15.179l-1.976-0.514
			c-0.545-0.142-1.105,0.173-1.252,0.702l-0.794,2.874c-0.146,0.529,0.178,1.074,0.723,1.216l1.976,0.513
			c0.546,0.143,1.106-0.172,1.253-0.701l0.794-2.874C21.499,15.865,21.175,15.321,20.629,15.179z"/>
	</g>
</g>
<g id="Car">
	<g>
		<path style="fill:#3E87B9;" d="M21.362,3.056L9.977,0.085c-1.091-0.283-1.79,0.134-2.505,1.403L5.426,5.064
			C5.134,6.123,5.78,7.211,6.872,7.494l13.387,3.439c1.066,0.282,2.162-0.343,2.447-1.396l0.069-4.066
			C22.77,4.183,22.429,3.337,21.362,3.056z"/>
	</g>
</g>
<g id="Window">
	<g>
		<path style="fill:#FFFFFF;" d="M19.325,4.569l-7.902-2.054c-1.091-0.284-1.79,0.133-2.505,1.403L6.872,7.494
			C6.579,8.553,7.227,9.642,8.318,9.925l9.877,2.567c1.091,0.284,2.213-0.345,2.505-1.403l0.07-4.09
			C20.766,5.703,20.416,4.853,19.325,4.569z"/>
	</g>
</g>
<g id="Car_1_">
	<g>
		<path style="fill-rule:evenodd;clip-rule:evenodd;fill:#48A0DC;" d="M23.205,9.687L5.426,5.064
			C4.335,4.781,3.213,5.409,2.921,6.468l-1.059,3.833l-0.529,1.916l1.975,0.514c0.001,0,0.001,0,0.001,0l8.89,2.312l10.865,2.824
			l0.794-2.875l0,0l0.794-2.875C24.943,11.058,24.296,9.97,23.205,9.687z"/>
	</g>
</g>
<g id="Bumper">
	<g>
		<polygon style="fill:#6BBCF3;" points="2.921,6.468 1.333,12.217 23.063,17.866 24.651,12.116 		"/>
	</g>
</g>
<g id="Tail_Lights">
	<g>
		<path style="fill-rule:evenodd;clip-rule:evenodd;fill:#FFFFFF;" d="M7.595,8.71L5.619,8.196C5.074,8.054,4.513,8.368,4.367,8.897
			C4.221,9.427,4.545,9.971,5.09,10.112l1.976,0.514c0.546,0.142,1.106-0.172,1.253-0.701C8.464,9.396,8.141,8.852,7.595,8.71z
			 M21.423,12.304l-1.975-0.513c-0.546-0.142-1.106,0.172-1.253,0.701s0.178,1.073,0.724,1.215l1.975,0.514
			c0.546,0.142,1.106-0.172,1.253-0.701C22.292,12.99,21.969,12.446,21.423,12.304z"/>
	</g>
</g>
<g>
</g>
<g>
</g>
<g>
</g>
<g>
</g>
<g>
</g>
<g>
</g>
<g>
</g>
<g>
</g>
<g>
</g>
<g>
</g>
<g>
</g>
<g>
</g>
<g>
</g>
<g>
</g>
<g>
</g>
</svg>
