<?xml version="1.0" encoding="iso-8859-1"?>
<!-- Generator: Adobe Illustrator 16.0.0, SVG Export Plug-In . SVG Version: 6.00 Build 0)  -->
<!DOCTYPE svg PUBLIC "-//W3C//DTD SVG 1.1//EN" "http://www.w3.org/Graphics/SVG/1.1/DTD/svg11.dtd">
<svg version="1.1" id="Layer_1" xmlns="http://www.w3.org/2000/svg" xmlns:xlink="http://www.w3.org/1999/xlink" x="0px" y="0px"
	 width="32px" height="29.995px" viewBox="0 0 32 29.995" style="enable-background:new 0 0 32 29.995;" xml:space="preserve">
<g id="Smog">
	<g>
		<path style="fill-rule:evenodd;clip-rule:evenodd;fill:#999999;" d="M1,2h30c0.552,0,1-0.447,1-1c0-0.552-0.448-1-1-1H1
			C0.447,0,0,0.448,0,1C0,1.553,0.447,2,1,2z M31,7.999H1c-0.553,0-1,0.447-1,1c0,0.552,0.447,0.999,1,0.999h30
			c0.552,0,1-0.447,1-0.999C32,8.446,31.552,7.999,31,7.999z M31,15.997H1c-0.553,0-1,0.448-1,1c0,0.553,0.447,1,1,1h30
			c0.552,0,1-0.447,1-1C32,16.445,31.552,15.997,31,15.997z M31,23.996H1c-0.553,0-1,0.447-1,0.999c0,0.553,0.447,1,1,1h30
			c0.552,0,1-0.447,1-1C32,24.443,31.552,23.996,31,23.996z"/>
	</g>
</g>
<g id="Smog_1_">
	<g>
		<path style="fill-rule:evenodd;clip-rule:evenodd;fill:#CCCCCC;" d="M1,5.999h30c0.552,0,1-0.447,1-1C32,4.447,31.552,4,31,4H1
			C0.447,4,0,4.447,0,4.999C0,5.552,0.447,5.999,1,5.999z M31,11.998H1c-0.553,0-1,0.447-1,1c0,0.552,0.447,1,1,1h30
			c0.552,0,1-0.448,1-1C32,12.445,31.552,11.998,31,11.998z M31,19.997H1c-0.553,0-1,0.447-1,0.999c0,0.553,0.447,1,1,1h30
			c0.552,0,1-0.447,1-1C32,20.444,31.552,19.997,31,19.997z M31,27.995H1c-0.553,0-1,0.447-1,1c0,0.552,0.447,1,1,1h30
			c0.552,0,1-0.448,1-1C32,28.442,31.552,27.995,31,27.995z"/>
	</g>
</g>
<g>
</g>
<g>
</g>
<g>
</g>
<g>
</g>
<g>
</g>
<g>
</g>
<g>
</g>
<g>
</g>
<g>
</g>
<g>
</g>
<g>
</g>
<g>
</g>
<g>
</g>
<g>
</g>
<g>
</g>
</svg>
