<?xml version="1.0" encoding="iso-8859-1"?>
<!-- Generator: Adobe Illustrator 16.0.0, SVG Export Plug-In . SVG Version: 6.00 Build 0)  -->
<!DOCTYPE svg PUBLIC "-//W3C//DTD SVG 1.1//EN" "http://www.w3.org/Graphics/SVG/1.1/DTD/svg11.dtd">
<svg version="1.1" id="Layer_1" xmlns="http://www.w3.org/2000/svg" xmlns:xlink="http://www.w3.org/1999/xlink" x="0px" y="0px"
	 width="32.013px" height="32.002px" viewBox="0 0 32.013 32.002" style="enable-background:new 0 0 32.013 32.002;"
	 xml:space="preserve">
<g id="Snowflake_13_">
	<g>
		<path style="fill-rule:evenodd;clip-rule:evenodd;fill:#54BBFF;" d="M28.949,17.999h1.048c1.104,0,2-0.895,2-1.998
			s-0.896-1.998-2-1.998h-1.079l2.49-2.485c0.808-0.807,0.808-2.114,0-2.921c-0.808-0.806-2.118-0.806-2.926,0l-5.415,5.406h-1.417
			c-0.068-0.192-0.148-0.378-0.235-0.561l5.985-5.98c0.788-0.788,0.788-2.064,0-2.852c-0.788-0.788-2.066-0.788-2.854,0l-5.985,5.98
			c-0.183-0.086-0.369-0.167-0.562-0.235V8.937l5.409-5.405c0.809-0.809,0.809-2.118,0-2.926c-0.809-0.809-2.12-0.809-2.929,0
			l-2.48,2.479v-1.07c0-1.104-0.896-1.998-2-1.998c-1.104,0-2,0.895-2,1.998v1.07l-2.48-2.479c-0.809-0.809-2.12-0.809-2.929,0
			c-0.809,0.808-0.809,2.117,0,2.926l5.409,5.405v1.418c-0.199,0.07-0.392,0.153-0.58,0.243L7.514,4.698
			c-0.781-0.78-2.047-0.78-2.828,0c-0.781,0.78-0.781,2.045,0,2.825l5.905,5.9c-0.09,0.188-0.173,0.381-0.243,0.58H8.941
			L3.546,8.627c-0.808-0.805-2.118-0.805-2.926,0c-0.808,0.805-0.808,2.11,0,2.915l2.47,2.461H2c-1.104,0-2,0.895-2,1.998
			s0.896,1.998,2,1.998H3.09l-2.47,2.461c-0.808,0.805-0.808,2.109,0,2.915c0.808,0.805,2.118,0.805,2.926,0l5.395-5.376h1.406
			c0.068,0.192,0.148,0.378,0.235,0.561l-6.017,6.011c-0.788,0.788-0.788,2.064,0,2.852c0.788,0.788,2.066,0.788,2.854,0
			l6.017-6.011c0.183,0.087,0.37,0.167,0.562,0.235v1.438L8.619,28.47c-0.807,0.808-0.807,2.118,0,2.926
			c0.807,0.809,2.116,0.809,2.923,0l2.456-2.459v1.051c0,1.104,0.896,1.998,2,1.998c1.104,0,2-0.895,2-1.998v-1.082l2.487,2.49
			c0.807,0.809,2.116,0.809,2.923,0c0.807-0.808,0.807-2.118,0-2.926l-5.411-5.416v-1.407c0.199-0.07,0.391-0.153,0.58-0.243
			l5.905,5.9c0.781,0.78,2.047,0.78,2.829,0c0.781-0.78,0.781-2.046,0-2.826l-5.905-5.899c0.09-0.188,0.172-0.381,0.243-0.579h1.449
			l5.383,5.375c0.808,0.806,2.118,0.806,2.926,0c0.808-0.807,0.808-2.115,0-2.921L28.949,17.999z M15.998,17.999
			c-1.104,0-2-0.895-2-1.998s0.896-1.998,2-1.998c1.104,0,2,0.895,2,1.998S17.103,17.999,15.998,17.999z"/>
	</g>
</g>
<g>
</g>
<g>
</g>
<g>
</g>
<g>
</g>
<g>
</g>
<g>
</g>
<g>
</g>
<g>
</g>
<g>
</g>
<g>
</g>
<g>
</g>
<g>
</g>
<g>
</g>
<g>
</g>
<g>
</g>
</svg>
