<?xml version="1.0" encoding="iso-8859-1"?>
<!-- Generator: Adobe Illustrator 16.0.0, SVG Export Plug-In . SVG Version: 6.00 Build 0)  -->
<!DOCTYPE svg PUBLIC "-//W3C//DTD SVG 1.1//EN" "http://www.w3.org/Graphics/SVG/1.1/DTD/svg11.dtd">
<svg version="1.1" id="Layer_1" xmlns="http://www.w3.org/2000/svg" xmlns:xlink="http://www.w3.org/1999/xlink" x="0px" y="0px"
	 width="32px" height="31.969px" viewBox="0 0 32 31.969" style="enable-background:new 0 0 32 31.969;" xml:space="preserve">
<g id="Snowflake_11_">
	<g>
		<path style="fill-rule:evenodd;clip-rule:evenodd;fill:#999999;" d="M22.304,19.46l-3.486-3.486l3.485-3.485
			c0.781-0.781,0.786-2.043,0.011-2.817c-0.774-0.775-2.036-0.771-2.817,0.011l-3.485,3.485L12.524,9.68
			c-0.78-0.779-2.041-0.784-2.816-0.009c-0.774,0.774-0.771,2.035,0.01,2.815l3.487,3.487L9.697,19.48
			c-0.781,0.781-0.786,2.043-0.011,2.817c0.774,0.775,2.036,0.771,2.817-0.011l3.507-3.507l3.487,3.487
			c0.78,0.78,2.041,0.784,2.815,0.01C23.089,21.501,23.084,20.24,22.304,19.46z"/>
	</g>
</g>
<g id="Snowflake_12_">
	<g>
		<path style="fill-rule:evenodd;clip-rule:evenodd;fill:#CCCCCC;" d="M30,14h-1.972l0.005-2.854
			c0.004-1.191-0.889-2.153-1.994-2.149s-2.005,0.973-2.009,2.164L24.025,14H18V8l2.854,0.005c1.191,0.004,2.153-0.889,2.149-1.992
			c-0.005-1.105-0.974-2.003-2.164-2.007L18,4.001V1.998C18,0.895,17.111,0,16.016,0s-1.984,0.895-1.984,1.998v1.996l-2.873-0.005
			C9.967,3.984,9.005,4.877,9.009,5.981c0.005,1.104,0.974,2.002,2.164,2.006l2.858,0.005V14H8.008l0.005-2.854
			c0.004-1.191-0.89-2.153-1.994-2.149C4.914,9.001,4.015,9.97,4.011,11.161L4.005,14H2c-1.104,0-2,0.889-2,1.984
			s0.896,1.984,2,1.984h1.998l-0.005,2.873c-0.004,1.19,0.89,2.153,1.995,2.148c1.105-0.004,2.004-0.973,2.008-2.163L8,17.969h6.031
			v6.025l-2.873-0.005c-1.191-0.004-2.153,0.889-2.149,1.993c0.005,1.104,0.974,2.002,2.164,2.006l2.858,0.005v1.978
			c0,1.104,0.889,1.998,1.984,1.998S18,31.074,18,29.971V28l2.854,0.005c1.191,0.004,2.153-0.889,2.149-1.993
			c-0.005-1.104-0.974-2.002-2.164-2.006L18,24.001v-6.033h6.017l-0.005,2.873c-0.004,1.19,0.89,2.153,1.995,2.148
			c1.105-0.004,2.004-0.973,2.008-2.163l0.005-2.858H30c1.104,0,2-0.889,2-1.984S31.104,14,30,14z"/>
	</g>
</g>
<g>
</g>
<g>
</g>
<g>
</g>
<g>
</g>
<g>
</g>
<g>
</g>
<g>
</g>
<g>
</g>
<g>
</g>
<g>
</g>
<g>
</g>
<g>
</g>
<g>
</g>
<g>
</g>
<g>
</g>
</svg>
