<?xml version="1.0" encoding="iso-8859-1"?>
<!-- Generator: Adobe Illustrator 16.0.0, SVG Export Plug-In . SVG Version: 6.00 Build 0)  -->
<!DOCTYPE svg PUBLIC "-//W3C//DTD SVG 1.1//EN" "http://www.w3.org/Graphics/SVG/1.1/DTD/svg11.dtd">
<svg version="1.1" id="Layer_1" xmlns="http://www.w3.org/2000/svg" xmlns:xlink="http://www.w3.org/1999/xlink" x="0px" y="0px"
	 width="27.561px" height="28.018px" viewBox="0 0 27.561 28.018" style="enable-background:new 0 0 27.561 28.018;"
	 xml:space="preserve">
<g id="Snowflake_9_">
	<g>
		<path style="fill-rule:evenodd;clip-rule:evenodd;fill:#54BBFF;" d="M12.997,4.713c0.092,0.092,0.198,0.155,0.31,0.205
			c0.039,0.018,0.079,0.027,0.121,0.04C13.499,4.979,13.571,4.994,13.646,5c0.054,0.004,0.104,0.007,0.158,0.003
			c0.063-0.005,0.124-0.02,0.187-0.036c0.056-0.014,0.111-0.022,0.164-0.046h0.001c0,0,0,0,0.001,0
			c0.04-0.014,0.077-0.033,0.115-0.052c0.1-0.046,0.196-0.102,0.278-0.185l2.924-2.921c0.403-0.403,0.403-1.057,0-1.46
			s-1.059-0.403-1.462,0l-2.243,2.241l-2.242-2.239c-0.406-0.406-1.064-0.406-1.471,0c-0.406,0.405-0.406,1.063,0,1.47L12.997,4.713
			z M14.529,23.334c-0.092-0.091-0.197-0.155-0.31-0.204c-0.039-0.018-0.078-0.027-0.119-0.039c-0.072-0.022-0.145-0.037-0.22-0.042
			c-0.053-0.004-0.104-0.007-0.157-0.003c-0.063,0.004-0.123,0.02-0.184,0.035c-0.057,0.015-0.113,0.023-0.166,0.046
			c-0.042,0.014-0.079,0.034-0.119,0.053c-0.1,0.046-0.195,0.101-0.277,0.183l-2.924,2.901c-0.403,0.401-0.403,1.051,0,1.451
			c0.403,0.401,1.058,0.401,1.462,0l2.243-2.227l2.242,2.226c0.406,0.403,1.064,0.403,1.471,0s0.406-1.058,0-1.461L14.529,23.334z
			 M5.711,18.228c-0.114-0.1-0.246-0.181-0.402-0.223l-3.993-1.069c-0.552-0.147-1.118,0.18-1.267,0.73
			c-0.147,0.551,0.18,1.116,0.731,1.265l3.064,0.82l-0.82,3.059c-0.148,0.554,0.181,1.124,0.735,1.272s1.125-0.181,1.273-0.735
			l1.077-4.014C6.225,18.904,6.051,18.473,5.711,18.228z M1.31,11.112l4.02-1.075C5.758,9.922,6.045,9.556,6.088,9.14
			C6.117,8.991,6.122,8.836,6.08,8.68L5.01,4.69C4.861,4.14,4.295,3.813,3.743,3.96c-0.551,0.147-0.878,0.714-0.73,1.265
			l0.821,3.062L0.771,9.105c-0.555,0.148-0.884,0.718-0.735,1.272C0.185,10.932,0.755,11.261,1.31,11.112z M13.764,8.009
			c-3.317,0-6.007,2.687-6.007,6s2.689,6,6.007,6s6.007-2.687,6.007-6S17.081,8.009,13.764,8.009z M16.767,15.009v1
			c0,0.552-0.448,1-1.001,1h-1.001c0,0.553-0.448,1-1.001,1s-1.001-0.447-1.001-1h-1.001c-0.553,0-1.002-0.448-1.002-1v-1
			c-0.553,0-1.001-0.448-1.001-1c0-0.553,0.448-1,1.001-1v-1c0-0.553,0.449-1,1.002-1h1.001c0-0.553,0.448-1,1.001-1
			s1.001,0.447,1.001,1h1.001c0.553,0,1.001,0.447,1.001,1v1c0.553,0,1.001,0.447,1.001,1
			C17.768,14.561,17.319,15.009,16.767,15.009z M26.242,16.938l-4.003,1.085c-0.427,0.115-0.714,0.482-0.758,0.897
			c-0.029,0.149-0.034,0.304,0.007,0.46l1.055,3.979c0.146,0.55,0.709,0.875,1.258,0.726c0.55-0.148,0.877-0.715,0.73-1.264
			l-0.809-3.055l3.05-0.827c0.553-0.149,0.883-0.72,0.736-1.272C27.361,17.114,26.795,16.787,26.242,16.938z M21.889,9.802
			c0.114,0.1,0.246,0.181,0.401,0.224l3.979,1.078c0.549,0.148,1.112-0.177,1.258-0.726c0.146-0.55-0.182-1.116-0.73-1.265
			l-3.054-0.827l0.809-3.052c0.146-0.554-0.183-1.123-0.735-1.272c-0.553-0.15-1.119,0.177-1.266,0.729l-1.061,4.005
			C21.376,9.124,21.551,9.556,21.889,9.802z"/>
	</g>
</g>
<g>
</g>
<g>
</g>
<g>
</g>
<g>
</g>
<g>
</g>
<g>
</g>
<g>
</g>
<g>
</g>
<g>
</g>
<g>
</g>
<g>
</g>
<g>
</g>
<g>
</g>
<g>
</g>
<g>
</g>
</svg>
