<?xml version="1.0" encoding="iso-8859-1"?>
<!-- Generator: Adobe Illustrator 16.0.0, SVG Export Plug-In . SVG Version: 6.00 Build 0)  -->
<!DOCTYPE svg PUBLIC "-//W3C//DTD SVG 1.1//EN" "http://www.w3.org/Graphics/SVG/1.1/DTD/svg11.dtd">
<svg version="1.1" id="Layer_1" xmlns="http://www.w3.org/2000/svg" xmlns:xlink="http://www.w3.org/1999/xlink" x="0px" y="0px"
	 width="31.99px" height="32.002px" viewBox="0 0 31.99 32.002" style="enable-background:new 0 0 31.99 32.002;"
	 xml:space="preserve">
<g id="Snowflake_14_">
	<g>
		<path style="fill-rule:evenodd;clip-rule:evenodd;fill:#54BBFF;" d="M31.919,19.038c-0.295-1.103-1.421-1.758-2.517-1.464
			l-4.632,1.243l-4.802-2.792l4.837-2.813l4.589,1.231c1.095,0.294,2.222-0.36,2.517-1.463c0.295-1.102-0.354-2.233-1.449-2.527
			l-0.843-0.226c0.461-0.621,0.54-1.483,0.13-2.196c-0.414-0.721-1.206-1.083-1.977-0.981l0.235-0.878
			c0.294-1.103-0.354-2.233-1.449-2.528c-1.095-0.294-2.222,0.361-2.517,1.464l-1.247,4.66l-4.811,2.797V6.939l3.383-3.407
			c0.802-0.809,0.802-2.118,0-2.926c-0.803-0.809-2.104-0.809-2.906,0L17.83,1.242c-0.3-0.72-1.006-1.226-1.83-1.226
			c-0.824,0-1.53,0.506-1.83,1.226l-0.631-0.636c-0.803-0.809-2.104-0.809-2.906,0c-0.802,0.808-0.802,2.117,0,2.926l3.383,3.407
			v5.626L9.193,9.761L7.955,5.107c-0.294-1.104-1.42-1.759-2.517-1.463s-1.747,1.43-1.453,2.534l0.231,0.868
			C3.447,6.949,2.659,7.312,2.247,8.03c-0.412,0.718-0.33,1.586,0.139,2.208l-0.862,0.232c-1.096,0.296-1.747,1.431-1.453,2.534
			c0.294,1.104,1.421,1.76,2.517,1.464l4.621-1.247l4.823,2.804l-4.815,2.8l-4.621-1.247c-1.097-0.296-2.223,0.359-2.517,1.463
			c-0.293,1.104,0.357,2.238,1.453,2.534l0.863,0.233c-0.469,0.622-0.551,1.49-0.139,2.208c0.412,0.718,1.2,1.081,1.969,0.983
			l-0.231,0.869c-0.294,1.104,0.356,2.238,1.453,2.534c1.096,0.296,2.223-0.359,2.517-1.463l1.238-4.653l4.815-2.8v5.598
			l-3.354,3.386c-0.801,0.808-0.801,2.118,0,2.926c0.8,0.809,2.098,0.809,2.898,0l0.616-0.622c0.303,0.712,1.005,1.211,1.824,1.211
			c0.827,0,1.534-0.51,1.832-1.234l0.638,0.644c0.8,0.809,2.098,0.809,2.898,0c0.8-0.808,0.8-2.118,0-2.926l-3.385-3.417v-5.566
			l4.83,2.808l1.235,4.617c0.295,1.103,1.421,1.757,2.517,1.463s1.744-1.425,1.449-2.527l-0.227-0.848
			c0.764,0.091,1.544-0.271,1.954-0.984c0.414-0.721,0.329-1.593-0.145-2.215l0.873-0.234C31.565,21.271,32.214,20.14,31.919,19.038
			z"/>
	</g>
</g>
<g>
</g>
<g>
</g>
<g>
</g>
<g>
</g>
<g>
</g>
<g>
</g>
<g>
</g>
<g>
</g>
<g>
</g>
<g>
</g>
<g>
</g>
<g>
</g>
<g>
</g>
<g>
</g>
<g>
</g>
</svg>
