<?xml version="1.0" encoding="iso-8859-1"?>
<!-- Generator: Adobe Illustrator 16.0.0, SVG Export Plug-In . SVG Version: 6.00 Build 0)  -->
<!DOCTYPE svg PUBLIC "-//W3C//DTD SVG 1.1//EN" "http://www.w3.org/Graphics/SVG/1.1/DTD/svg11.dtd">
<svg version="1.1" id="Layer_1" xmlns="http://www.w3.org/2000/svg" xmlns:xlink="http://www.w3.org/1999/xlink" x="0px" y="0px"
	 width="32.027px" height="32px" viewBox="0 0 32.027 32" style="enable-background:new 0 0 32.027 32;" xml:space="preserve">
<g id="Snowflake_8_">
	<g>
		<path style="fill-rule:evenodd;clip-rule:evenodd;fill:#54BBFF;" d="M31.025,15.022l-2.523-0.001l1.228-1.234
			c0.403-0.406,0.403-1.063,0-1.47c-0.404-0.406-1.059-0.407-1.462-0.001l-2.688,2.703l-7.188-0.003l5.382-5.382
			c0.021-0.02,0.041-0.04,0.062-0.061l3.483-3.483c0.39-0.391,0.39-1.024-0.001-1.415s-1.024-0.391-1.415-0.001l-1.79,1.79
			L24.11,4.717c0-0.574-0.466-1.04-1.04-1.04c-0.574-0.001-1.039,0.465-1.039,1.039l0.003,3.826l-5.035,5.035V6.014
			c0.001-0.031,0.001-0.059,0-0.09V1c0-0.553-0.448-1-1.001-1s-1.001,0.447-1.001,1v2.531l-1.236-1.235
			c-0.406-0.406-1.064-0.406-1.471,0c-0.406,0.405-0.406,1.063,0,1.47l2.707,2.704v7.119L9.644,8.23
			C9.625,8.209,9.606,8.191,9.586,8.172L6.1,4.683c-0.391-0.392-1.024-0.392-1.415,0c-0.391,0.391-0.39,1.024,0.001,1.415
			L6.477,7.89l-1.747,0C4.155,7.889,3.69,8.354,3.69,8.929c0,0.575,0.466,1.04,1.039,1.041l3.825,0.001l5.039,5.043L6.017,15.01
			c-0.029-0.001-0.057-0.001-0.085,0l-4.931-0.002c-0.554,0-1.001,0.447-1.001,1s0.449,1,1.002,1.001l2.532,0.001l-1.235,1.234
			c-0.405,0.405-0.405,1.063,0.001,1.47s1.064,0.406,1.471,0.001l2.704-2.703l7.086,0.003L8.216,22.36
			c-0.022,0.02-0.042,0.04-0.062,0.062l-3.466,3.466c-0.391,0.391-0.391,1.023,0,1.415c0.392,0.391,1.024,0.391,1.415,0l1.783-1.783
			l0.006,1.742c0.003,0.573,0.468,1.038,1.041,1.041c0.572,0.002,1.034-0.461,1.032-1.033l-0.015-3.814l5.046-5.045v7.601
			c-0.001,0.031-0.001,0.059,0,0.09V31c0,0.552,0.448,1,1.001,1s1.001-0.448,1.001-1v-2.521l1.236,1.228
			c0.406,0.403,1.064,0.403,1.471,0s0.406-1.058,0-1.461l-2.707-2.687v-7.136l5.378,5.383c0.021,0.022,0.041,0.043,0.063,0.064
			l3.466,3.469c0.391,0.392,1.023,0.392,1.414,0.001s0.391-1.025,0-1.416l-1.783-1.785l1.74-0.005
			c0.572-0.002,1.037-0.467,1.039-1.04c0.001-0.572-0.461-1.035-1.033-1.033l-3.812,0.011l-5.05-5.054l7.615,0.004
			c0.028,0.001,0.054,0.001,0.081,0l4.908,0.002c0.553,0,1.001-0.448,1.001-1C32.026,15.471,31.578,15.022,31.025,15.022z"/>
	</g>
</g>
<g>
</g>
<g>
</g>
<g>
</g>
<g>
</g>
<g>
</g>
<g>
</g>
<g>
</g>
<g>
</g>
<g>
</g>
<g>
</g>
<g>
</g>
<g>
</g>
<g>
</g>
<g>
</g>
<g>
</g>
</svg>
