<?xml version="1.0" encoding="iso-8859-1"?>
<!-- Generator: Adobe Illustrator 16.0.0, SVG Export Plug-In . SVG Version: 6.00 Build 0)  -->
<!DOCTYPE svg PUBLIC "-//W3C//DTD SVG 1.1//EN" "http://www.w3.org/Graphics/SVG/1.1/DTD/svg11.dtd">
<svg version="1.1" id="Layer_1" xmlns="http://www.w3.org/2000/svg" xmlns:xlink="http://www.w3.org/1999/xlink" x="0px" y="0px"
	 width="27.996px" height="32px" viewBox="0 0 27.996 32" style="enable-background:new 0 0 27.996 32;" xml:space="preserve">
<g id="Snowflake_10_">
	<g>
		<path style="fill-rule:evenodd;clip-rule:evenodd;fill:#54BBFF;" d="M27.48,22.647l-2.184-1.261l1.68-0.456
			c0.553-0.149,0.882-0.72,0.735-1.272s-0.713-0.88-1.265-0.729l-3.679,0.998l-3.17-1.83c0.244-0.654,0.384-1.358,0.384-2.097
			c0-0.728-0.136-1.421-0.373-2.067l3.183-1.837l3.681,0.999c0.549,0.148,1.111-0.177,1.257-0.726
			c0.146-0.55-0.181-1.116-0.729-1.265l-1.694-0.46l2.19-1.265c0.479-0.276,0.643-0.889,0.366-1.366
			c-0.276-0.479-0.888-0.643-1.366-0.366l-2.184,1.261l0.445-1.683c0.146-0.554-0.183-1.123-0.734-1.272
			c-0.552-0.15-1.118,0.177-1.265,0.729l-0.976,3.686l-3.163,1.826c-0.899-1.095-2.181-1.859-3.638-2.104V6.46l2.706-2.706
			c0.403-0.403,0.403-1.057,0-1.46s-1.058-0.403-1.461,0L14.982,3.54V1c0-0.553-0.447-1-1-1s-1,0.447-1,1v2.53l-1.234-1.234
			c-0.406-0.406-1.063-0.406-1.47,0c-0.405,0.405-0.405,1.063,0,1.47l2.704,2.704v3.62c-1.452,0.244-2.729,1.004-3.629,2.092
			l-3.125-1.805l-0.99-3.696c-0.147-0.551-0.714-0.878-1.265-0.73s-0.878,0.714-0.73,1.265l0.456,1.701L1.5,7.647
			C1.021,7.371,0.41,7.535,0.134,8.014C-0.143,8.491,0.021,9.104,0.5,9.38l2.191,1.265l-1.687,0.452
			c-0.555,0.148-0.883,0.718-0.734,1.272c0.148,0.554,0.718,0.883,1.272,0.734l3.693-0.989l3.125,1.804
			C8.12,14.568,7.982,15.267,7.982,16c0,0.744,0.142,1.454,0.39,2.111l-3.128,1.806l-3.696-0.991
			c-0.551-0.147-1.117,0.18-1.265,0.73s0.18,1.116,0.73,1.265l1.701,0.456l-2.199,1.27c-0.479,0.276-0.643,0.888-0.366,1.366
			c0.276,0.478,0.888,0.642,1.366,0.366l2.191-1.265l-0.452,1.686c-0.148,0.554,0.181,1.124,0.735,1.272
			c0.554,0.148,1.123-0.181,1.271-0.735l0.99-3.692l3.124-1.804c0.897,1.075,2.165,1.826,3.606,2.068v3.658l-2.706,2.688
			c-0.403,0.401-0.403,1.051,0,1.451c0.403,0.401,1.058,0.401,1.46,0l1.246-1.238V31c0,0.552,0.447,1,1,1s1-0.448,1-1v-2.521
			l1.234,1.227c0.406,0.403,1.063,0.403,1.47,0c0.405-0.403,0.405-1.058,0-1.461l-2.704-2.687V21.91
			c1.446-0.243,2.719-0.999,3.617-2.08l3.176,1.833l0.977,3.687c0.146,0.55,0.708,0.875,1.257,0.726
			c0.548-0.148,0.875-0.715,0.729-1.264l-0.449-1.698l2.191,1.265c0.479,0.275,1.09,0.111,1.366-0.366
			C28.123,23.535,27.959,22.924,27.48,22.647z M16.982,17v1c0,0.552-0.447,1-1,1h-1c0,0.553-0.447,1-1,1s-1-0.447-1-1h-1
			c-0.553,0-1-0.448-1-1v-1c-0.553,0-1-0.448-1-1c0-0.553,0.447-1,1-1v-1c0-0.553,0.447-1,1-1h1c0-0.553,0.447-1,1-1s1,0.447,1,1h1
			c0.553,0,1,0.447,1,1v1c0.553,0,1,0.447,1,1C17.982,16.552,17.535,17,16.982,17z"/>
	</g>
</g>
<g>
</g>
<g>
</g>
<g>
</g>
<g>
</g>
<g>
</g>
<g>
</g>
<g>
</g>
<g>
</g>
<g>
</g>
<g>
</g>
<g>
</g>
<g>
</g>
<g>
</g>
<g>
</g>
<g>
</g>
</svg>
