<?xml version="1.0" encoding="iso-8859-1"?>
<!-- Generator: Adobe Illustrator 16.0.0, SVG Export Plug-In . SVG Version: 6.00 Build 0)  -->
<!DOCTYPE svg PUBLIC "-//W3C//DTD SVG 1.1//EN" "http://www.w3.org/Graphics/SVG/1.1/DTD/svg11.dtd">
<svg version="1.1" id="Layer_1" xmlns="http://www.w3.org/2000/svg" xmlns:xlink="http://www.w3.org/1999/xlink" x="0px" y="0px"
	 width="28px" height="32px" viewBox="0 0 28 32" style="enable-background:new 0 0 28 32;" xml:space="preserve">
<g id="Rounded_Rectangle_1">
	<g>
		<path style="fill-rule:evenodd;clip-rule:evenodd;fill:#54BBFF;" d="M5.864,20.49c-0.027-0.047-0.07-0.077-0.104-0.118
			c-0.075-0.091-0.165-0.164-0.268-0.224c-0.022-0.013-0.04-0.031-0.063-0.043c0,0,0,0-0.001,0c-0.021-0.01-0.041-0.022-0.063-0.031
			c-0.001,0-0.001,0-0.001,0c-0.056-0.022-0.116-0.023-0.174-0.035C5.127,20.025,5.067,20,5,20H4.966
			c-0.038,0.001-0.074-0.005-0.111,0H1c-0.553,0-1,0.447-1,1c0,0.552,0.447,1,1,1h1.621l-1.135,1.137
			c-0.479,0.278-0.643,0.895-0.366,1.377s0.889,0.647,1.367,0.369L4,23.367V25c0,0.553,0.447,1,1,1s1-0.447,1-1v-4
			c0-0.16-0.046-0.306-0.112-0.44C5.877,20.537,5.877,20.513,5.864,20.49z M13.218,6.704c0.313,0.313,0.775,0.378,1.158,0.208
			c0.144-0.05,0.28-0.123,0.395-0.237l2.924-2.921c0.403-0.403,0.403-1.057,0-1.46s-1.059-0.403-1.462,0L14.985,3.54V1
			c0-0.553-0.448-1-1.001-1s-1.001,0.447-1.001,1v2.531l-1.236-1.235c-0.406-0.406-1.064-0.406-1.471,0
			c-0.406,0.405-0.406,1.063,0,1.47L13.218,6.704z M22.136,11.51c0.027,0.047,0.069,0.076,0.103,0.116
			c0.03,0.038,0.058,0.075,0.094,0.107c0,0,0,0,0,0c0.042,0.039,0.091,0.063,0.137,0.092c0.056,0.036,0.105,0.076,0.168,0.101
			c0.11,0.044,0.224,0.066,0.344,0.069C22.987,11.996,22.993,12,23,12h0.037c0.036-0.001,0.071,0.005,0.107,0H27
			c0.553,0,1-0.447,1-1s-0.447-1-1-1h-1.622l1.136-1.138c0.479-0.278,0.643-0.895,0.366-1.377c-0.276-0.481-0.889-0.646-1.368-0.368
			L24,8.632V7c0-0.553-0.447-1-1-1s-1,0.447-1,1v4c0,0.16,0.046,0.306,0.112,0.439C22.123,11.462,22.123,11.487,22.136,11.51z M5,6
			C4.447,6,4,6.447,4,7v1.633L2.487,7.117C2.009,6.839,1.396,7.004,1.12,7.485C0.844,7.968,1.008,8.584,1.486,8.862L2.621,10H1
			c-0.553,0-1,0.447-1,1s0.447,1,1,1h4c0.007,0,0.013-0.004,0.02-0.004c0.12-0.003,0.233-0.025,0.344-0.069
			c0.024-0.01,0.045-0.022,0.068-0.034c0.086-0.042,0.164-0.092,0.236-0.159v0c0.036-0.032,0.063-0.07,0.094-0.107
			c0.033-0.041,0.075-0.069,0.103-0.116c0.013-0.022,0.013-0.047,0.023-0.07C5.954,11.306,6,11.16,6,11V7C6,6.447,5.553,6,5,6z
			 M14.75,25.325c-0.313-0.312-0.775-0.376-1.157-0.207c-0.144,0.049-0.28,0.122-0.395,0.236l-2.924,2.901
			c-0.403,0.401-0.403,1.051,0,1.451c0.403,0.401,1.058,0.401,1.462,0l1.247-1.238V31c0,0.552,0.448,1,1.001,1s1.001-0.448,1.001-1
			v-2.521l1.236,1.228c0.406,0.403,1.064,0.403,1.471,0s0.406-1.058,0-1.461L14.75,25.325z M27,20h-4
			c-0.065,0-0.122,0.025-0.185,0.037c-0.06,0.012-0.122,0.013-0.18,0.036c0,0,0,0-0.001,0c-0.158,0.062-0.287,0.167-0.395,0.296
			c0,0-0.001,0.001-0.001,0.001c-0.033,0.042-0.076,0.071-0.104,0.119c-0.013,0.022-0.013,0.047-0.023,0.07
			C22.046,20.694,22,20.84,22,21v4c0,0.553,0.447,1,1,1s1-0.447,1-1v-1.632l1.512,1.515c0.479,0.278,1.092,0.113,1.368-0.369
			s0.112-1.099-0.366-1.377L25.379,22H27c0.553,0,1-0.448,1-1C28,20.447,27.553,20,27,20z M15.438,16.008l2.256-2.254
			c0.403-0.403,0.403-1.057,0-1.46s-1.059-0.403-1.462,0l-2.243,2.241l-2.242-2.239c-0.406-0.406-1.064-0.406-1.471,0
			c-0.406,0.405-0.406,1.063,0,1.47l2.254,2.252l-2.256,2.238c-0.403,0.401-0.403,1.051,0,1.451c0.403,0.401,1.058,0.401,1.462,0
			l2.243-2.227l2.242,2.226c0.406,0.403,1.064,0.403,1.471,0s0.406-1.058,0-1.461L15.438,16.008z"/>
	</g>
</g>
<g>
</g>
<g>
</g>
<g>
</g>
<g>
</g>
<g>
</g>
<g>
</g>
<g>
</g>
<g>
</g>
<g>
</g>
<g>
</g>
<g>
</g>
<g>
</g>
<g>
</g>
<g>
</g>
<g>
</g>
</svg>
