<?xml version="1.0" encoding="iso-8859-1"?>
<!-- Generator: Adobe Illustrator 16.0.0, SVG Export Plug-In . SVG Version: 6.00 Build 0)  -->
<!DOCTYPE svg PUBLIC "-//W3C//DTD SVG 1.1//EN" "http://www.w3.org/Graphics/SVG/1.1/DTD/svg11.dtd">
<svg version="1.1" id="Layer_1" xmlns="http://www.w3.org/2000/svg" xmlns:xlink="http://www.w3.org/1999/xlink" x="0px" y="0px"
	 width="34px" height="32px" viewBox="0 0 34 32" style="enable-background:new 0 0 34 32;" xml:space="preserve">
<g id="Sun_1_">
	<g>
		<path style="fill-rule:evenodd;clip-rule:evenodd;fill:#FFCC66;" d="M27.792,22H21v-0.051c-2.247-0.251-4-2.13-4-4.438
			c0-2.425,1.931-4.387,4.341-4.473c0.708-0.633,1.634-1.029,2.659-1.029c0.004,0,0.008,0.001,0.012,0.001
			C24.923,10.797,26.363,10,28,10c0.56,0,1.088,0.112,1.59,0.282C30.047,9.641,30.216,8.621,29.856,8
			c-3.221,1.859-3.625-0.217-5.33,0.768c-0.405,0.234-0.68,0.555-0.865,0.864c-0.46-0.548-0.971-1.052-1.535-1.492
			c0-0.403,0.052-0.841,0.24-1.166C23,5.876,23.887,6.34,24.731,4.875C25.185,4.091,24.803,2.607,24,2.144
			c-1.859,3.22-3.248,1.625-4.232,3.33c-0.233,0.405-0.312,0.819-0.316,1.18c-0.671-0.247-1.362-0.451-2.092-0.551
			C17.164,5.76,17,5.366,17,5c0-1.268,1-1.309,1-3c0-0.906-1.073-2-2-2c0,3.719-2,3.031-2,5c0,0.456,0.134,0.843,0.303,1.154
			c-0.719,0.123-1.406,0.332-2.062,0.602c-0.344-0.2-0.69-0.461-0.875-0.782c-0.634-1.098,0.211-1.634-0.634-3.099
			C10.278,2.091,8.803,1.68,8,2.143c1.859,3.221-0.217,3.626,0.768,5.331C9.002,7.88,9.324,8.154,9.634,8.34
			C9.086,8.799,8.582,9.31,8.142,9.874c-0.404,0-0.842-0.052-1.168-0.24C5.876,9,6.34,8.113,4.875,7.268
			C4.091,6.814,2.607,7.196,2.144,8c3.221,1.859,1.625,3.247,3.33,4.231c0.405,0.234,0.819,0.312,1.18,0.317
			c-0.248,0.671-0.452,1.362-0.552,2.093C5.759,14.836,5.365,15,5,15c-1.268,0-1.309-1-3-1c-0.906,0-2,1.072-2,2
			c3.719,0,3.031,2,5,2c0.454,0,0.84-0.134,1.149-0.302c0.124,0.72,0.334,1.408,0.604,2.064c-0.2,0.343-0.461,0.687-0.78,0.871
			c-1.098,0.634-1.634-0.212-3.099,0.634C2.091,21.721,1.68,23.197,2.144,24c3.221-1.859,3.625,0.216,5.33-0.769
			c0.405-0.234,0.68-0.555,0.864-0.864c0.461,0.548,0.971,1.052,1.536,1.492c0,0.403-0.052,0.841-0.24,1.167
			C9,26.123,8.113,25.659,7.268,27.124C6.814,27.909,7.197,29.393,8,29.856c1.859-3.221,3.248-1.626,4.232-3.331
			c0.233-0.405,0.311-0.819,0.316-1.18c0.671,0.248,1.362,0.451,2.092,0.551C14.835,26.239,15,26.634,15,27c0,1.267-1,1.309-1,3
			c0,0.906,1.072,2,2,2c0-3.719,2-3.031,2-5c0-0.456-0.135-0.844-0.304-1.155c0.72-0.123,1.406-0.332,2.062-0.602
			c0.345,0.2,0.69,0.462,0.876,0.783c0.634,1.097-0.212,1.633,0.634,3.098c0.453,0.785,1.93,1.196,2.732,0.732
			c-1.859-3.221,0.216-3.626-0.769-5.33c-0.234-0.407-0.556-0.682-0.865-0.866c0.547-0.46,1.052-0.97,1.492-1.534
			c0.403,0,0.842,0.052,1.168,0.239c1.097,0.634,0.633,1.521,2.098,2.366c0.785,0.453,2.269,0.071,2.732-0.731
			C28.574,23.26,28.06,22.596,27.792,22z"/>
	</g>
</g>
<g id="Cloud_1_">
	<g>
		<path style="fill-rule:evenodd;clip-rule:evenodd;fill:#CCCCCC;" d="M31.271,17.066c0.204-0.449,0.323-0.943,0.323-1.467
			c0-1.988-1.637-3.6-3.656-3.6c-1.342,0-2.503,0.72-3.139,1.78c-0.285-0.115-0.597-0.181-0.924-0.181
			c-1.065,0-1.962,0.677-2.293,1.615c-0.049-0.003-0.095-0.015-0.145-0.015C20.091,15.2,19,16.274,19,17.6s1.091,2.4,2.438,2.4
			h8.938C31.272,20,32,19.283,32,18.4C32,17.843,31.71,17.353,31.271,17.066z"/>
	</g>
</g>
<g>
</g>
<g>
</g>
<g>
</g>
<g>
</g>
<g>
</g>
<g>
</g>
<g>
</g>
<g>
</g>
<g>
</g>
<g>
</g>
<g>
</g>
<g>
</g>
<g>
</g>
<g>
</g>
<g>
</g>
</svg>
