<?xml version="1.0" encoding="iso-8859-1"?>
<!-- Generator: Adobe Illustrator 16.0.0, SVG Export Plug-In . SVG Version: 6.00 Build 0)  -->
<!DOCTYPE svg PUBLIC "-//W3C//DTD SVG 1.1//EN" "http://www.w3.org/Graphics/SVG/1.1/DTD/svg11.dtd">
<svg version="1.1" id="Layer_1" xmlns="http://www.w3.org/2000/svg" xmlns:xlink="http://www.w3.org/1999/xlink" x="0px" y="0px"
	 width="32px" height="10.02px" viewBox="0 0 32 10.02" style="enable-background:new 0 0 32 10.02;" xml:space="preserve">
<g id="Frame">
	<g>
		<path style="fill-rule:evenodd;clip-rule:evenodd;fill:#4D4D4D;" d="M31,2.012h-1.085c-0.22-0.985-1.015-2-3.905-2
			c-3.485,0-5.645-0.289-8.047,2h-3.897c-2.407-2.289-4.572-2-8.065-2c-2.897,0-3.694,1.015-3.914,2H1c-0.553,0-1,0.447-1,1
			c0,0.552,0.447,1,1,1h0.996c0.046,2.086,0.646,6.206,6.004,6c5.784,0,6.851-3.708,7.006-5.726C15.3,4.117,15.637,4.012,16,4.012
			c0.366,0,0.705,0.105,1,0.277V4.012h0.006c0.082,1.932,0.966,6,7.009,6c5.345,0.206,5.944-3.914,5.989-6H31c0.553,0,1-0.448,1-1
			C32,2.459,31.553,2.012,31,2.012z"/>
	</g>
</g>
<g id="Glasses">
	<g>
		<path style="fill-rule:evenodd;clip-rule:evenodd;fill:#88C057;" d="M6.771,2.012c-2.716,0-2.759,1.125-2.759,1.8
			s-0.345,4.351,4.138,4.2c5.475,0,4.828-4.2,4.828-4.2C11.039,1.788,9.487,2.012,6.771,2.012z M27.986,3.812
			c0-0.675-0.043-1.8-2.758-1.8c-2.716,0-4.268-0.225-6.207,1.8c0,0-0.646,4.2,4.827,4.2C28.332,8.163,27.986,4.487,27.986,3.812z"
			/>
	</g>
</g>
<g>
</g>
<g>
</g>
<g>
</g>
<g>
</g>
<g>
</g>
<g>
</g>
<g>
</g>
<g>
</g>
<g>
</g>
<g>
</g>
<g>
</g>
<g>
</g>
<g>
</g>
<g>
</g>
<g>
</g>
</svg>
