<?xml version="1.0" encoding="iso-8859-1"?>
<!-- Generator: Adobe Illustrator 16.0.0, SVG Export Plug-In . SVG Version: 6.00 Build 0)  -->
<!DOCTYPE svg PUBLIC "-//W3C//DTD SVG 1.1//EN" "http://www.w3.org/Graphics/SVG/1.1/DTD/svg11.dtd">
<svg version="1.1" id="Layer_1" xmlns="http://www.w3.org/2000/svg" xmlns:xlink="http://www.w3.org/1999/xlink" x="0px" y="0px"
	 width="34px" height="32px" viewBox="0 0 34 32" style="enable-background:new 0 0 34 32;" xml:space="preserve">
<g id="Sun">
	<g>
		<path style="fill-rule:evenodd;clip-rule:evenodd;fill:#FFCC66;" d="M23.323,26.478C21.904,25.285,21,23.499,21,21.5
			c0-0.169,0.013-0.334,0.025-0.5H11c-1.657,0-3-1.344-3-3c0-1.657,1.343-3,3-3h1.184C12.072,14.686,12,14.353,12,14
			c0-1.657,1.343-3,3-3h6.025C21.013,10.834,21,10.669,21,10.5c0-2.648,1.586-4.922,3.857-5.936c0.229-0.815-0.15-2.013-0.857-2.421
			c-1.859,3.22-3.248,1.625-4.232,3.33c-0.233,0.405-0.312,0.819-0.316,1.18c-0.671-0.247-1.362-0.451-2.093-0.551
			C17.164,5.76,17,5.366,17,5c0-1.268,1-1.309,1-3c0-0.906-1.073-2-2-2c0,3.719-2,3.031-2,5c0,0.456,0.134,0.843,0.303,1.154
			c-0.719,0.123-1.406,0.332-2.062,0.602c-0.344-0.2-0.69-0.461-0.875-0.782c-0.634-1.098,0.211-1.634-0.635-3.099
			C10.278,2.091,8.803,1.68,8,2.143c1.859,3.221-0.217,3.626,0.768,5.331C9.002,7.88,9.324,8.154,9.634,8.34
			C9.086,8.799,8.582,9.31,8.141,9.874c-0.403,0-0.841-0.052-1.167-0.24C5.876,9,6.34,8.113,4.875,7.268
			C4.091,6.814,2.607,7.196,2.144,8c3.221,1.859,1.625,3.247,3.33,4.231c0.405,0.234,0.819,0.312,1.18,0.317
			c-0.248,0.671-0.452,1.362-0.552,2.093C5.759,14.836,5.365,15,5,15c-1.268,0-1.309-1-3-1c-0.906,0-2,1.072-2,2
			c3.719,0,3.031,2,5,2c0.454,0,0.84-0.134,1.149-0.302c0.124,0.72,0.334,1.408,0.604,2.064c-0.2,0.343-0.461,0.687-0.78,0.871
			c-1.098,0.634-1.634-0.212-3.099,0.634C2.091,21.721,1.68,23.197,2.144,24c3.221-1.859,3.625,0.216,5.33-0.769
			c0.405-0.234,0.68-0.555,0.864-0.864c0.461,0.548,0.971,1.052,1.536,1.492c0,0.403-0.052,0.841-0.24,1.167
			C9,26.123,8.113,25.659,7.268,27.124C6.814,27.909,7.196,29.393,8,29.856c1.859-3.221,3.247-1.626,4.231-3.331
			c0.234-0.405,0.312-0.819,0.317-1.18c0.67,0.248,1.362,0.451,2.092,0.551C14.835,26.239,15,26.634,15,27c0,1.267-1,1.309-1,3
			c0,0.906,1.072,2,2,2c0-3.719,2-3.031,2-5c0-0.456-0.135-0.844-0.304-1.155c0.719-0.123,1.406-0.332,2.062-0.602
			c0.345,0.2,0.69,0.462,0.876,0.783c0.634,1.097-0.212,1.633,0.634,3.098c0.453,0.785,1.929,1.196,2.732,0.732
			C23.006,28.134,23.137,27.219,23.323,26.478z"/>
	</g>
</g>
<g id="Wind_2_">
	<g>
		<path style="fill-rule:evenodd;clip-rule:evenodd;fill:#72C1F7;" d="M27.363,17H11.03C10.461,17,10,17.447,10,18
			c0,0.552,0.461,1,1.03,1h11.697h0.782h3.854c1.423,0,2.576,1.119,2.576,2.5S28.786,24,27.363,24c-1.422,0-2.575-1.119-2.575-2.5
			c0-0.553-0.462-1-1.03-1c-0.569,0-1.03,0.447-1.03,1c0,2.485,2.075,4.5,4.636,4.5S32,23.985,32,21.5S29.924,17,27.363,17z"/>
	</g>
</g>
<g id="Wind_3_">
	<g>
		<path style="fill-rule:evenodd;clip-rule:evenodd;fill:#72C1F7;" d="M27.363,6c-2.561,0-4.636,2.015-4.636,4.5
			c0,0.553,0.461,1,1.03,1c0.568,0,1.03-0.447,1.03-1c0-1.381,1.153-2.5,2.575-2.5c1.423,0,2.576,1.119,2.576,2.5
			S28.786,13,27.363,13H23.51h-0.782H15.03C14.461,13,14,13.447,14,14s0.461,1,1.03,1h12.333C29.924,15,32,12.985,32,10.5
			S29.924,6,27.363,6z"/>
	</g>
</g>
<g>
</g>
<g>
</g>
<g>
</g>
<g>
</g>
<g>
</g>
<g>
</g>
<g>
</g>
<g>
</g>
<g>
</g>
<g>
</g>
<g>
</g>
<g>
</g>
<g>
</g>
<g>
</g>
<g>
</g>
</svg>
