<?xml version="1.0" encoding="iso-8859-1"?>
<!-- Generator: Adobe Illustrator 16.0.0, SVG Export Plug-In . SVG Version: 6.00 Build 0)  -->
<!DOCTYPE svg PUBLIC "-//W3C//DTD SVG 1.1//EN" "http://www.w3.org/Graphics/SVG/1.1/DTD/svg11.dtd">
<svg version="1.1" id="Layer_1" xmlns="http://www.w3.org/2000/svg" xmlns:xlink="http://www.w3.org/1999/xlink" x="0px" y="0px"
	 width="32px" height="32px" viewBox="0 0 32 32" style="enable-background:new 0 0 32 32;" xml:space="preserve">
<g id="Sun_23_">
	<g>
		<path style="fill-rule:evenodd;clip-rule:evenodd;fill:#FFCC66;" d="M27,14c-0.456,0-0.844,0.134-1.154,0.304
			c-0.124-0.724-0.32-1.422-0.59-2.083c0.199-0.337,0.457-0.672,0.771-0.854c1.097-0.634,1.633,0.211,3.098-0.635
			C29.909,10.278,30.32,8.803,29.856,8c-3.221,1.859-3.625-0.217-5.33,0.768c-0.393,0.227-0.659,0.534-0.844,0.834
			c-0.462-0.554-0.987-1.051-1.557-1.494c0.003-0.394,0.057-0.817,0.24-1.134C23,5.876,23.886,6.34,24.732,4.875
			C25.185,4.091,24.803,2.607,24,2.144c-1.859,3.221-3.248,1.625-4.232,3.33c-0.229,0.395-0.306,0.798-0.315,1.151
			c-0.668-0.246-1.368-0.423-2.094-0.522C17.165,5.76,17,5.366,17,5c0-1.268,1-1.309,1-3c0-0.906-1.073-2-2-2c0,3.719-2,3.031-2,5
			c0,0.456,0.134,0.844,0.304,1.154c-0.724,0.124-1.422,0.32-2.083,0.59c-0.337-0.199-0.673-0.457-0.854-0.771
			c-0.633-1.098,0.212-1.634-0.634-3.099C10.279,2.091,8.803,1.68,8,2.144c1.859,3.221-0.216,3.625,0.768,5.33
			c0.227,0.392,0.534,0.659,0.834,0.843C9.048,8.779,8.551,9.304,8.107,9.874c-0.394-0.003-0.817-0.057-1.134-0.24
			C5.876,9,6.34,8.113,4.875,7.268C4.091,6.814,2.607,7.196,2.144,8c3.221,1.859,1.625,3.247,3.33,4.231
			c0.395,0.228,0.798,0.306,1.152,0.314c-0.247,0.668-0.423,1.368-0.522,2.095C5.76,14.835,5.366,15,5,15c-1.267,0-1.309-1-3-1
			c-0.906,0-2,1.072-2,2c3.719,0,3.031,2,5,2c0.456,0,0.844-0.134,1.154-0.304c0.124,0.724,0.32,1.422,0.59,2.083
			c-0.199,0.337-0.457,0.673-0.771,0.854c-1.097,0.634-1.633-0.212-3.098,0.634C2.091,21.721,1.68,23.196,2.144,24
			c3.22-1.859,3.625,0.216,5.33-0.769c0.392-0.227,0.659-0.534,0.844-0.833c0.462,0.554,0.987,1.051,1.557,1.495
			c-0.003,0.394-0.058,0.817-0.241,1.134C9,26.123,8.114,25.659,7.268,27.124C6.815,27.909,7.197,29.393,8,29.856
			c1.859-3.221,3.248-1.625,4.232-3.33c0.228-0.395,0.306-0.798,0.314-1.151c0.668,0.246,1.368,0.423,2.094,0.522
			C14.835,26.24,15,26.634,15,27c0,1.267-1,1.309-1,3c0,0.906,1.073,2,2,2c0-3.719,2-3.031,2-5c0-0.456-0.134-0.844-0.304-1.154
			c0.724-0.124,1.422-0.32,2.083-0.59c0.337,0.199,0.672,0.457,0.854,0.771c0.634,1.097-0.211,1.633,0.634,3.098
			c0.453,0.785,1.929,1.196,2.732,0.732c-1.859-3.221,0.216-3.625-0.768-5.33c-0.227-0.393-0.534-0.659-0.833-0.844
			c0.554-0.462,1.051-0.987,1.494-1.557c0.394,0.003,0.817,0.058,1.134,0.241c1.097,0.633,0.633,1.52,2.098,2.365
			c0.785,0.453,2.269,0.071,2.732-0.731c-3.221-1.859-1.625-3.248-3.33-4.232c-0.395-0.228-0.798-0.306-1.151-0.314
			c0.246-0.668,0.423-1.368,0.522-2.094C26.24,17.165,26.634,17,27,17c1.267,0,1.309,1,3,1c0.906,0,2-1.073,2-2
			C28.281,16,28.969,14,27,14z"/>
	</g>
</g>
<g>
</g>
<g>
</g>
<g>
</g>
<g>
</g>
<g>
</g>
<g>
</g>
<g>
</g>
<g>
</g>
<g>
</g>
<g>
</g>
<g>
</g>
<g>
</g>
<g>
</g>
<g>
</g>
<g>
</g>
</svg>
