<?xml version="1.0" encoding="iso-8859-1"?>
<!-- Generator: Adobe Illustrator 16.0.0, SVG Export Plug-In . SVG Version: 6.00 Build 0)  -->
<!DOCTYPE svg PUBLIC "-//W3C//DTD SVG 1.1//EN" "http://www.w3.org/Graphics/SVG/1.1/DTD/svg11.dtd">
<svg version="1.1" id="Layer_1" xmlns="http://www.w3.org/2000/svg" xmlns:xlink="http://www.w3.org/1999/xlink" x="0px" y="0px"
	 width="28px" height="13.004px" viewBox="0 0 28 13.004" style="enable-background:new 0 0 28 13.004;" xml:space="preserve">
<g id="Sun_19_">
	<g>
		<path style="fill-rule:evenodd;clip-rule:evenodd;fill:#FFCC66;" d="M10,8C9.5,8,9.25,8.5,8.75,9h2.498C10.749,8.5,10.499,8,10,8z
			 M14,0c-3.703,0-6.811,2.52-7.722,5.937C7.029,5.607,7.308,4,10,4c3,0,2.938,2,4,2c1,0,1-2,4-2c2.692,0,2.971,1.607,3.722,1.937
			C20.811,2.52,17.703,0,14,0z M18,8c-0.499,0-0.749,0.5-1.248,1h2.498C18.75,8.5,18.5,8,18,8z"/>
	</g>
</g>
<g id="Water_9_">
	<g>
		<path style="fill:#54BBFF;" d="M26,7c-3,0-3,2-4,2s-1-2-4-2s-3,2-4,2c-1.063,0-1-2-4-2S7,9,6,9S5,7,2,7C1,7,0,8,0,9s1,2,2,2
			s1,2,4,2s3-2,4-2s1,2.004,4,2.004S17,11,18,11s1,2,4,2s3-2,4-2s2-1,2-2S27,7,26,7z"/>
	</g>
</g>
<g>
</g>
<g>
</g>
<g>
</g>
<g>
</g>
<g>
</g>
<g>
</g>
<g>
</g>
<g>
</g>
<g>
</g>
<g>
</g>
<g>
</g>
<g>
</g>
<g>
</g>
<g>
</g>
<g>
</g>
</svg>
