<?xml version="1.0" encoding="iso-8859-1"?>
<!-- Generator: Adobe Illustrator 16.0.0, SVG Export Plug-In . SVG Version: 6.00 Build 0)  -->
<!DOCTYPE svg PUBLIC "-//W3C//DTD SVG 1.1//EN" "http://www.w3.org/Graphics/SVG/1.1/DTD/svg11.dtd">
<svg version="1.1" id="Layer_1" xmlns="http://www.w3.org/2000/svg" xmlns:xlink="http://www.w3.org/1999/xlink" x="0px" y="0px"
	 width="32px" height="38px" viewBox="0 0 32 38" style="enable-background:new 0 0 32 38;" xml:space="preserve">
<g id="Land_3_">
	<g>
		<path style="fill:#CCCCCC;" d="M30,20H2c-1.104,0-2,0.896-2,2s0.896,2,2,2h28c1.104,0,2-0.896,2-2S31.104,20,30,20z"/>
	</g>
</g>
<g id="Sun_22_">
	<g>
		<path style="fill-rule:evenodd;clip-rule:evenodd;fill:#FFCC66;" d="M6.15,17.699c0.018,0.103,0.049,0.2,0.07,0.301h19.552
			c0.044-0.213,0.096-0.423,0.125-0.642C26.241,17.164,26.634,17,27,17c1.267,0,1.309,1,3,1c0.906,0,2-1.073,2-2
			c-3.719,0-3.031-2-5-2c-0.454,0-0.84,0.133-1.15,0.301c-0.124-0.721-0.333-1.41-0.603-2.068c0.2-0.342,0.46-0.684,0.779-0.868
			c1.097-0.633,1.633,0.212,3.098-0.634C29.909,10.278,30.32,8.803,29.856,8c-3.221,1.859-3.625-0.217-5.331,0.768
			c-0.4,0.231-0.671,0.546-0.856,0.852c-0.462-0.552-0.975-1.061-1.544-1.503c0.002-0.396,0.056-0.823,0.24-1.143
			C23,5.876,23.886,6.34,24.732,4.875C25.185,4.091,24.803,2.607,24,2.144c-1.859,3.22-3.248,1.625-4.232,3.33
			c-0.229,0.397-0.307,0.802-0.315,1.157c-0.668-0.246-1.367-0.429-2.093-0.528C17.165,5.76,17,5.366,17,5c0-1.268,1-1.309,1-3
			c0-0.906-1.073-2-2-2c0,3.719-2,3.031-2,5c0,0.456,0.134,0.844,0.304,1.154c-0.72,0.123-1.408,0.332-2.065,0.6
			c-0.344-0.201-0.688-0.461-0.873-0.781c-0.633-1.098,0.212-1.634-0.634-3.099C10.279,2.091,8.803,1.68,8,2.144
			c1.859,3.22-0.217,3.625,0.768,5.33c0.231,0.401,0.548,0.672,0.854,0.857C9.068,8.792,8.56,9.305,8.117,9.874
			c-0.396-0.002-0.824-0.056-1.144-0.24C5.876,9,6.34,8.113,4.875,7.268C4.091,6.814,2.607,7.196,2.144,8
			c3.22,1.859,1.625,3.247,3.33,4.231c0.397,0.229,0.802,0.307,1.157,0.315c-0.247,0.668-0.43,1.368-0.529,2.095
			C5.759,14.836,5.366,15,5,15c-1.267,0-1.309-1-3-1c-0.906,0-2,1.072-2,2c3.719,0,3.031,2,5,2C5.454,18,5.84,17.867,6.15,17.699z"
			/>
	</g>
</g>
<g>
</g>
<g>
</g>
<g>
</g>
<g>
</g>
<g>
</g>
<g>
</g>
<g>
</g>
<g>
</g>
<g>
</g>
<g>
</g>
<g>
</g>
<g>
</g>
<g>
</g>
<g>
</g>
<g>
</g>
</svg>
