<?xml version="1.0" encoding="iso-8859-1"?>
<!-- Generator: Adobe Illustrator 16.0.0, SVG Export Plug-In . SVG Version: 6.00 Build 0)  -->
<!DOCTYPE svg PUBLIC "-//W3C//DTD SVG 1.1//EN" "http://www.w3.org/Graphics/SVG/1.1/DTD/svg11.dtd">
<svg version="1.1" id="Layer_1" xmlns="http://www.w3.org/2000/svg" xmlns:xlink="http://www.w3.org/1999/xlink" x="0px" y="0px"
	 width="32px" height="32px" viewBox="0 0 32 32" style="enable-background:new 0 0 32 32;" xml:space="preserve">
<g id="Sun_16_">
	<g>
		<path style="fill-rule:evenodd;clip-rule:evenodd;fill:#FFCC66;" d="M8.823,11.336c0.765-0.862,1.791-1.337,2.892-1.337
			c1.1,0,2.125,0.475,2.891,1.336C14.985,11.764,15.48,12,16,12s1.016-0.236,1.396-0.665c0.765-0.861,1.791-1.336,2.89-1.336
			c0.001,0,0.001,0,0.001,0c1.1,0,2.126,0.475,2.892,1.336c0.016,0.018,0.034,0.03,0.051,0.047C23.713,10.354,24,9.213,24,8
			c0-4.419-3.582-8-8-8S8,3.581,8,8c0,1.213,0.287,2.354,0.771,3.383C8.788,11.366,8.808,11.354,8.823,11.336z"/>
	</g>
</g>
<g id="Water_6_">
	<g>
		<path style="fill-rule:evenodd;clip-rule:evenodd;fill:#54BBFF;" d="M31.748,14.336c-0.764-0.862-1.79-1.337-2.89-1.337
			c-0.001,0-0.001,0-0.001,0c-1.1,0-2.127,0.475-2.892,1.336C25.586,14.764,25.09,15,24.57,15c0,0,0,0-0.001,0
			c-0.519-0.001-1.013-0.236-1.392-0.665c-0.766-0.861-1.792-1.336-2.892-1.336c0,0,0,0-0.001,0c-1.099,0-2.125,0.475-2.89,1.336
			C17.016,14.764,16.52,15,16,15s-1.015-0.236-1.395-0.665c-0.766-0.861-1.791-1.336-2.891-1.336c-1.101,0-2.127,0.475-2.892,1.337
			c-0.76,0.856-2.029,0.856-2.789-0.001c-0.766-0.861-1.792-1.336-2.892-1.336s-2.126,0.475-2.891,1.336
			c-0.367,0.413-0.329,1.046,0.084,1.412c0.414,0.366,1.045,0.328,1.412-0.084c0.76-0.856,2.03-0.855,2.79,0
			C5.303,16.524,6.33,17,7.429,17s2.125-0.476,2.891-1.337c0.76-0.856,2.03-0.855,2.79,0c0.765,0.861,1.791,1.336,2.89,1.337H16
			c1.1-0.001,2.126-0.476,2.892-1.337c0.76-0.856,2.031-0.855,2.789-0.001c0.764,0.861,1.789,1.337,2.888,1.338
			c0.001,0,0.002,0,0.002,0c1.1-0.001,2.126-0.475,2.892-1.337c0.38-0.428,0.875-0.664,1.396-0.664c0.52,0,1.015,0.236,1.395,0.664
			c0.366,0.412,0.998,0.449,1.411,0.084C32.077,15.381,32.114,14.749,31.748,14.336z M25.354,19.336
			c-0.356,0.429-0.822,0.665-1.31,0.665c0,0,0,0-0.001,0c-0.487-0.001-0.951-0.236-1.307-0.665
			c-0.719-0.862-1.682-1.337-2.714-1.337c0,0,0,0-0.001,0c-1.031,0.001-1.995,0.476-2.713,1.337
			c-0.356,0.429-0.822,0.665-1.31,0.665c-0.487-0.001-0.952-0.236-1.309-0.665c-0.719-0.861-1.682-1.337-2.714-1.337
			s-1.996,0.476-2.714,1.337c-0.714,0.857-1.905,0.857-2.618,0c-0.345-0.413-0.938-0.451-1.325-0.084
			c-0.388,0.366-0.424,0.999-0.079,1.412c0.718,0.861,1.682,1.337,2.713,1.337c1.032,0,1.995-0.476,2.714-1.337
			c0.713-0.857,1.905-0.857,2.618,0c0.718,0.861,1.682,1.336,2.713,1.337H16c1.032-0.001,1.995-0.476,2.714-1.337
			c0.714-0.857,1.907-0.856,2.618-0.001c0.717,0.861,1.68,1.337,2.711,1.338c0.001,0,0.002,0,0.002,0
			c1.032,0,1.995-0.475,2.714-1.337c0.344-0.413,0.309-1.045-0.079-1.412C26.292,18.886,25.7,18.922,25.354,19.336z"/>
	</g>
</g>
<g>
</g>
<g>
</g>
<g>
</g>
<g>
</g>
<g>
</g>
<g>
</g>
<g>
</g>
<g>
</g>
<g>
</g>
<g>
</g>
<g>
</g>
<g>
</g>
<g>
</g>
<g>
</g>
<g>
</g>
</svg>
