<?xml version="1.0" encoding="iso-8859-1"?>
<!-- Generator: Adobe Illustrator 16.0.0, SVG Export Plug-In . SVG Version: 6.00 Build 0)  -->
<!DOCTYPE svg PUBLIC "-//W3C//DTD SVG 1.1//EN" "http://www.w3.org/Graphics/SVG/1.1/DTD/svg11.dtd">
<svg version="1.1" id="Layer_1" xmlns="http://www.w3.org/2000/svg" xmlns:xlink="http://www.w3.org/1999/xlink" x="0px" y="0px"
	 width="32px" height="33.499px" viewBox="0 0 32 33.499" style="enable-background:new 0 0 32 33.499;" xml:space="preserve">
<g id="Land_2_">
	<g>
		<path style="fill:#CCCCCC;" d="M30,15.499H2c-1.104,0-2,0.895-2,2c0,1.104,0.896,2,2,2h28c1.104,0,2-0.896,2-2
			C32,16.394,31.104,15.499,30,15.499z"/>
	</g>
</g>
<g id="Sun_21_">
	<g>
		<path style="fill-rule:evenodd;clip-rule:evenodd;fill:#FFCC66;" d="M3.549,13.499h27.05c0.611-0.5,1.042-1.445,0.856-2.142
			c-3.592,0.963-3.445-1.147-5.347-0.638c-0.446,0.119-0.79,0.354-1.047,0.601c-0.303-0.653-0.667-1.277-1.103-1.852
			c0.104-0.382,0.267-0.78,0.528-1.041c0.896-0.896,1.632-0.219,2.828-1.414c0.641-0.641,0.656-2.173,0-2.829
			c-2.629,2.63-3.558,0.729-4.95,2.122C22.04,6.631,21.86,7.002,21.76,7.343c-0.582-0.41-1.209-0.768-1.886-1.052
			c-0.1-0.382-0.157-0.805-0.062-1.159c0.328-1.224,1.305-1.005,1.742-2.639c0.235-0.875-0.519-2.209-1.414-2.449
			c-0.962,3.592-2.716,2.41-3.226,4.313c-0.118,0.44-0.089,0.85-0.006,1.193c-0.727-0.067-1.446-0.044-2.15,0.045
			c-0.279-0.282-0.544-0.623-0.64-0.98c-0.328-1.224,0.627-1.522,0.189-3.156c-0.234-0.875-1.554-1.654-2.449-1.414
			c0.962,3.592-1.147,3.445-0.638,5.348c0.12,0.447,0.354,0.791,0.602,1.049c-0.653,0.303-1.277,0.667-1.852,1.102
			C9.588,7.437,9.189,7.274,8.929,7.014C8.033,6.117,8.71,5.381,7.515,4.185c-0.641-0.641-2.173-0.655-2.828,0
			c2.629,2.63,0.729,3.558,2.121,4.95c0.324,0.324,0.695,0.504,1.036,0.604c-0.411,0.582-0.769,1.209-1.053,1.886
			c-0.381,0.1-0.804,0.156-1.157,0.062c-1.224-0.328-1.005-1.305-2.639-1.742c-0.875-0.234-2.209,0.519-2.45,1.414
			C2.695,11.934,3.135,12.792,3.549,13.499z"/>
	</g>
</g>
<g>
</g>
<g>
</g>
<g>
</g>
<g>
</g>
<g>
</g>
<g>
</g>
<g>
</g>
<g>
</g>
<g>
</g>
<g>
</g>
<g>
</g>
<g>
</g>
<g>
</g>
<g>
</g>
<g>
</g>
</svg>
