<?xml version="1.0" encoding="iso-8859-1"?>
<!-- Generator: Adobe Illustrator 16.0.0, SVG Export Plug-In . SVG Version: 6.00 Build 0)  -->
<!DOCTYPE svg PUBLIC "-//W3C//DTD SVG 1.1//EN" "http://www.w3.org/Graphics/SVG/1.1/DTD/svg11.dtd">
<svg version="1.1" id="Layer_1" xmlns="http://www.w3.org/2000/svg" xmlns:xlink="http://www.w3.org/1999/xlink" x="0px" y="0px"
	 width="32px" height="33.499px" viewBox="0 0 32 33.499" style="enable-background:new 0 0 32 33.499;" xml:space="preserve">
<g id="Land_1_">
	<g>
		<path style="fill:#CCCCCC;" d="M30,9.499H2c-1.104,0-2,0.895-2,2c0,1.104,0.896,1.999,2,1.999h28c1.104,0,2-0.895,2-1.999
			C32,10.394,31.104,9.499,30,9.499z"/>
	</g>
</g>
<g id="Sun_20_">
	<g>
		<path style="fill-rule:evenodd;clip-rule:evenodd;fill:#FFCC66;" d="M7.515,4.186C6.874,3.544,5.342,3.529,4.687,4.185
			c1.547,1.547,1.526,2.504,1.53,3.314h3.637C9.509,7.394,9.163,7.248,8.929,7.014C8.033,6.117,8.711,5.381,7.515,4.186z
			 M27.313,4.186c-2.63,2.629-3.558,0.729-4.949,2.12C22.04,6.63,21.86,7.001,21.76,7.342c-0.582-0.411-1.209-0.769-1.886-1.052
			c-0.099-0.382-0.156-0.805-0.062-1.158c0.328-1.224,1.305-1.005,1.742-2.639c0.235-0.875-0.518-2.209-1.414-2.449
			c-0.962,3.592-2.716,2.41-3.226,4.313c-0.118,0.44-0.088,0.849-0.006,1.193c-0.727-0.067-1.446-0.044-2.15,0.045
			c-0.279-0.282-0.544-0.623-0.64-0.98c-0.328-1.224,0.627-1.522,0.189-3.156c-0.235-0.875-1.554-1.654-2.45-1.414
			c0.963,3.592-1.146,3.445-0.638,5.347c0.12,0.447,0.355,0.792,0.603,1.049c-0.631,0.292-1.231,0.644-1.79,1.059h16.651
			c0.197-0.115,0.402-0.26,0.628-0.485C27.954,6.372,27.97,4.841,27.313,4.186z"/>
	</g>
</g>
<g>
</g>
<g>
</g>
<g>
</g>
<g>
</g>
<g>
</g>
<g>
</g>
<g>
</g>
<g>
</g>
<g>
</g>
<g>
</g>
<g>
</g>
<g>
</g>
<g>
</g>
<g>
</g>
<g>
</g>
</svg>
