<?xml version="1.0" encoding="iso-8859-1"?>
<!-- Generator: Adobe Illustrator 16.0.0, SVG Export Plug-In . SVG Version: 6.00 Build 0)  -->
<!DOCTYPE svg PUBLIC "-//W3C//DTD SVG 1.1//EN" "http://www.w3.org/Graphics/SVG/1.1/DTD/svg11.dtd">
<svg version="1.1" id="Layer_1" xmlns="http://www.w3.org/2000/svg" xmlns:xlink="http://www.w3.org/1999/xlink" x="0px" y="0px"
	 width="28px" height="17.005px" viewBox="0 0 28 17.005" style="enable-background:new 0 0 28 17.005;" xml:space="preserve">
<g id="Sun_18_">
	<g>
		<path style="fill-rule:evenodd;clip-rule:evenodd;fill:#FFCC66;" d="M10,8.001c3,0,2.938,2,4,2c1,0,1-2,4-2
			c2.732,0,2.978,1.654,3.755,1.95C21.913,9.327,22,8.674,22,8.001C22,3.582,18.418,0,14,0C9.581,0,6,3.582,6,8.001
			c0,0.673,0.087,1.326,0.245,1.95C7.022,9.655,7.268,8.001,10,8.001z"/>
	</g>
</g>
<g id="Water_8_">
	<g>
		<path style="fill:#54BBFF;" d="M26,11.001c-3,0-3,2-4,2s-1-2-4-2s-3,2-4,2c-1.063,0-1-2-4-2s-3,2-4,2s-1-2-4-2c-1,0-2,1-2,2
			s1,2,2,2s1,2,4,2s3-2,4-2s1,2.004,4,2.004s3-2.004,4-2.004s1,2,4,2s3-2,4-2s2-1,2-2S27,11.001,26,11.001z"/>
	</g>
</g>
<g>
</g>
<g>
</g>
<g>
</g>
<g>
</g>
<g>
</g>
<g>
</g>
<g>
</g>
<g>
</g>
<g>
</g>
<g>
</g>
<g>
</g>
<g>
</g>
<g>
</g>
<g>
</g>
<g>
</g>
</svg>
