<?xml version="1.0" encoding="iso-8859-1"?>
<!-- Generator: Adobe Illustrator 16.0.0, SVG Export Plug-In . SVG Version: 6.00 Build 0)  -->
<!DOCTYPE svg PUBLIC "-//W3C//DTD SVG 1.1//EN" "http://www.w3.org/Graphics/SVG/1.1/DTD/svg11.dtd">
<svg version="1.1" id="Layer_1" xmlns="http://www.w3.org/2000/svg" xmlns:xlink="http://www.w3.org/1999/xlink" x="0px" y="0px"
	 width="32px" height="28px" viewBox="0 0 32 28" style="enable-background:new 0 0 32 28;" xml:space="preserve">
<g id="Sun_17_">
	<g>
		<path style="fill-rule:evenodd;clip-rule:evenodd;fill:#FFCC66;" d="M8.823,7.336c0.765-0.862,1.791-1.337,2.892-1.337
			c1.099,0,2.125,0.475,2.891,1.336C14.985,7.764,15.48,8,16,8s1.016-0.236,1.396-0.665c0.765-0.861,1.791-1.336,2.89-1.336
			c0.001,0,0.001,0,0.001,0c1.1,0,2.126,0.475,2.892,1.336c0.234,0.265,0.516,0.446,0.816,0.554C23.935,3.521,20.381,0,16,0
			c-4.375,0-7.925,3.513-7.993,7.873C8.307,7.771,8.59,7.599,8.823,7.336z"/>
	</g>
</g>
<g id="Water_7_">
	<g>
		<path style="fill-rule:evenodd;clip-rule:evenodd;fill:#54BBFF;" d="M31.748,10.336c-0.764-0.862-1.79-1.337-2.89-1.337
			c-0.001,0-0.001,0-0.001,0c-1.1,0-2.127,0.475-2.892,1.336C25.586,10.764,25.09,11,24.57,11c0,0,0,0-0.001,0
			c-0.519-0.001-1.013-0.236-1.392-0.665c-0.766-0.861-1.792-1.336-2.892-1.336c0,0,0,0-0.001,0c-1.099,0-2.125,0.475-2.89,1.336
			C17.016,10.764,16.52,11,16,11s-1.015-0.236-1.395-0.665c-0.766-0.861-1.792-1.336-2.891-1.336c-1.101,0-2.127,0.475-2.892,1.337
			c-0.76,0.856-2.029,0.856-2.789-0.001C5.269,9.474,4.242,8.999,3.143,8.999s-2.126,0.475-2.891,1.336
			c-0.367,0.413-0.329,1.046,0.084,1.412c0.414,0.366,1.045,0.328,1.412-0.084c0.76-0.856,2.03-0.855,2.79,0
			C5.303,12.524,6.329,13,7.429,13c1.099,0,2.125-0.476,2.891-1.337c0.76-0.856,2.03-0.855,2.79,0
			c0.765,0.861,1.791,1.336,2.89,1.337H16c1.1-0.001,2.126-0.476,2.892-1.337c0.76-0.856,2.031-0.855,2.789-0.001
			c0.764,0.861,1.789,1.337,2.888,1.338c0.001,0,0.002,0,0.002,0c1.1-0.001,2.126-0.475,2.892-1.337
			c0.38-0.428,0.875-0.664,1.396-0.664c0.52,0,1.015,0.236,1.395,0.664c0.366,0.412,0.998,0.449,1.411,0.084
			C32.077,11.381,32.114,10.749,31.748,10.336z M20.033,13.999C20.033,13.999,20.033,13.999,20.033,13.999
			c-1.035,0.001-2.001,0.476-2.721,1.337c-0.357,0.429-0.824,0.665-1.313,0.665c-0.489-0.001-0.955-0.236-1.313-0.665
			c-0.72-0.861-1.686-1.337-2.721-1.337s-2.001,0.476-2.721,1.337c-0.346,0.413-0.31,1.046,0.079,1.412
			c0.389,0.367,0.983,0.328,1.329-0.084c0.715-0.857,1.91-0.857,2.626,0c0.72,0.861,1.686,1.336,2.719,1.337
			c0.002,0,0.002,0,0.002,0c1.034-0.001,2-0.476,2.721-1.337c0.716-0.857,1.911-0.857,2.626,0c0.346,0.413,0.94,0.45,1.329,0.084
			c0.389-0.367,0.424-0.999,0.079-1.412C22.034,14.474,21.068,13.999,20.033,13.999z"/>
	</g>
</g>
<g>
</g>
<g>
</g>
<g>
</g>
<g>
</g>
<g>
</g>
<g>
</g>
<g>
</g>
<g>
</g>
<g>
</g>
<g>
</g>
<g>
</g>
<g>
</g>
<g>
</g>
<g>
</g>
<g>
</g>
</svg>
