<?xml version="1.0" encoding="iso-8859-1"?>
<!-- Generator: Adobe Illustrator 16.0.0, SVG Export Plug-In . SVG Version: 6.00 Build 0)  -->
<!DOCTYPE svg PUBLIC "-//W3C//DTD SVG 1.1//EN" "http://www.w3.org/Graphics/SVG/1.1/DTD/svg11.dtd">
<svg version="1.1" id="Layer_1" xmlns="http://www.w3.org/2000/svg" xmlns:xlink="http://www.w3.org/1999/xlink" x="0px" y="0px"
	 width="28.017px" height="32px" viewBox="0 0 28.017 32" style="enable-background:new 0 0 28.017 32;" xml:space="preserve">
<g id="Thermometter">
	<g>
		<path style="fill-rule:evenodd;clip-rule:evenodd;fill:#FFFFFF;" d="M13,17.761V5c0-2.762-2.238-5-5-5S3,2.238,3,5v12.761
			C1.173,19.227,0,21.475,0,24c0,4.418,3.582,8,8,8s8-3.582,8-8C16,21.475,14.827,19.227,13,17.761z"/>
	</g>
</g>
<g id="Thermometter_1_">
	<g>
		<path style="fill-rule:evenodd;clip-rule:evenodd;fill:#CCCCCC;" d="M13,17.761V5c0-2.762-2.238-5-5-5S3,2.238,3,5v12.761
			C1.173,19.227,0,21.475,0,24c0,4.418,3.582,8,8,8s8-3.582,8-8C16,21.475,14.827,19.227,13,17.761z M8,30.013
			c-3.321,0-6.014-2.692-6.014-6.013c0-2.225,1.216-4.154,3.014-5.192V18v-2V5c0-1.657,1.343-3,3-3c1.656,0,3,1.343,3,3v11v2v0.808
			c1.797,1.039,3.013,2.967,3.013,5.192C14.013,27.32,11.32,30.013,8,30.013z"/>
	</g>
</g>
<g id="Cold">
	<g>
		<path style="fill-rule:evenodd;clip-rule:evenodd;fill:#48A0DC;" d="M8,28c2.209,0,4-1.791,4-4H4C4,26.209,5.791,28,8,28z"/>
	</g>
</g>
<g id="Snowflake_7_">
	<g>
		<path style="fill-rule:evenodd;clip-rule:evenodd;fill:#48A0DC;" d="M27.546,7.134L24.883,5.5l2.663-1.634
			c0.45-0.276,0.604-0.888,0.345-1.366s-0.836-0.643-1.286-0.366L24,3.731V1c0-0.553-0.448-1-1-1c-0.553,0-1,0.447-1,1v2.731
			l-2.604-1.598c-0.45-0.276-1.026-0.112-1.286,0.366s-0.105,1.09,0.345,1.366L21.117,5.5l-2.663,1.634
			C18.004,7.41,17.85,8.021,18.109,8.5s0.836,0.643,1.286,0.366L22,7.269V10c0,0.552,0.447,1,1,1c0.552,0,1-0.448,1-1V7.269
			l2.604,1.598c0.45,0.276,1.026,0.112,1.286-0.366S27.996,7.41,27.546,7.134z"/>
	</g>
</g>
<g>
</g>
<g>
</g>
<g>
</g>
<g>
</g>
<g>
</g>
<g>
</g>
<g>
</g>
<g>
</g>
<g>
</g>
<g>
</g>
<g>
</g>
<g>
</g>
<g>
</g>
<g>
</g>
<g>
</g>
</svg>
