<?xml version="1.0" encoding="iso-8859-1"?>
<!-- Generator: Adobe Illustrator 16.0.0, SVG Export Plug-In . SVG Version: 6.00 Build 0)  -->
<!DOCTYPE svg PUBLIC "-//W3C//DTD SVG 1.1//EN" "http://www.w3.org/Graphics/SVG/1.1/DTD/svg11.dtd">
<svg version="1.1" id="Layer_1" xmlns="http://www.w3.org/2000/svg" xmlns:xlink="http://www.w3.org/1999/xlink" x="0px" y="0px"
	 width="32px" height="32px" viewBox="0 0 32 32" style="enable-background:new 0 0 32 32;" xml:space="preserve">
<g id="Thermometter_2_">
	<g>
		<path style="fill-rule:evenodd;clip-rule:evenodd;fill:#FFFFFF;" d="M13,17.761V5c0-2.762-2.238-5-5-5S3,2.238,3,5v12.76
			C1.173,19.227,0,21.475,0,24c0,4.418,3.581,8,8,8c4.418,0,8-3.582,8-8C16,21.475,14.827,19.227,13,17.761z"/>
	</g>
</g>
<g id="Thermometter_3_">
	<g>
		<path style="fill-rule:evenodd;clip-rule:evenodd;fill:#CCCCCC;" d="M13,17.761V5c0-2.762-2.238-5-5-5S3,2.238,3,5v12.76
			C1.173,19.227,0,21.475,0,24c0,4.418,3.581,8,8,8c4.418,0,8-3.582,8-8C16,21.475,14.827,19.227,13,17.761z M8,30.013
			c-3.321,0-6.014-2.692-6.014-6.013c0-2.225,1.216-4.154,3.014-5.192V18v-1V5c0-1.657,1.343-3,3-3c1.656,0,3,1.343,3,3v12v1v0.808
			c1.797,1.039,3.013,2.967,3.013,5.192C14.013,27.32,11.32,30.013,8,30.013z"/>
	</g>
</g>
<g id="Hot">
	<g>
		<path style="fill-rule:evenodd;clip-rule:evenodd;fill:#ED7161;" d="M9,20.142V5c0-0.553-0.448-1-1-1C7.447,4,7,4.447,7,5v15.142
			C5.278,20.588,4,22.139,4,24c0,2.209,1.791,4,4,4s4-1.791,4-4C12,22.139,10.722,20.588,9,20.142z"/>
	</g>
</g>
<g id="Sun_15_">
	<g>
		<path style="fill:#FFCC66;" d="M29.188,7.875c-0.264,0-0.473,0.086-0.649,0.185c-0.068-0.404-0.192-0.786-0.343-1.154
			c0.113-0.199,0.258-0.404,0.444-0.513c0.617-0.355,0.919,0.119,1.743-0.356c0.441-0.255,0.672-1.085,0.411-1.536
			c-1.812,1.046-2.039-0.122-2.998,0.432c-0.241,0.14-0.384,0.33-0.487,0.514C27.05,5.137,26.77,4.848,26.451,4.6
			c-0.002-0.232,0.021-0.487,0.13-0.677c0.356-0.617,0.854-0.356,1.331-1.181c0.254-0.441,0.039-1.275-0.412-1.537
			c-1.046,1.813-1.827,0.914-2.381,1.873c-0.139,0.241-0.167,0.478-0.165,0.688c-0.375-0.14-0.762-0.254-1.17-0.312
			c-0.116-0.199-0.222-0.427-0.222-0.642c0-0.713,0.563-0.736,0.563-1.688C24.125,0.615,23.521,0,23,0
			c0,2.092-1.125,1.705-1.125,2.813c0,0.268,0.088,0.479,0.188,0.656c-0.403,0.068-0.784,0.19-1.151,0.34
			c-0.202-0.114-0.41-0.26-0.519-0.448c-0.356-0.617,0.119-0.919-0.356-1.743c-0.256-0.441-1.086-0.673-1.537-0.412
			c1.046,1.813-0.122,2.04,0.432,2.999c0.14,0.241,0.331,0.384,0.515,0.488c-0.31,0.258-0.6,0.538-0.85,0.855
			c-0.231,0.002-0.485-0.02-0.674-0.129c-0.617-0.356-0.356-0.855-1.181-1.331c-0.441-0.255-1.275-0.04-1.537,0.412
			c1.813,1.046,0.915,1.826,1.874,2.38c0.237,0.138,0.472,0.166,0.68,0.166c-0.14,0.376-0.256,0.765-0.313,1.175
			c-0.197,0.113-0.42,0.217-0.633,0.217c-0.713,0-0.736-0.563-1.688-0.563C14.615,7.875,14,8.479,14,9
			c2.092,0,1.705,1.125,2.813,1.125c0.264,0,0.473-0.086,0.649-0.185c0.068,0.403,0.191,0.785,0.343,1.153
			c-0.114,0.2-0.258,0.405-0.444,0.513c-0.617,0.356-0.919-0.119-1.743,0.356c-0.441,0.255-0.673,1.085-0.412,1.537
			c1.813-1.046,2.04,0.121,2.999-0.433c0.241-0.139,0.384-0.33,0.487-0.513c0.259,0.309,0.539,0.597,0.857,0.845
			c0.002,0.233-0.021,0.488-0.13,0.678c-0.356,0.617-0.855,0.356-1.331,1.18c-0.255,0.441-0.04,1.276,0.412,1.537
			c1.046-1.812,1.827-0.914,2.381-1.873c0.139-0.241,0.166-0.477,0.165-0.688c0.375,0.14,0.762,0.255,1.17,0.313
			c0.116,0.198,0.222,0.426,0.222,0.642c0,0.713-0.563,0.736-0.563,1.688C21.875,17.385,22.479,18,23,18
			c0-2.092,1.125-1.705,1.125-2.813c0-0.268-0.088-0.479-0.189-0.657c0.403-0.067,0.785-0.189,1.152-0.339
			c0.202,0.114,0.41,0.26,0.519,0.448c0.356,0.617-0.119,0.919,0.356,1.742c0.255,0.442,1.085,0.673,1.537,0.412
			c-1.046-1.812,0.122-2.039-0.432-2.998c-0.14-0.242-0.332-0.385-0.516-0.488c0.311-0.259,0.601-0.538,0.85-0.856
			c0.232-0.002,0.486,0.021,0.675,0.13c0.617,0.355,0.356,0.854,1.181,1.33c0.441,0.255,1.275,0.04,1.536-0.411
			c-1.812-1.046-0.914-1.827-1.873-2.381c-0.238-0.138-0.472-0.166-0.681-0.165c0.141-0.377,0.257-0.765,0.313-1.175
			c0.197-0.114,0.421-0.217,0.634-0.217c0.713,0,0.736,0.563,1.688,0.563C31.385,10.125,32,9.521,32,9
			C29.908,9,30.295,7.875,29.188,7.875z"/>
	</g>
</g>
<g>
</g>
<g>
</g>
<g>
</g>
<g>
</g>
<g>
</g>
<g>
</g>
<g>
</g>
<g>
</g>
<g>
</g>
<g>
</g>
<g>
</g>
<g>
</g>
<g>
</g>
<g>
</g>
<g>
</g>
</svg>
