<?xml version="1.0" encoding="iso-8859-1"?>
<!-- Generator: Adobe Illustrator 16.0.0, SVG Export Plug-In . SVG Version: 6.00 Build 0)  -->
<!DOCTYPE svg PUBLIC "-//W3C//DTD SVG 1.1//EN" "http://www.w3.org/Graphics/SVG/1.1/DTD/svg11.dtd">
<svg version="1.1" id="Layer_1" xmlns="http://www.w3.org/2000/svg" xmlns:xlink="http://www.w3.org/1999/xlink" x="0px" y="0px"
	 width="16px" height="32px" viewBox="0 0 16 32" style="enable-background:new 0 0 16 32;" xml:space="preserve">
<g id="Thermometter_4_">
	<g>
		<path style="fill-rule:evenodd;clip-rule:evenodd;fill:#FFFFFF;" d="M13,17.761V5c0-2.762-2.238-5-5-5S3,2.238,3,5v12.76
			C1.173,19.227,0,21.475,0,24c0,4.418,3.581,8,8,8c4.418,0,8-3.582,8-8C16,21.475,14.827,19.227,13,17.761z"/>
	</g>
</g>
<g id="Thermometter_5_">
	<g>
		<path style="fill-rule:evenodd;clip-rule:evenodd;fill:#CCCCCC;" d="M13,17.761V5c0-2.762-2.238-5-5-5S3,2.238,3,5v12.76
			C1.173,19.227,0,21.475,0,24c0,4.418,3.581,8,8,8c4.418,0,8-3.582,8-8C16,21.475,14.827,19.227,13,17.761z M8,30.013
			c-3.321,0-6.014-2.692-6.014-6.013c0-2.225,1.217-4.154,3.014-5.192V18v-2V5c0-1.657,1.343-3,3-3c1.656,0,3,1.343,3,3v11v2v0.808
			c1.796,1.039,3.013,2.967,3.013,5.192C14.013,27.32,11.32,30.013,8,30.013z"/>
	</g>
</g>
<g>
</g>
<g>
</g>
<g>
</g>
<g>
</g>
<g>
</g>
<g>
</g>
<g>
</g>
<g>
</g>
<g>
</g>
<g>
</g>
<g>
</g>
<g>
</g>
<g>
</g>
<g>
</g>
<g>
</g>
</svg>
