<?xml version="1.0" encoding="iso-8859-1"?>
<!-- Generator: Adobe Illustrator 16.0.0, SVG Export Plug-In . SVG Version: 6.00 Build 0)  -->
<!DOCTYPE svg PUBLIC "-//W3C//DTD SVG 1.1//EN" "http://www.w3.org/Graphics/SVG/1.1/DTD/svg11.dtd">
<svg version="1.1" id="Layer_1" xmlns="http://www.w3.org/2000/svg" xmlns:xlink="http://www.w3.org/1999/xlink" x="0px" y="0px"
	 width="38px" height="35.993px" viewBox="0 0 38 35.993" style="enable-background:new 0 0 38 35.993;" xml:space="preserve">
<g id="Shape">
	<g>
		<path style="fill-rule:evenodd;clip-rule:evenodd;fill:#FFCC66;" d="M34.788,29.113l0.012-0.02L20.9,1.399h-0.001
			C20.642,0.591,19.894,0,19,0c-0.895,0-1.642,0.591-1.898,1.399H17.1L3.2,29.094l0.013,0.021C3.081,29.381,3,29.677,3,29.994
			c0,1.104,0.896,1.999,2,1.999h28c1.104,0,2-0.895,2-1.999C35,29.677,34.919,29.381,34.788,29.113z"/>
	</g>
</g>
<g id="Wave">
	<g>
		<path style="fill-rule:evenodd;clip-rule:evenodd;fill:#48A0DC;" d="M34.788,29.113l0.012-0.02l-1.944-3.874
			C32.02,25.36,31.071,25.604,30,25.994c-10.562,3.847-16.042-4.142-11-5.998s6,2.999,6,2.999s4.114-6.998-6-6.998
			c-4.997,0-8.713,1.952-11.198,3.928L3.2,29.094l0.013,0.021C3.081,29.381,3,29.677,3,29.994c0,1.104,0.896,1.999,2,1.999h28
			c1.104,0,2-0.895,2-1.999C35,29.677,34.919,29.381,34.788,29.113z"/>
	</g>
</g>
<g>
</g>
<g>
</g>
<g>
</g>
<g>
</g>
<g>
</g>
<g>
</g>
<g>
</g>
<g>
</g>
<g>
</g>
<g>
</g>
<g>
</g>
<g>
</g>
<g>
</g>
<g>
</g>
<g>
</g>
</svg>
