<?xml version="1.0" encoding="iso-8859-1"?>
<!-- Generator: Adobe Illustrator 16.0.0, SVG Export Plug-In . SVG Version: 6.00 Build 0)  -->
<!DOCTYPE svg PUBLIC "-//W3C//DTD SVG 1.1//EN" "http://www.w3.org/Graphics/SVG/1.1/DTD/svg11.dtd">
<svg version="1.1" id="Layer_1" xmlns="http://www.w3.org/2000/svg" xmlns:xlink="http://www.w3.org/1999/xlink" x="0px" y="0px"
	 width="32px" height="37px" viewBox="0 0 32 37" style="enable-background:new 0 0 32 37;" xml:space="preserve">
<g id="Stick">
	<g>
		<path style="fill:#808080;" d="M16,0c-0.553,0-1,0.447-1,1v26c0,1.656-1.344,3-3,3c-1.657,0-3-1.344-3-3c0-0.553-0.448-1-1-1
			c-0.553,0-1,0.447-1,1c0,2.762,2.238,5,5,5s5-2.238,5-5V1C17,0.447,16.552,0,16,0z"/>
	</g>
</g>
<g id="Umbrella">
	<g>
		<path style="fill-rule:evenodd;clip-rule:evenodd;fill:#88C057;" d="M27,15c2.762,0,5,1.343,5,3c0-8.837-7.164-16-16-16
			C7.163,2,0,9.163,0,18c0-1.657,2.238-3,5-3s5,1.343,5,3c0-1.657,2.687-3,6-3s6,1.343,6,3C22,16.343,24.238,15,27,15z"/>
	</g>
</g>
<g id="Umbrella_1_">
	<g>
		<path style="fill-rule:evenodd;clip-rule:evenodd;fill:#75A64B;" d="M16,15c3.313,0,6,1.343,6,3c0-8.837-2.687-16-6-16
			s-6,7.163-6,16C10,16.343,12.687,15,16,15z"/>
	</g>
</g>
<g>
</g>
<g>
</g>
<g>
</g>
<g>
</g>
<g>
</g>
<g>
</g>
<g>
</g>
<g>
</g>
<g>
</g>
<g>
</g>
<g>
</g>
<g>
</g>
<g>
</g>
<g>
</g>
<g>
</g>
</svg>
