<?xml version="1.0" encoding="iso-8859-1"?>
<!-- Generator: Adobe Illustrator 16.0.0, SVG Export Plug-In . SVG Version: 6.00 Build 0)  -->
<!DOCTYPE svg PUBLIC "-//W3C//DTD SVG 1.1//EN" "http://www.w3.org/Graphics/SVG/1.1/DTD/svg11.dtd">
<svg version="1.1" id="Layer_1" xmlns="http://www.w3.org/2000/svg" xmlns:xlink="http://www.w3.org/1999/xlink" x="0px" y="0px"
	 width="28px" height="14.004px" viewBox="0 0 28 14.004" style="enable-background:new 0 0 28 14.004;" xml:space="preserve">
<g id="Water_4_">
	<g>
		<path style="fill:#54BBFF;" d="M26,0c-3,0-3,2-4,2s-1-2-4-2s-3,2-4,2c-1.063,0-1-2-4-2S7,2,6,2S5,0,2,0C1,0,0,1,0,2s1,2,2,2
			s1,2,4,2s3-2,4-2s1,2.004,4,2.004S17,4,18,4s1,2,4,2s3-2,4-2s2-1,2-2S27,0,26,0z"/>
	</g>
</g>
<g id="Water_5_">
	<g>
		<path style="fill:#54BBFF;" d="M26,8c-3,0-3,2-4,2s-1-2-4-2s-3,2-4,2c-1.063,0-1-2-4-2s-3,2-4,2S5,8,2,8c-1,0-2,1-2,2s1,2,2,2
			s1,2,4,2s3-2,4-2s1,2.004,4,2.004S17,12,18,12s1,2,4,2s3-2,4-2s2-1,2-2S27,8,26,8z"/>
	</g>
</g>
<g>
</g>
<g>
</g>
<g>
</g>
<g>
</g>
<g>
</g>
<g>
</g>
<g>
</g>
<g>
</g>
<g>
</g>
<g>
</g>
<g>
</g>
<g>
</g>
<g>
</g>
<g>
</g>
<g>
</g>
</svg>
