<?xml version="1.0" encoding="iso-8859-1"?>
<!-- Generator: Adobe Illustrator 16.0.0, SVG Export Plug-In . SVG Version: 6.00 Build 0)  -->
<!DOCTYPE svg PUBLIC "-//W3C//DTD SVG 1.1//EN" "http://www.w3.org/Graphics/SVG/1.1/DTD/svg11.dtd">
<svg version="1.1" id="Layer_1" xmlns="http://www.w3.org/2000/svg" xmlns:xlink="http://www.w3.org/1999/xlink" x="0px" y="0px"
	 width="18px" height="32px" viewBox="0 0 18 32" style="enable-background:new 0 0 18 32;" xml:space="preserve">
<g id="Rope">
	<g>
		<path style="fill:#CCCCCC;" d="M9,22c-0.553,0-1,0.447-1,1v8c0,0.552,0.447,1,1,1c0.552,0,1-0.448,1-1v-8C10,22.447,9.552,22,9,22
			z"/>
	</g>
</g>
<g id="Box">
	<g>
		<path style="fill:#666666;" d="M11,28H7c-0.553,0-1,0.447-1,1v2c0,0.552,0.447,1,1,1h4c0.553,0,1-0.448,1-1v-2
			C12,28.447,11.553,28,11,28z"/>
	</g>
</g>
<g id="Ballon">
	<g>
		<path style="fill:#88C057;" d="M9,0C2.925,0,0,4.925,0,11s9.011,13,9,13c-0.029,0,9-6.925,9-13S15.075,0,9,0z"/>
	</g>
</g>
<g>
</g>
<g>
</g>
<g>
</g>
<g>
</g>
<g>
</g>
<g>
</g>
<g>
</g>
<g>
</g>
<g>
</g>
<g>
</g>
<g>
</g>
<g>
</g>
<g>
</g>
<g>
</g>
<g>
</g>
</svg>
