<?xml version="1.0" encoding="iso-8859-1"?>
<!-- Generator: Adobe Illustrator 16.0.0, SVG Export Plug-In . SVG Version: 6.00 Build 0)  -->
<!DOCTYPE svg PUBLIC "-//W3C//DTD SVG 1.1//EN" "http://www.w3.org/Graphics/SVG/1.1/DTD/svg11.dtd">
<svg version="1.1" id="Layer_1" xmlns="http://www.w3.org/2000/svg" xmlns:xlink="http://www.w3.org/1999/xlink" x="0px" y="0px"
	 width="31.991px" height="32.033px" viewBox="0 0 31.991 32.033" style="enable-background:new 0 0 31.991 32.033;"
	 xml:space="preserve">
<g id="Wind_16_">
	<g>
		<path style="fill-rule:evenodd;clip-rule:evenodd;fill:#54BBFF;" d="M23.616,4.801c-6.356-6.401-16.663-6.401-23.021,0
			c-0.794,0.8-0.794,2.098,0,2.897c0.795,0.801,2.083,0.801,2.878,0c4.768-4.801,12.497-4.801,17.265,0
			c1.59,1.601,1.59,4.195,0,5.796c-0.794,0.8-0.794,2.098,0,2.897c0.795,0.8,2.084,0.8,2.878,0
			C26.794,13.191,26.794,8.002,23.616,4.801z"/>
	</g>
</g>
<g id="Wind_17_">
	<g>
		<path style="fill-rule:evenodd;clip-rule:evenodd;fill:#48A0DC;" d="M15.996,7.001c-8.828,0-15.984,7.163-15.984,16
			c0,1.104,0.895,2,1.998,2s1.998-0.896,1.998-2c0-6.628,5.367-12,11.988-12c2.207,0,3.996,1.791,3.996,4c0,1.104,0.895,2,1.998,2
			s1.998-0.896,1.998-2C23.988,10.583,20.41,7.001,15.996,7.001z"/>
	</g>
</g>
<g id="Wind_18_">
	<g>
		<path style="fill-rule:evenodd;clip-rule:evenodd;fill:#54BBFF;" d="M31.396,24.324c-0.793-0.801-2.08-0.801-2.874,0
			c-4.762,4.808-12.482,4.808-17.244,0c-1.588-1.602-1.588-4.2,0-5.802c0.794-0.802,0.794-2.101,0-2.901
			c-0.794-0.802-2.081-0.802-2.874,0c-3.175,3.204-3.175,8.4,0,11.604c6.349,6.41,16.644,6.41,22.992,0
			C32.19,26.425,32.19,25.126,31.396,24.324z"/>
	</g>
</g>
<g id="Wind_19_">
	<g>
		<path style="fill-rule:evenodd;clip-rule:evenodd;fill:#48A0DC;" d="M29.984,7.001c-1.102,0-1.995,0.896-1.995,2.002
			c0,6.636-5.361,12.016-11.974,12.016c-2.205,0-3.992-1.793-3.992-4.005c0-1.106-0.893-2.003-1.995-2.003s-1.996,0.896-1.996,2.003
			c0,4.424,3.574,8.01,7.983,8.01c8.816,0,15.965-7.173,15.965-16.021C31.98,7.897,31.086,7.001,29.984,7.001z"/>
	</g>
</g>
<g>
</g>
<g>
</g>
<g>
</g>
<g>
</g>
<g>
</g>
<g>
</g>
<g>
</g>
<g>
</g>
<g>
</g>
<g>
</g>
<g>
</g>
<g>
</g>
<g>
</g>
<g>
</g>
<g>
</g>
</svg>
