<?xml version="1.0" encoding="iso-8859-1"?>
<!-- Generator: Adobe Illustrator 16.0.0, SVG Export Plug-In . SVG Version: 6.00 Build 0)  -->
<!DOCTYPE svg PUBLIC "-//W3C//DTD SVG 1.1//EN" "http://www.w3.org/Graphics/SVG/1.1/DTD/svg11.dtd">
<svg version="1.1" id="Layer_1" xmlns="http://www.w3.org/2000/svg" xmlns:xlink="http://www.w3.org/1999/xlink" x="0px" y="0px"
	 width="26px" height="31.978px" viewBox="0 0 26 31.978" style="enable-background:new 0 0 26 31.978;" xml:space="preserve">
<g id="Container_1_">
	<g>
		<path style="fill-rule:evenodd;clip-rule:evenodd;fill:#88C057;" d="M21.586,9.3L21.6,9.291L13,0L4.4,9.291L4.414,9.3
			C1.713,11.676,0,15.143,0,19.016c0,7.158,5.82,12.962,13,12.962s13-5.804,13-12.962C26,15.143,24.287,11.676,21.586,9.3z
			 M13,29.982c-6.075,0-11-4.91-11-10.967C2,12.958,6.925,8.047,13,8.047s11,4.911,11,10.969C24,25.072,19.075,29.982,13,29.982z"/>
	</g>
</g>
<g id="Wind_Palette_3_">
	<g>
		<path style="fill:#999999;" d="M19.364,12.67c-0.781-0.779-2.047-0.779-2.828,0c-0.781,0.779-4.317,5.566-3.536,6.346
			c0.781,0.778,5.583-2.747,6.364-3.525C20.145,14.711,20.145,13.449,19.364,12.67z"/>
	</g>
</g>
<g id="Wind_Palette_4_">
	<g>
		<path style="fill:#999999;" d="M13,19.016c-0.781-0.779-5.583,2.746-6.364,3.524c-0.781,0.779-0.781,2.042,0,2.82
			c0.781,0.779,2.048,0.779,2.829,0C10.246,24.582,13.781,19.794,13,19.016z"/>
	</g>
</g>
<g id="Wind_Palette_5_">
	<g>
		<path style="fill:#B3B3B3;" d="M9.464,12.67c-0.781-0.779-2.047-0.779-2.829,0c-0.781,0.779-0.781,2.041,0,2.82
			c0.781,0.778,5.583,4.304,6.364,3.525C13.781,18.236,10.246,13.449,9.464,12.67z"/>
	</g>
</g>
<g id="Wind_Palettev_1_">
	<g>
		<path style="fill:#B3B3B3;" d="M19.364,22.54c-0.781-0.778-5.583-4.304-6.364-3.524c-0.781,0.778,2.754,5.566,3.536,6.345
			c0.781,0.779,2.047,0.779,2.828,0C20.145,24.582,20.145,23.319,19.364,22.54z"/>
	</g>
</g>
<g>
</g>
<g>
</g>
<g>
</g>
<g>
</g>
<g>
</g>
<g>
</g>
<g>
</g>
<g>
</g>
<g>
</g>
<g>
</g>
<g>
</g>
<g>
</g>
<g>
</g>
<g>
</g>
<g>
</g>
</svg>
