<?xml version="1.0" encoding="iso-8859-1"?>
<!-- Generator: Adobe Illustrator 16.0.0, SVG Export Plug-In . SVG Version: 6.00 Build 0)  -->
<!DOCTYPE svg PUBLIC "-//W3C//DTD SVG 1.1//EN" "http://www.w3.org/Graphics/SVG/1.1/DTD/svg11.dtd">
<svg version="1.1" id="Layer_1" xmlns="http://www.w3.org/2000/svg" xmlns:xlink="http://www.w3.org/1999/xlink" x="0px" y="0px"
	 width="32px" height="32px" viewBox="0 0 32 32" style="enable-background:new 0 0 32 32;" xml:space="preserve">
<g id="Wind_20_">
	<g>
		<path style="fill-rule:evenodd;clip-rule:evenodd;fill:#54BBFF;" d="M26,6c-1.104,0-2,0.896-2,2s0.896,2,2,2s2,0.896,2,2
			s-0.896,2-2,2h-2h-3.651H10c-1.104,0-2,0.896-2,2s0.896,2,2,2h16c3.313,0,6-2.687,6-6S29.313,6,26,6z"/>
	</g>
</g>
<g id="Wind_21_">
	<g>
		<path style="fill-rule:evenodd;clip-rule:evenodd;fill:#48A0DC;" d="M16,20h-1.079H9H8c-2.209,0-4-1.791-4-4s1.791-4,4-4h1h5.921
			H16c3.313,0,6-2.687,6-6c0-3.176-2.475-5.749-5.597-5.96C16.273,0.014,16.138,0,16,0c-1.104,0-2,0.896-2,2s0.896,2,2,2
			s2,0.896,2,2s-0.896,2-2,2h-5.633H9C8.862,8,8.728,8.014,8.598,8.041C8.399,8.025,8.203,8,8,8c-4.418,0-8,3.581-8,8
			c0,4.418,3.582,8,8,8h2.367H16c1.104,0,2,0.896,2,2s-0.896,2-2,2s-2,0.896-2,2s0.896,2,2,2c0.138,0,0.273-0.015,0.403-0.041
			C19.525,31.748,22,29.176,22,26C22,22.686,19.313,20,16,20z"/>
	</g>
</g>
<g>
</g>
<g>
</g>
<g>
</g>
<g>
</g>
<g>
</g>
<g>
</g>
<g>
</g>
<g>
</g>
<g>
</g>
<g>
</g>
<g>
</g>
<g>
</g>
<g>
</g>
<g>
</g>
<g>
</g>
</svg>
