<?xml version="1.0" encoding="iso-8859-1"?>
<!-- Generator: Adobe Illustrator 16.0.0, SVG Export Plug-In . SVG Version: 6.00 Build 0)  -->
<!DOCTYPE svg PUBLIC "-//W3C//DTD SVG 1.1//EN" "http://www.w3.org/Graphics/SVG/1.1/DTD/svg11.dtd">
<svg version="1.1" id="Layer_1" xmlns="http://www.w3.org/2000/svg" xmlns:xlink="http://www.w3.org/1999/xlink" x="0px" y="0px"
	 width="32.026px" height="29.999px" viewBox="0 0 32.026 29.999" style="enable-background:new 0 0 32.026 29.999;"
	 xml:space="preserve">
<g id="Arrow">
	<g>
		<path style="fill-rule:evenodd;clip-rule:evenodd;fill:#B3B3B3;" d="M31,25.995l1-2h-2l-1,2h-2l1-2h-2l-1.333,2H6v-1.084
			c0-2.495-5,1.05-5,1.05c-0.573,0.436-1,0.732-1,1.05c0,0.186,0.302,0.544,1,1.049c0,0,5,3.545,5,1.05v-1.114h18.667l1.333,2h2
			l-1-2h2l1,2h2l-1-2V25.995z"/>
	</g>
</g>
<g id="Rooster">
	<g>
		<path style="fill-rule:evenodd;clip-rule:evenodd;fill:#4D4D4D;" d="M8.718,0.192c0.016,0,0.026,0.009,0.042,0.01
			C8.843,0.107,8.853,0.075,8.718,0.192z M25.66,5.004c-3.551-0.001-4.148,5.995-9.773,5.995c-2.378,0-2.585-5.324-4.858-7.15
			C10.31,3.272,9.343,3.076,8.525,2.31C9.913,2.123,9.741,0.266,8.76,0.203C8.449,0.561,7.049,1.857,7.755,0
			c-0.862,0.948-0.906,0.472-1.54,1.348C5.753,1.424,6.321,0.471,5.637,0.771C4.897,2.16,4.965,3.352,5.06,4.812
			c0.331,0.075,0.846-0.099,0.93,0.188c-0.655,0.73-0.088,1.336,0.033,1.929c-2.712,8.81,4.422,11.575,8.874,15.071
			c-0.004,1.214,0.139,2.34-0.403,3.018c-0.805,0.1-3.441,0.832-3.555,0.982c-0.547,0-0.99,0.447-0.99,1s0.443,1,0.99,1h4.948
			c0.547,0,0.989-0.447,0.989-1s-0.442-1-0.989-1c-0.272-0.122,1.165-3.627,0.989-5c3.509,0,3.959-3,3.959-3s3.599-0.058,5.98-3.566
			c2.578-0.855,3.916-4.733,3.916-0.434C30.732,14.959,35.874,5.004,25.66,5.004z"/>
	</g>
</g>
<g>
</g>
<g>
</g>
<g>
</g>
<g>
</g>
<g>
</g>
<g>
</g>
<g>
</g>
<g>
</g>
<g>
</g>
<g>
</g>
<g>
</g>
<g>
</g>
<g>
</g>
<g>
</g>
<g>
</g>
</svg>
