<?xml version="1.0" encoding="iso-8859-1"?>
<!-- Generator: Adobe Illustrator 16.0.0, SVG Export Plug-In . SVG Version: 6.00 Build 0)  -->
<!DOCTYPE svg PUBLIC "-//W3C//DTD SVG 1.1//EN" "http://www.w3.org/Graphics/SVG/1.1/DTD/svg11.dtd">
<svg version="1.1" id="Layer_1" xmlns="http://www.w3.org/2000/svg" xmlns:xlink="http://www.w3.org/1999/xlink" x="0px" y="0px"
	 width="31.993px" height="31.993px" viewBox="0 0 31.993 31.993" style="enable-background:new 0 0 31.993 31.993;"
	 xml:space="preserve">
<g id="Wind_Palette">
	<g>
		<path style="fill:#FFCC66;" d="M16.028,0c-1.965,0.002-2.022,0.054-2.024,2.018c-0.002,1.963,0.043,13.98,2.009,13.979
			s3.568-10.481,3.57-12.445C19.584,1.588,17.993-0.002,16.028,0z"/>
	</g>
</g>
<g id="Wind_Palette_6_">
	<g>
		<path style="fill:#FFCC66;" d="M16.012,15.996c-1.965,0.002-3.568,10.482-3.57,12.445c-0.002,1.964,1.589,3.554,3.555,3.552
			s2.005-0.04,2.007-2.003C18.005,28.026,17.978,15.994,16.012,15.996z"/>
	</g>
</g>
<g id="Wind_Palette_2_">
	<g>
		<path style="fill:#FFCC66;" d="M3.562,12.018C1.597,12.02,0.002,13.737,0,15.855c-0.002,2.117,0.038,2.148,2.003,2.146
			C3.968,18,16.01,17.956,16.012,15.839C16.014,13.721,5.527,12.016,3.562,12.018z"/>
	</g>
</g>
<g id="Wind_Palettev">
	<g>
		<path style="fill:#FFCC66;" d="M30.003,14.006c-1.961,0.002-13.989,0.029-13.991,2.159s10.465,3.845,12.426,3.843
			s3.553-1.73,3.555-3.859C31.995,14.019,31.965,14.004,30.003,14.006z"/>
	</g>
</g>
<g id="Elipse">
	<g>
		<circle style="fill:#9B7CAB;" cx="16.003" cy="16.004" r="2.997"/>
	</g>
</g>
<g>
</g>
<g>
</g>
<g>
</g>
<g>
</g>
<g>
</g>
<g>
</g>
<g>
</g>
<g>
</g>
<g>
</g>
<g>
</g>
<g>
</g>
<g>
</g>
<g>
</g>
<g>
</g>
<g>
</g>
</svg>
