<?xml version="1.0" encoding="iso-8859-1"?>
<!-- Generator: Adobe Illustrator 16.0.0, SVG Export Plug-In . SVG Version: 6.00 Build 0)  -->
<!DOCTYPE svg PUBLIC "-//W3C//DTD SVG 1.1//EN" "http://www.w3.org/Graphics/SVG/1.1/DTD/svg11.dtd">
<svg version="1.1" id="Layer_1" xmlns="http://www.w3.org/2000/svg" xmlns:xlink="http://www.w3.org/1999/xlink" x="0px" y="0px"
	 width="32px" height="33.967px" viewBox="0 0 32 33.967" style="enable-background:new 0 0 32 33.967;" xml:space="preserve">
<g id="Henge">
	<g>
		<path style="fill-rule:evenodd;clip-rule:evenodd;fill:#CCCCCC;" d="M31,13.986h-4c-0.553,0-1,0.447-1,0.999s0.447,0.999,1,0.999
			h4c0.553,0,1-0.447,1-0.999S31.553,13.986,31,13.986z M27,5.994h4c0.553,0,1-0.447,1-0.999s-0.447-0.999-1-0.999h-4
			c-0.553,0-1,0.447-1,0.999S26.447,5.994,27,5.994z"/>
	</g>
</g>
<g id="Pole_2_">
	<g>
		<path style="fill:#808080;" d="M31,1.998c-0.553,0-1,0.447-1,0.999v29.971c0,0.552,0.447,0.999,1,0.999s1-0.447,1-0.999V2.997
			C32,2.445,31.553,1.998,31,1.998z"/>
	</g>
</g>
<g id="Tube">
	<g>
		<path style="fill:#ED7161;" d="M26,1.998L2,3.996c-1.104,0-2,0.895-2,1.998v7.992c0,1.104,0.896,1.998,2,1.998l24,1.998
			c1.104,0,2-0.895,2-1.998V3.996C28,2.893,27.104,1.998,26,1.998z"/>
	</g>
</g>
<g id="Stripes">
	<g>
		<path style="fill-rule:evenodd;clip-rule:evenodd;fill:#CCCCCC;" d="M2,15.984l8,0.666V3.33L2,3.996V15.984z M18,2.664v14.652
			l8,0.666V1.998L18,2.664z"/>
	</g>
</g>
<g>
</g>
<g>
</g>
<g>
</g>
<g>
</g>
<g>
</g>
<g>
</g>
<g>
</g>
<g>
</g>
<g>
</g>
<g>
</g>
<g>
</g>
<g>
</g>
<g>
</g>
<g>
</g>
<g>
</g>
</svg>
