<?xml version="1.0" encoding="iso-8859-1"?>
<!-- Generator: Adobe Illustrator 16.0.0, SVG Export Plug-In . SVG Version: 6.00 Build 0)  -->
<!DOCTYPE svg PUBLIC "-//W3C//DTD SVG 1.1//EN" "http://www.w3.org/Graphics/SVG/1.1/DTD/svg11.dtd">
<svg version="1.1" id="Layer_1" xmlns="http://www.w3.org/2000/svg" xmlns:xlink="http://www.w3.org/1999/xlink" x="0px" y="0px"
	 width="32px" height="29px" viewBox="0 0 32 29" style="enable-background:new 0 0 32 29;" xml:space="preserve">
<g id="Wind_22_">
	<g>
		<path style="fill-rule:evenodd;clip-rule:evenodd;fill:#72C1F7;" d="M26.364,20H10.03C9.461,20,9,20.447,9,21
			c0,0.552,0.461,1,1.03,1h11.697h0.783h3.854c1.422,0,2.576,1.119,2.576,2.5S27.786,27,26.364,27c-1.423,0-2.576-1.119-2.576-2.5
			c0-0.553-0.461-1-1.03-1c-0.569,0-1.03,0.447-1.03,1c0,2.485,2.076,4.5,4.637,4.5C28.924,29,31,26.985,31,24.5
			S28.924,20,26.364,20z"/>
	</g>
</g>
<g id="Wind_23_">
	<g>
		<path style="fill-rule:evenodd;clip-rule:evenodd;fill:#48A0DC;" d="M23,0c-4.971,0-9,4.029-9,9c0,1.104,0.896,2,2,2s2-0.896,2-2
			c0-2.762,2.239-5,5-5s5,2.238,5,5s-2.239,5-5,5h-7.482H14H2c-1.104,0-2,0.896-2,2s0.896,2,2,2h21c4.971,0,9-4.029,9-9
			S27.971,0,23,0z"/>
	</g>
</g>
<g id="Wind_24_">
	<g>
		<path style="fill:#72C1F7;" d="M10,10H4c-0.552,0-1,0.447-1,1c0,0.552,0.448,1,1,1h6c0.552,0,1-0.448,1-1
			C11,10.447,10.552,10,10,10z"/>
	</g>
</g>
<g>
</g>
<g>
</g>
<g>
</g>
<g>
</g>
<g>
</g>
<g>
</g>
<g>
</g>
<g>
</g>
<g>
</g>
<g>
</g>
<g>
</g>
<g>
</g>
<g>
</g>
<g>
</g>
<g>
</g>
</svg>
